<?xml version="1.0" encoding="UTF-8"?>
<svg version="1.1" xmlns="http://www.w3.org/2000/svg" width="1318" height="224">
<path d="M0 0 C5.6860751 3.39881932 9.43360889 7.72924025 11.515625 14.0546875 C12.20042684 21.16547873 12.79683979 29.11614024 8.91015625 35.40625 C5.27348897 39.70505558 1.1964475 43.08851094 -4.484375 43.9296875 C-5.969375 43.9915625 -5.969375 43.9915625 -7.484375 44.0546875 C-7.3296875 44.57184326 -7.175 45.08899902 -7.015625 45.62182617 C-6.33364984 48.74493391 -6.17120136 51.78878224 -5.984375 54.98046875 C-5.94376953 55.64628464 -5.90316406 56.31210052 -5.86132812 56.99809265 C-5.73212645 59.1209289 -5.6077793 61.24400691 -5.484375 63.3671875 C-5.36066778 65.47963327 -5.23578832 67.5919793 -5.10742188 69.70414734 C-4.99056593 71.62851732 -4.87797602 73.55314496 -4.765625 75.4777832 C-4.48723899 79.01826367 -3.98661997 82.53897268 -3.484375 86.0546875 C1.465625 84.0746875 6.415625 82.0946875 11.515625 80.0546875 C11.165 78.6315625 10.814375 77.2084375 10.453125 75.7421875 C8.40601747 65.30046636 10.25283869 55.59382318 16.06640625 46.67578125 C21.67822536 39.57388598 29.63077613 34.20399911 38.65087891 32.69824219 C48.8048756 31.70970017 57.87671545 32.87680546 66.19921875 39.04296875 C71.4236389 43.4333015 75.26464521 47.57498845 77.515625 54.0546875 C77.94875 55.2715625 78.381875 56.4884375 78.828125 57.7421875 C81.10808565 68.43081036 78.33978214 78.05371737 72.515625 87.0546875 C67.31730302 94.16259715 58.94955864 98.94228173 50.3671875 100.69921875 C39.91154073 102.00259389 29.96760579 100.08807622 21.453125 93.5546875 C18.6595426 91.19542405 16.08043189 88.65948024 13.515625 86.0546875 C12.74476563 86.6321875 11.97390625 87.2096875 11.1796875 87.8046875 C10.17679687 88.5471875 9.17390625 89.2896875 8.140625 90.0546875 C7.14289063 90.7971875 6.14515625 91.5396875 5.1171875 92.3046875 C2.515625 94.0546875 2.515625 94.0546875 0.515625 94.0546875 C0.515625 94.7146875 0.515625 95.3746875 0.515625 96.0546875 C1.2482959 96.32708252 1.9809668 96.59947754 2.73583984 96.88012695 C5.3875567 98.00057398 7.59458718 99.26496918 9.9921875 100.84765625 C11.23863037 101.66520386 11.23863037 101.66520386 12.51025391 102.49926758 C13.37827637 103.07443115 14.24629883 103.64959473 15.140625 104.2421875 C16.93213622 105.41690376 18.72380182 106.59138463 20.515625 107.765625 C22.18230421 108.86196009 23.84897199 109.95831258 25.515625 111.0546875 C27.71912622 112.5000534 29.92732323 113.93678237 32.140625 115.3671875 C33.36652344 116.16576172 33.36652344 116.16576172 34.6171875 116.98046875 C36.442187 118.21884426 36.442187 118.21884426 38.515625 118.0546875 C39.051875 117.3121875 39.588125 116.5696875 40.140625 115.8046875 C43.89414955 111.45850118 47.65455212 109.48030165 53.3515625 108.6328125 C60.72835812 108.29146977 66.52814848 109.64398416 72.515625 114.0546875 C77.45993956 118.9579704 80.39211669 124.3536525 80.578125 131.43359375 C80.20575957 139.05544861 77.51022859 144.20981409 72.015625 149.4296875 C66.03786531 153.3152313 60.50993616 153.94657953 53.515625 153.0546875 C46.13828785 150.75261568 40.76803762 146.47039142 36.515625 140.0546875 C33.52428415 133.44880978 34.78965568 130.04035001 35.515625 122.0546875 C22.645625 115.7846875 9.775625 109.5146875 -3.484375 103.0546875 C-4.144375 109.3246875 -4.804375 115.5946875 -5.484375 122.0546875 C-2.844375 122.3846875 -0.204375 122.7146875 2.515625 123.0546875 C11.21189287 126.33783387 17.44148687 132.30143093 21.390625 140.6171875 C22.97842231 144.44351872 24.2440433 147.89043481 24.515625 152.0546875 C24.5775 152.68246094 24.639375 153.31023437 24.703125 153.95703125 C25.23508622 163.14998614 22.34846309 173.16420634 16.4140625 180.2734375 C8.04384251 188.12697725 -0.97792497 191.60513706 -12.359375 191.36328125 C-23.47009086 190.26609806 -30.83432701 184.63244098 -37.796875 176.3046875 C-43.3777727 168.44276894 -44.27846638 159.17630067 -43.23828125 149.84765625 C-41.69762965 140.77845973 -36.72236916 133.25856278 -29.62109375 127.5234375 C-23.57468533 123.36722257 -17.75144374 121.58320159 -10.484375 121.0546875 C-10.7009375 120.25417969 -10.7009375 120.25417969 -10.921875 119.4375 C-11.2003125 118.31988281 -11.2003125 118.31988281 -11.484375 117.1796875 C-11.67 116.46039063 -11.855625 115.74109375 -12.046875 115 C-12.68745206 110.6875437 -12.56058743 106.40620576 -12.484375 102.0546875 C-13.51844482 102.55919434 -14.55251465 103.06370117 -15.61791992 103.58349609 C-19.46552659 105.46010819 -23.31425879 107.33440184 -27.16333008 109.20800781 C-28.82704825 110.01825071 -30.49046316 110.82911665 -32.15356445 111.640625 C-34.54818976 112.80894443 -36.94390739 113.97499706 -39.33984375 115.140625 C-40.0796196 115.50215668 -40.81939545 115.86368835 -41.58158875 116.23617554 C-45.171805 117.9801608 -48.74871552 119.6373815 -52.484375 121.0546875 C-52.154375 122.0653125 -51.824375 123.0759375 -51.484375 124.1171875 C-49.35699961 131.82506933 -50.61842728 138.1438783 -54.484375 145.0546875 C-59.01315079 150.53507947 -64.91428173 153.45569469 -71.8984375 154.37109375 C-78.09584102 154.66849237 -83.31724478 153.58177256 -88.484375 150.0546875 C-93.43248064 145.17015495 -96.43273154 139.68046576 -96.51171875 132.60546875 C-96.05757344 124.81512998 -93.26818153 120.57397771 -87.609375 115.3046875 C-81.80296357 110.47844094 -76.68085688 109.5987212 -69.2421875 109.73046875 C-64.48214088 110.29007763 -60.1860899 112.08594819 -57.015625 115.75390625 C-56.5103125 116.18316406 -56.005 116.61242187 -55.484375 117.0546875 C-52.31938647 116.59696725 -50.05692028 115.33068174 -47.39453125 113.61328125 C-46.22627808 112.86667236 -46.22627808 112.86667236 -45.03442383 112.10498047 C-44.21353271 111.57275879 -43.3926416 111.04053711 -42.546875 110.4921875 C-40.84429279 109.39889384 -39.14116492 108.30644947 -37.4375 107.21484375 C-36.60025391 106.67746582 -35.76300781 106.14008789 -34.90039062 105.58642578 C-32.73117585 104.21115764 -30.5472554 102.87017081 -28.34375 101.55078125 C-27.73781006 101.18734619 -27.13187012 100.82391113 -26.50756836 100.44946289 C-24.89443988 99.4878477 -23.2774179 98.5327726 -21.66015625 97.578125 C-20.94214844 97.07539062 -20.22414063 96.57265625 -19.484375 96.0546875 C-19.484375 95.3946875 -19.484375 94.7346875 -19.484375 94.0546875 C-21.266504 92.61394035 -23.11097776 91.24958101 -24.984375 89.9296875 C-26.0053125 89.20523438 -27.02625 88.48078125 -28.078125 87.734375 C-28.8721875 87.18007812 -29.66625 86.62578125 -30.484375 86.0546875 C-31.391875 86.9209375 -32.299375 87.7871875 -33.234375 88.6796875 C-41.46743385 95.65376753 -50.61883053 99.64658486 -61.484375 99.0546875 C-72.91361759 97.53078849 -81.34263786 92.43711442 -88.75390625 83.6796875 C-94.3766826 75.15032925 -95.50730104 65.53291197 -93.859375 55.6796875 C-91.76797603 47.3140916 -87.12063606 40.50108979 -80.08984375 35.53125 C-70.93131898 30.3409616 -61.76970972 28.98157062 -51.484375 31.0546875 C-40.03520897 34.49472968 -32.2214568 42.20337087 -26.609375 52.4921875 C-25.15865106 56.79285434 -25.20537634 61.18524304 -25.171875 65.6796875 C-25.16623535 66.40857178 -25.1605957 67.13745605 -25.15478516 67.88842773 C-25.21865313 72.63901425 -25.87791212 75.23529886 -27.484375 80.0546875 C-20.059375 83.5196875 -20.059375 83.5196875 -12.484375 87.0546875 C-12.35160156 84.53714844 -12.21882813 82.01960938 -12.08203125 79.42578125 C-11.95036991 76.96992983 -11.81764267 74.51413816 -11.68481445 72.05834961 C-11.59353168 70.36016691 -11.50334573 68.66192486 -11.41430664 66.96362305 C-11.28564713 64.5133422 -11.15295922 62.06330651 -11.01953125 59.61328125 C-10.98094498 58.86195419 -10.9423587 58.11062714 -10.90260315 57.33653259 C-10.65404607 52.85733794 -10.18176491 48.4868175 -9.484375 44.0546875 C-10.04125 44.05210938 -10.598125 44.04953125 -11.171875 44.046875 C-17.74899294 43.7135751 -21.85475571 41.7471523 -26.484375 37.0546875 C-31.06419045 30.91296968 -32.30300386 24.55098894 -31.484375 17.0546875 C-29.72244527 9.99635455 -26.74742345 4.90887116 -20.484375 1.0546875 C-14.27765958 -1.95494464 -6.49111341 -2.46988906 0 0 Z M-20.921875 13.1796875 C-24.01886347 17.21001496 -24.97950469 21.00783931 -24.484375 26.0546875 C-23.22715176 30.88415882 -20.8959644 34.13982781 -16.859375 37.0546875 C-12.12911734 39.64841614 -7.75613434 39.9500498 -2.484375 39.0546875 C2.00980369 37.67245729 4.83129117 35.82675644 7.953125 32.3046875 C10.52636789 26.95234229 11.10760162 23.1091946 9.453125 17.3671875 C6.65636623 12.58563218 3.53814267 9.92148079 -1.546875 7.7421875 C-8.94882505 6.00981621 -15.56612575 7.63082229 -20.921875 13.1796875 Z M21.6953125 45.29296875 C17.10182518 52.15277928 15.63425559 58.90831596 16.515625 67.0546875 C18.76384568 76.57576666 23.36914683 83.49870205 31.515625 88.9296875 C38.81355072 93.06006229 45.35952204 93.80078278 53.515625 92.0546875 C61.28409483 89.19391766 66.85746852 83.85981652 70.8359375 76.66796875 C74.30496557 68.94149713 74.78185482 61.93829919 71.953125 53.9296875 C68.04501996 45.30210613 62.44810687 40.06491076 53.83203125 36.12890625 C41.66624321 32.18827997 29.55148461 35.06219094 21.6953125 45.29296875 Z M-83.484375 46.0546875 C-89.7868273 54.5340314 -91.45964355 62.56129176 -90.484375 73.0546875 C-88.81660369 80.2650521 -85.37814911 85.58682648 -79.484375 90.0546875 C-72.63000027 94.18747226 -66.50136401 95.88202212 -58.484375 95.0546875 C-50.11929504 92.64697534 -42.8716537 87.64321138 -38.109375 80.3671875 C-34.05501538 72.93604618 -32.73502895 66.19491271 -34.484375 57.8671875 C-37.23995693 48.64612764 -41.85312472 43.90775425 -50.1171875 39.18359375 C-61.48672774 33.76148628 -74.92112642 37.2922936 -83.484375 46.0546875 Z M-86.296875 118.0546875 C-89.52831206 122.48637261 -89.92806268 125.64169784 -89.484375 131.0546875 C-87.50792031 137.22217863 -83.82806458 141.47156386 -78.484375 145.0546875 C-74.25000124 146.46614542 -70.62176153 146.943936 -66.390625 145.18359375 C-61.30442687 142.28939519 -58.69138948 139.48026477 -56.484375 134.0546875 C-55.69743132 127.85750604 -56.63142458 123.07488563 -60.484375 118.0546875 C-64.34272477 114.49196767 -68.30506627 111.72910996 -73.671875 111.4921875 C-79.16726208 112.30298232 -82.65948974 113.87689072 -86.296875 118.0546875 Z M42.92578125 120.7734375 C38.89601155 126.28662967 37.66547687 131.25350247 38.515625 138.0546875 C41.08652434 142.92103267 44.18645515 147.27829755 49.515625 149.0546875 C53.63700404 149.45602029 57.32529605 149.52528267 61.203125 147.9921875 C66.92537796 143.19786746 70.33501157 139.05174616 71.4609375 131.48046875 C71.57711432 126.32719685 69.37037101 123.09424346 66.203125 119.2421875 C62.66240129 116.36020308 59.59875303 115.38360245 55.140625 114.6796875 C50.38611272 115.35890354 46.21672747 117.2156578 42.92578125 120.7734375 Z M-31.484375 142.0546875 C-35.68438785 147.85733683 -36.87645005 154.24134059 -36.30078125 161.30859375 C-34.88640068 169.69280849 -29.9478096 176.64308651 -23.3125 181.8359375 C-16.30715577 186.50616699 -8.75717878 187.2023597 -0.484375 186.0546875 C8.04817652 183.32427101 14.56935905 178.52987138 19.515625 171.0546875 C22.85335783 164.50367967 23.6596931 157.67413229 21.89453125 150.546875 C19.35109215 143.15394535 14.9834084 137.5856978 8.13671875 133.70703125 C-7.10073143 126.7033268 -20.24219765 129.65998477 -31.484375 142.0546875 Z " fill="#F37021" transform="translate(116.484375,21.9453125)"/>
<path d="M0 0 C1.29357422 -0.02449219 2.58714844 -0.04898438 3.91992188 -0.07421875 C11.45303471 -0.09733828 16.21902058 0.53789498 22.6875 4.375 C27.11835711 4.375 27.43234077 3.91809315 30.6875 1.375 C36.4377582 -0.57137923 42.95003071 0.10656871 48.9375 0.0625 C50.88462891 0.01899414 50.88462891 0.01899414 52.87109375 -0.02539062 C60.30342081 -0.07463642 65.4269867 0.2366946 71.6875 4.375 C76.78697106 9.60866767 77.93972935 14.36352002 77.91455078 21.55200195 C77.91484283 22.25498917 77.91513489 22.95797638 77.91543579 23.68226624 C77.91404877 25.99273262 77.8985175 28.30287159 77.8828125 30.61328125 C77.87908013 32.22039107 77.87623422 33.82750317 77.87423706 35.43461609 C77.86661821 39.6547377 77.84698483 43.87472061 77.8248291 48.0947876 C77.80433293 52.40496952 77.79522729 56.71517396 77.78515625 61.02539062 C77.76373719 69.47533101 77.72856938 77.92513225 77.6875 86.375 C70.4275 86.375 63.1675 86.375 55.6875 86.375 C55.66244385 84.56789551 55.6373877 82.76079102 55.61157227 80.89892578 C55.52775814 74.93573298 55.43948874 68.97262016 55.34816074 63.00953865 C55.29293946 59.3932718 55.23952076 55.77699685 55.19018555 52.16064453 C55.14253022 48.67224878 55.09018704 45.1839523 55.03455925 41.6956749 C55.00418768 39.71367812 54.97870213 37.73160845 54.95326233 35.74954224 C54.9233445 33.94790115 54.9233445 33.94790115 54.89282227 32.10986328 C54.87727798 31.04841095 54.8617337 29.98695862 54.84571838 28.89334106 C54.85220819 26.37920764 54.85220819 26.37920764 53.6875 24.375 C48.4075 24.375 43.1275 24.375 37.6875 24.375 C36.35419971 27.04160057 36.52590541 29.12388743 36.48217773 32.10986328 C36.46223251 33.31095734 36.44228729 34.51205139 36.42173767 35.74954224 C36.40502518 37.05164642 36.38831268 38.35375061 36.37109375 39.6953125 C36.35052375 41.03767538 36.32952727 42.38003179 36.30812073 43.72238159 C36.25290469 47.25688438 36.20349342 50.79144557 36.15527344 54.3260498 C36.10505496 57.93226322 36.04937071 61.53839172 35.99414062 65.14453125 C35.88656481 72.22128198 35.78562361 79.29811098 35.6875 86.375 C28.4275 86.375 21.1675 86.375 13.6875 86.375 C13.3575 65.915 13.0275 45.455 12.6875 24.375 C7.4075 24.375 2.1275 24.375 -3.3125 24.375 C-5.98242424 27.04492424 -5.58449666 28.37740023 -5.63134766 32.10986328 C-5.65121735 33.31095734 -5.67108704 34.51205139 -5.69155884 35.74954224 C-5.70311005 37.05164642 -5.71466125 38.35375061 -5.7265625 39.6953125 C-5.7452677 41.03768107 -5.76484062 42.38003781 -5.7852478 43.72238159 C-5.83664391 47.25686678 -5.87622926 50.79139012 -5.91339111 54.3260498 C-5.95338414 57.93230688 -6.00449783 61.53840422 -6.0546875 65.14453125 C-6.15153518 72.22124348 -6.23488384 79.29804692 -6.3125 86.375 C-13.5725 86.375 -20.8325 86.375 -28.3125 86.375 C-28.40301413 76.9778925 -28.47633848 67.58107644 -28.51974869 58.18363094 C-28.54058767 53.81960234 -28.5688373 49.4558885 -28.61425781 45.09204102 C-28.65784805 40.87747178 -28.68166485 36.66320454 -28.69200897 32.4484272 C-28.69937679 30.84370739 -28.71376452 29.23900336 -28.73542023 27.63441277 C-28.76463086 25.37953372 -28.76844886 23.12588863 -28.76660156 20.87084961 C-28.77548401 19.58955673 -28.78436646 18.30826385 -28.79351807 16.98814392 C-28.0693093 11.54828481 -25.89655292 7.87781944 -21.875 4.0625 C-14.90111943 -0.5300555 -8.11297446 0.00801281 0 0 Z " fill="#0082CB" transform="translate(1014.3125,74.625)"/>
<path d="M0 0 C7.59 0 15.18 0 23 0 C23.33 20.46 23.66 40.92 24 62 C36.67412742 63.22649163 36.67412742 63.22649163 48 60 C48.4781212 57.37706711 48.4781212 57.37706711 48.43237305 54.26513672 C48.45216721 53.06404266 48.47196136 51.86294861 48.49235535 50.62545776 C48.50194023 48.67230148 48.50194023 48.67230148 48.51171875 46.6796875 C48.52855912 45.3373143 48.54670849 43.99495694 48.56611633 42.65261841 C48.61369307 39.11811266 48.64345225 35.58367107 48.66955566 32.0489502 C48.69932289 28.44266075 48.74586623 24.83659261 48.79101562 21.23046875 C48.87713573 14.15375823 48.94289169 7.07701272 49 0 C56.59 0 64.18 0 72 0 C72.04525128 12.49179008 72.08191652 24.98352538 72.10362434 37.47537899 C72.11404494 43.27634167 72.12817268 49.07724519 72.15087891 54.87817383 C72.17266871 60.48027182 72.18458159 66.08231303 72.18975449 71.68445015 C72.19343923 73.81778418 72.20063454 75.95111523 72.21146011 78.08442497 C72.22605653 81.08100893 72.22797453 84.07736061 72.22705078 87.07397461 C72.23424133 87.94863876 72.24143188 88.82330292 72.24884033 89.72447205 C72.22136456 98.00464303 71.37216261 105.39991451 66 112 C61.46266717 116.09466621 58.37321098 117.12662302 52.33520508 117.11352539 C51.17422806 117.11344986 50.01325104 117.11337433 48.8170929 117.11329651 C47.56389755 117.10813522 46.31070221 117.10297394 45.01953125 117.09765625 C43.73640549 117.0962413 42.45327972 117.09482635 41.13127136 117.09336853 C37.72329759 117.08955405 34.31536657 117.07973291 30.90740967 117.06866455 C27.42851337 117.05842743 23.94961015 117.05386598 20.47070312 117.04882812 C13.64711611 117.03810967 6.82356451 117.02052152 0 117 C0 109.74 0 102.48 0 95 C3.12984375 94.95101562 6.2596875 94.90203125 9.484375 94.8515625 C12.51599912 94.79755107 15.54754427 94.74024417 18.57910156 94.68261719 C20.68581254 94.64433694 22.79258867 94.6094824 24.89941406 94.578125 C27.92797121 94.53245402 30.95608022 94.47446255 33.984375 94.4140625 C34.92617615 94.40251129 35.86797729 94.39096008 36.83831787 94.37905884 C38.15923431 94.3492543 38.15923431 94.3492543 39.50683594 94.31884766 C40.27960876 94.30552399 41.05238159 94.29220032 41.84857178 94.2784729 C44.32049391 93.95851646 45.92456762 93.38129044 48 92 C48.81584568 88.94091587 48.81584568 88.94091587 49 86 C48.16863525 86.01047363 47.33727051 86.02094727 46.48071289 86.03173828 C43.35523529 86.0661057 40.22985498 86.09103659 37.10424805 86.10986328 C35.10263623 86.12470245 33.10111188 86.15013361 31.09960938 86.17578125 C12.41427515 86.26991392 12.41427515 86.26991392 5.4375 79.6484375 C0.61431212 74.11749922 -0.12657853 68.35240678 -0.11352539 61.30371094 C-0.11367142 60.63988403 -0.11381744 59.97605713 -0.1139679 59.29211426 C-0.11327332 57.1061675 -0.10550231 54.92030681 -0.09765625 52.734375 C-0.09579045 51.21551561 -0.09436731 49.69665562 -0.09336853 48.17779541 C-0.0895561 44.18622161 -0.0797367 40.19468438 -0.06866455 36.203125 C-0.05842303 32.1276092 -0.05386504 28.05208747 -0.04882812 23.9765625 C-0.03811327 15.98435638 -0.0205268 7.99218695 0 0 Z " fill="#0082CB" transform="translate(669,75)"/>
<path d="M0 0 C0.88161804 -0.0066568 1.76323608 -0.0133136 2.67156982 -0.02017212 C4.53411786 -0.03027654 6.39670193 -0.03498982 8.25927734 -0.03466797 C11.0862313 -0.03902682 13.91160468 -0.07532936 16.73828125 -0.11328125 C18.55468221 -0.11915302 20.37109052 -0.12312 22.1875 -0.125 C23.02218811 -0.13937103 23.85687622 -0.15374207 24.71685791 -0.16854858 C32.20803896 -0.1112186 38.23083164 1.93109996 43.796875 7.0234375 C48.28682926 14.23457616 48.16770438 22.36828837 48.16015625 30.65234375 C48.16444138 31.70824203 48.1687265 32.76414032 48.17314148 33.85203552 C48.17885383 36.07151577 48.17940804 38.29101473 48.17504883 40.51049805 C48.17188095 43.89208988 48.19541503 47.27281238 48.22070312 50.65429688 C48.22297575 52.82031141 48.22367978 54.98632827 48.22265625 57.15234375 C48.231866 58.15463516 48.24107574 59.15692657 48.25056458 60.18959045 C48.20290951 67.46825592 47.38779513 73.32916762 42.546875 79.0859375 C35.42667274 85.04703706 30.77577731 86.47139595 21.58984375 86.43359375 C20.34356201 86.43109619 19.09728027 86.42859863 17.81323242 86.42602539 C16.24033447 86.41692139 14.66743652 86.40781738 13.046875 86.3984375 C5.5290625 86.3675 5.5290625 86.3675 -2.140625 86.3359375 C-2.140625 96.5659375 -2.140625 106.7959375 -2.140625 117.3359375 C-9.400625 117.3359375 -16.660625 117.3359375 -24.140625 117.3359375 C-24.20849405 104.45299946 -24.26349509 91.57018083 -24.29606152 78.68710423 C-24.31169444 72.70450238 -24.33288955 66.72202956 -24.36694336 60.73950195 C-24.39962115 54.96233291 -24.41749586 49.18528772 -24.42525673 43.40803337 C-24.43078511 41.20770253 -24.44158062 39.00737819 -24.45781517 36.8071003 C-24.47970109 33.71703753 -24.48258723 30.62748174 -24.48120117 27.53735352 C-24.491987 26.63463715 -24.50277283 25.73192078 -24.5138855 24.80184937 C-24.48200947 18.20257693 -23.65047075 11.56543097 -19.4921875 6.21484375 C-18.92242187 5.78042969 -18.35265625 5.34601563 -17.765625 4.8984375 C-17.20101563 4.44597656 -16.63640625 3.99351563 -16.0546875 3.52734375 C-10.74820201 0.22432727 -6.09001023 0.01608265 0 0 Z M0.859375 23.3359375 C-1.62683464 27.70388111 -2.52377376 30.85674955 -2.5390625 35.87109375 C-2.54292969 37.09248047 -2.54679687 38.31386719 -2.55078125 39.57226562 C-2.53917969 40.83490234 -2.52757812 42.09753906 -2.515625 43.3984375 C-2.52722656 44.66494141 -2.53882813 45.93144531 -2.55078125 47.23632812 C-2.54691406 48.45642578 -2.54304688 49.67652344 -2.5390625 50.93359375 C-2.53567871 52.04226807 -2.53229492 53.15094238 -2.52880859 54.29321289 C-2.0943136 57.69894317 -1.17107978 59.59200433 0.859375 62.3359375 C4.38495733 64.09872867 8.41333091 63.56307631 12.296875 63.5859375 C13.16892578 63.6065625 14.04097656 63.6271875 14.93945312 63.6484375 C16.19725586 63.65617187 16.19725586 63.65617187 17.48046875 63.6640625 C18.2480249 63.6734082 19.01558105 63.68275391 19.80639648 63.69238281 C21.89332354 63.45388324 21.89332354 63.45388324 23.61035156 62.30786133 C25.56897637 59.21563838 25.26654897 56.00202249 25.22265625 52.45703125 C25.22315475 51.68915787 25.22365326 50.92128448 25.22416687 50.13014221 C25.22182833 48.5086915 25.21211269 46.88723702 25.19555664 45.26586914 C25.1719291 42.77913107 25.17500123 40.29346267 25.18164062 37.80664062 C25.17606494 36.23176442 25.16895575 34.65689274 25.16015625 33.08203125 C25.16106766 32.33618271 25.16197906 31.59033417 25.16291809 30.82188416 C25.24163433 26.62081771 25.24163433 26.62081771 22.859375 23.3359375 C20.53120295 23.05828334 20.53120295 23.05828334 17.8515625 23.140625 C16.86542969 23.14707031 15.87929688 23.15351562 14.86328125 23.16015625 C13.83074219 23.17691406 12.79820312 23.19367188 11.734375 23.2109375 C10.69410156 23.21996094 9.65382813 23.22898437 8.58203125 23.23828125 C6.00758408 23.26190003 3.43359288 23.29483601 0.859375 23.3359375 Z " fill="#0082CB" transform="translate(396.140625,74.6640625)"/>
<path d="M0 0 C7.82875508 -0.0743381 15.65730317 -0.12869206 23.48632812 -0.16479492 C26.14796423 -0.17815167 28.80911286 -0.20029814 31.47070312 -0.22631836 C35.30344752 -0.26284115 39.1358629 -0.27975892 42.96875 -0.29296875 C44.15239136 -0.30845261 45.33603271 -0.32393646 46.55554199 -0.33988953 C53.79171886 -0.34135279 60.09617456 -0.04468239 66.0234375 4.578125 C66.46945312 5.12984375 66.91546875 5.6815625 67.375 6.25 C68.06722656 7.06210938 68.06722656 7.06210938 68.7734375 7.890625 C72.58240864 14.44108492 72.30701319 21.41852192 72.30078125 28.77734375 C72.30506638 29.90266006 72.3093515 31.02797638 72.31376648 32.18739319 C72.31949277 34.56006194 72.32002263 36.93274824 72.31567383 39.30541992 C72.31251353 42.92201865 72.33599665 46.53779909 72.36132812 50.15429688 C72.36360135 52.46614481 72.36430451 54.77799493 72.36328125 57.08984375 C72.372491 58.16403061 72.38170074 59.23821747 72.39118958 60.34495544 C72.34506957 67.8816807 71.65497751 73.85594769 66.625 79.8125 C60.07951489 85.26707092 54.79271321 86.15440649 46.42578125 86.16796875 C45.7019072 86.17129715 44.97803314 86.17462555 44.23222351 86.17805481 C42.70340608 86.18310211 41.17457771 86.18546382 39.64575195 86.18530273 C37.33721122 86.18747673 35.02915868 86.2056209 32.72070312 86.22460938 C11.86457611 86.30747748 11.86457611 86.30747748 4.47265625 80.0234375 C-0.67699634 72.94778752 -0.46081114 65.40949158 -0.375 57 C-0.38660156 55.86304688 -0.39820313 54.72609375 -0.41015625 53.5546875 C-0.38479536 46.26765837 -0.10590346 39.89553994 4.61328125 33.9765625 C5.17402344 33.53054687 5.73476563 33.08453125 6.3125 32.625 C6.86550781 32.16351563 7.41851562 31.70203125 7.98828125 31.2265625 C13.03331687 28.1505602 18.02550033 27.71833793 23.8046875 27.8046875 C24.5286673 27.8075174 25.25264709 27.81034729 25.99856567 27.81326294 C28.2908849 27.82437913 30.58280063 27.84946688 32.875 27.875 C34.43749432 27.8850409 35.99999482 27.89416481 37.5625 27.90234375 C41.37515338 27.92429027 45.18750848 27.95875987 49 28 C48.65555119 25.52733235 48.65555119 25.52733235 48 23 C45.6488157 21.82440785 44.17282086 21.84483537 41.55029297 21.79467773 C40.62948944 21.77473251 39.70868591 21.75478729 38.75997925 21.73423767 C37.76410797 21.71752518 36.76823669 21.70081268 35.7421875 21.68359375 C34.72399933 21.66281265 33.70581116 21.64203156 32.6567688 21.62062073 C29.39624945 21.55510534 26.13564794 21.49623098 22.875 21.4375 C20.66796017 21.39431668 18.46092872 21.35070245 16.25390625 21.30664062 C10.83602058 21.19860904 5.41807479 21.09955024 0 21 C0 14.07 0 7.14 0 0 Z M23 50 C22.90120435 51.810285 22.87028486 53.62452727 22.875 55.4375 C22.87242187 56.42621094 22.86984375 57.41492188 22.8671875 58.43359375 C22.82771585 60.98909076 22.82771585 60.98909076 24 63 C28.17828639 64.39276213 32.12424034 64.18424906 36.5 64.1875 C37.36753906 64.19974609 38.23507812 64.21199219 39.12890625 64.22460938 C40.37994141 64.22750977 40.37994141 64.22750977 41.65625 64.23046875 C42.79803711 64.23663208 42.79803711 64.23663208 43.96289062 64.24291992 C46.3122 64.1185105 46.3122 64.1185105 49 62 C49.47874797 59.40701738 49.47874797 59.40701738 49.375 56.5 C49.38273437 55.5203125 49.39046875 54.540625 49.3984375 53.53125 C49.26695312 52.6959375 49.13546875 51.860625 49 51 C45.71533599 48.81022399 44.73816905 48.75213625 40.9296875 48.76953125 C39.46208984 48.77243164 39.46208984 48.77243164 37.96484375 48.77539062 C36.43537109 48.79375977 36.43537109 48.79375977 34.875 48.8125 C33.33392578 48.8134668 33.33392578 48.8134668 31.76171875 48.81445312 C27.03612595 48.39904888 27.03612595 48.39904888 23 50 Z " fill="#0082CB" transform="translate(293,75)"/>
<path d="M0 0 C7.79211766 -0.0992821 15.58386259 -0.17166561 23.37646484 -0.21972656 C26.0243166 -0.2397738 28.67212446 -0.26701884 31.31982422 -0.30175781 C35.13780588 -0.35057744 38.95519936 -0.37303881 42.7734375 -0.390625 C43.94675629 -0.41127014 45.12007507 -0.43191528 46.32894897 -0.45318604 C53.50321953 -0.45512062 59.73280396 0.27031683 66 4 C70.85385476 8.97770415 72.10678011 13.60679419 72.17700195 20.46777344 C72.19625481 22.11033112 72.19625481 22.11033112 72.21589661 23.78607178 C72.22328354 24.96526184 72.23067047 26.1444519 72.23828125 27.359375 C72.246353 28.57772034 72.25442474 29.79606567 72.26274109 31.05133057 C72.27657013 33.63023459 72.28729755 36.20915684 72.29516602 38.78808594 C72.31237337 42.72105799 72.35627167 46.65318825 72.40039062 50.5859375 C72.41051842 53.09374383 72.41903425 55.60155729 72.42578125 58.109375 C72.44328934 59.28046814 72.46079742 60.45156128 72.47883606 61.65814209 C72.45645135 70.13320175 71.27953386 75.57139642 65.25 81.875 C59.31256053 85.75717196 53.05335005 86.30739376 46.09765625 86.265625 C45.01465492 86.26849518 45.01465492 86.26849518 43.90977478 86.27142334 C42.39468026 86.27277399 40.87957371 86.26915656 39.36450195 86.26074219 C37.07150727 86.25004203 34.77929867 86.2606674 32.48632812 86.2734375 C12.31416237 86.29358157 12.31416237 86.29358157 5 80 C-0.27699573 73.04857293 -0.18127268 65.52588186 -0.1875 57.1875 C-0.19974609 56.33607422 -0.21199219 55.48464844 -0.22460938 54.60742188 C-0.24034512 47.72041158 -0.20039268 39.5434577 4.625 34.125 C5.07101562 33.59132812 5.51703125 33.05765625 5.9765625 32.5078125 C11.54244927 28.36025981 17.51549208 27.55926703 24.21875 27.70703125 C24.96209595 27.71127609 25.70544189 27.71552094 26.47131348 27.71989441 C28.81459858 27.73650919 31.15698077 27.77412546 33.5 27.8125 C35.10154996 27.82756922 36.70311358 27.84125368 38.3046875 27.85351562 C42.20346583 27.88635574 46.10158056 27.93801437 50 28 C49.505 25.03 49.505 25.03 49 22 C24.745 21.505 24.745 21.505 0 21 C0 14.07 0 7.14 0 0 Z M23 51 C22.6055412 53.06831698 22.6055412 53.06831698 22.625 55.375 C22.59664062 56.14585937 22.56828125 56.91671875 22.5390625 57.7109375 C23.21489039 61.06716755 24.15553769 62.07199059 27 64 C30.17868516 64.58504804 33.27628341 64.55834781 36.5 64.5 C37.78197266 64.52320313 37.78197266 64.52320313 39.08984375 64.546875 C43.03241613 64.52227236 45.2881401 64.50274428 48.56640625 62.1875 C50.66149695 58.99063135 50.46717429 56.73739434 50 53 C48.87511821 50.73602707 48.87511821 50.73602707 47 49 C44.62639522 48.41836056 44.62639522 48.41836056 41.96484375 48.5390625 C40.99095703 48.54292969 40.01707031 48.54679687 39.01367188 48.55078125 C37.99853516 48.57527344 36.98339844 48.59976563 35.9375 48.625 C34.91849609 48.62628906 33.89949219 48.62757812 32.84960938 48.62890625 C27.37536608 48.34715739 27.37536608 48.34715739 23 51 Z " fill="#0082CB" transform="translate(1195,75)"/>
<path d="M0 0 C7.26 0 14.52 0 22 0 C22 10.56 22 21.12 22 32 C24.3615625 31.95359375 26.723125 31.9071875 29.15625 31.859375 C31.46644954 31.82809931 33.77662468 31.80385745 36.08691406 31.78027344 C37.68142408 31.76026947 39.27586178 31.73305699 40.87011719 31.69824219 C58.77465613 31.31729455 58.77465613 31.31729455 65.49755859 37.34204102 C70.52486546 42.70883812 71.25301361 49.0537923 71.22705078 56.12866211 C71.22734283 56.80268066 71.22763489 57.47669922 71.22793579 58.17114258 C71.22655533 60.37334595 71.21105568 62.57520033 71.1953125 64.77734375 C71.19157779 66.31433426 71.18873298 67.85132717 71.18673706 69.38832092 C71.17913665 73.41442552 71.15951944 77.44038357 71.1373291 81.46643066 C71.11679288 85.58241799 71.10771878 89.69842922 71.09765625 93.81445312 C71.07626978 101.8763765 71.04111735 109.93815308 71 118 C63.41 118 55.82 118 48 118 C47.67 97.54 47.34 77.08 47 56 C39.41 56 31.82 56 24 56 C22.23246465 57.76753535 22.82913939 60.31558806 22.79467773 62.71313477 C22.77473251 63.9343251 22.75478729 65.15551544 22.73423767 66.41371155 C22.71725209 67.75627513 22.70037333 69.09884007 22.68359375 70.44140625 C22.66303053 71.80761861 22.64203423 73.17382451 22.62062073 74.5400238 C22.56533465 78.14194524 22.51595437 81.74392471 22.46777344 85.34594727 C22.41760597 89.01909572 22.36189515 92.69215955 22.30664062 96.36523438 C22.19897915 103.57675337 22.09806416 110.78834295 22 118 C14.74 118 7.48 118 0 118 C0 79.06 0 40.12 0 0 Z " fill="#0082CB" transform="translate(827,43)"/>
<path d="M0 0 C7.66802878 -0.07440983 15.33584522 -0.12872575 23.00415039 -0.16479492 C25.61030745 -0.17983884 28.21643937 -0.20027895 30.82250977 -0.22631836 C34.57835105 -0.26289424 38.33385624 -0.27977095 42.08984375 -0.29296875 C43.24645004 -0.30845261 44.40305634 -0.32393646 45.5947113 -0.33988953 C52.93622729 -0.3414012 60.2029172 -0.0266602 66.15625 4.71875 C66.5996875 5.3065625 67.043125 5.894375 67.5 6.5 C68.19609375 7.38171875 68.19609375 7.38171875 68.90625 8.28125 C71.08705225 11.70822497 71.13477653 14.71114225 71.16113281 18.66137695 C71.17074036 19.82300858 71.1803479 20.9846402 71.19024658 22.18147278 C71.19449646 23.43771957 71.19874634 24.69396637 71.203125 25.98828125 C71.20882507 27.27937302 71.21452515 28.57046478 71.22039795 29.90068054 C71.23089794 32.63520704 71.2367469 35.36970423 71.24023438 38.10424805 C71.24571192 41.59790787 71.26972776 45.09117656 71.29820633 48.58471394 C71.32138135 51.92756193 71.32328571 55.27035711 71.328125 58.61328125 C71.3404718 59.86345535 71.3528186 61.11362946 71.36553955 62.40168762 C71.34773511 69.34933319 71.13550472 74.36778166 66.421875 79.828125 C65.87015625 80.29734375 65.3184375 80.7665625 64.75 81.25 C64.20859375 81.72953125 63.6671875 82.2090625 63.109375 82.703125 C57.90982101 85.89988782 52.19105417 86.30131102 46.23046875 86.265625 C45.50942459 86.26753845 44.78838043 86.2694519 44.04548645 86.27142334 C42.52861174 86.27277618 41.0117251 86.26914311 39.49487305 86.26074219 C37.2039919 86.25007678 34.91390326 86.26064354 32.62304688 86.2734375 C10.95755923 86.29493455 10.95755923 86.29493455 4 80 C-0.50820272 73.21292557 -0.62314872 67.04612799 -0.52148438 59.01855469 C-0.50003548 57.00333353 -0.52135482 54.99167534 -0.546875 52.9765625 C-0.5121704 44.28305938 0.03046945 38.07681516 6.3125 31.625 C11.87026713 28.26448964 17.53325961 27.70880771 23.90234375 27.8046875 C24.6249086 27.8075174 25.34747345 27.81034729 26.0919342 27.81326294 C28.37396616 27.82435614 30.65558897 27.84943912 32.9375 27.875 C34.49543699 27.88504389 36.05338021 27.89416726 37.61132812 27.90234375 C41.40770699 27.92425967 45.2037844 27.95871262 49 28 C48.65555119 25.52733235 48.65555119 25.52733235 48 23 C45.6488157 21.82440785 44.17282086 21.84483537 41.55029297 21.79467773 C40.62948944 21.77473251 39.70868591 21.75478729 38.75997925 21.73423767 C37.76410797 21.71752518 36.76823669 21.70081268 35.7421875 21.68359375 C34.72399933 21.66281265 33.70581116 21.64203156 32.6567688 21.62062073 C29.39624945 21.55510534 26.13564794 21.49623098 22.875 21.4375 C20.66796017 21.39431668 18.46092872 21.35070245 16.25390625 21.30664062 C10.83602058 21.19860904 5.41807479 21.09955024 0 21 C0 14.07 0 7.14 0 0 Z M24 49 C21.53248761 52.70126859 21.69278844 54.62223532 22 59 C23.01736771 61.76142665 23.36170741 62.68085371 26 64 C29.30646904 64.26435731 32.62162927 64.23148851 35.9375 64.25 C37.31711914 64.2809375 37.31711914 64.2809375 38.72460938 64.3125 C40.05008789 64.32023437 40.05008789 64.32023437 41.40234375 64.328125 C42.21179443 64.3374707 43.02124512 64.34681641 43.85522461 64.35644531 C46.51193074 63.91492102 47.38022423 63.11283437 49 61 C49.47307456 58.82504919 49.47307456 58.82504919 49.375 56.5 C49.38273437 55.7265625 49.39046875 54.953125 49.3984375 54.15625 C48.89463939 51.42981317 48.17625895 50.69030398 46 49 C43.62005326 48.53911801 43.62005326 48.53911801 40.96484375 48.6015625 C39.99095703 48.59769531 39.01707031 48.59382813 38.01367188 48.58984375 C36.99853516 48.60144531 35.98339844 48.61304688 34.9375 48.625 C33.91849609 48.61339844 32.89949219 48.60179687 31.84960938 48.58984375 C30.87701172 48.59371094 29.90441406 48.59757812 28.90234375 48.6015625 C28.01023193 48.60494629 27.11812012 48.60833008 26.19897461 48.61181641 C25.47331299 48.73991699 24.74765137 48.86801758 24 49 Z " fill="#0082CB" transform="translate(451,75)"/>
<path d="M0 0 C1.22696342 -0.01441132 1.22696342 -0.01441132 2.47871399 -0.02911377 C3.3548082 -0.03336365 4.2309024 -0.03761353 5.13354492 -0.04199219 C6.0435173 -0.04769226 6.95348969 -0.05339233 7.89103699 -0.05926514 C9.81504153 -0.06870113 11.73906213 -0.07524355 13.66308594 -0.07910156 C16.59298186 -0.08879759 19.52217317 -0.11983026 22.4519043 -0.15136719 C24.32494702 -0.15789881 26.19799475 -0.16314866 28.07104492 -0.16699219 C28.94106644 -0.17933899 29.81108795 -0.19168579 30.70747375 -0.20440674 C36.73095089 -0.18255957 41.726751 0.58593112 46.50854492 4.59082031 C50.3852647 9.65932321 52.06513124 13.51289045 51.99682617 19.89941406 C51.99038086 20.96611328 51.98393555 22.0328125 51.97729492 23.13183594 C51.9521582 24.78602539 51.9521582 24.78602539 51.92651367 26.47363281 C51.91749023 27.59576172 51.9084668 28.71789062 51.89916992 29.87402344 C51.87565853 32.63661191 51.84279522 35.39876213 51.80151367 38.16113281 C45.97422329 40.79911167 40.11148243 43.28830992 34.15307617 45.61425781 C33.3738681 45.91934265 32.59466003 46.22442749 31.7918396 46.53875732 C30.16383999 47.17509978 28.53538694 47.81028334 26.90649414 48.44433594 C24.40979603 49.41765003 21.91620846 50.39866571 19.42260742 51.37988281 C17.83294796 52.00014699 16.24311054 52.61995534 14.65307617 53.23925781 C13.90933746 53.5329425 13.16559875 53.8266272 12.39932251 54.12921143 C9.39077186 55.292565 7.05684956 56.16113281 3.80151367 56.16113281 C4.46151367 58.14113281 5.12151367 60.12113281 5.80151367 62.16113281 C20.98151367 62.49113281 36.16151367 62.82113281 51.80151367 63.16113281 C51.80151367 70.75113281 51.80151367 78.34113281 51.80151367 86.16113281 C44.86368209 86.20721435 37.92638844 86.24698965 30.98852539 86.27099609 C28.63173618 86.28101124 26.27495926 86.29462723 23.91821289 86.31201172 C20.51730299 86.33645801 17.11655837 86.34766112 13.71557617 86.35644531 C12.15246201 86.37192917 12.15246201 86.37192917 10.55776978 86.38772583 C1.95077147 86.38902565 -7.59251823 86.30621941 -14.19848633 80.16113281 C-19.14447848 72.80027051 -19.93006726 66.16813997 -19.82739258 57.46972656 C-19.82980453 56.28443863 -19.83221649 55.0991507 -19.83470154 53.87794495 C-19.83372715 51.38612503 -19.82043203 48.89428236 -19.79541016 46.40258789 C-19.76105168 42.60585478 -19.77478922 38.81144649 -19.79418945 35.01464844 C-19.78729134 32.58299799 -19.77761928 30.15135349 -19.76489258 27.71972656 C-19.76985245 26.59449081 -19.77481232 25.46925507 -19.77992249 24.30992126 C-19.68040777 17.59750323 -18.95492371 11.8738734 -15.19848633 6.16113281 C-10.59365821 1.82921909 -6.32271957 0.06028455 0 0 Z M3.80151367 26.16113281 C3.72945856 27.84722247 3.717653 29.53613941 3.73901367 31.22363281 C3.74803711 32.14273438 3.75706055 33.06183594 3.76635742 34.00878906 C3.77795898 34.7190625 3.78956055 35.42933594 3.80151367 36.16113281 C12.41854409 33.84974112 20.5683939 30.55317816 28.80151367 27.16113281 C28.47151367 26.17113281 28.14151367 25.18113281 27.80151367 24.16113281 C24.34403604 22.72673562 20.55327011 22.99331935 16.86401367 22.97363281 C15.65874023 22.95945312 14.4534668 22.94527344 13.21166992 22.93066406 C9.72819267 23.16608807 6.37334366 23.58930282 3.80151367 26.16113281 Z " fill="#0082CB" transform="translate(924.198486328125,74.8388671875)"/>
<path d="M0 0 C0.920728 0.00007553 1.84145599 0.00015106 2.79008484 0.00022888 C4.27614983 0.00797081 4.27614983 0.00797081 5.79223633 0.01586914 C6.80900955 0.01728409 7.82578278 0.01869904 8.87336731 0.02015686 C12.12369721 0.02575832 15.37395846 0.03831107 18.62426758 0.05102539 C20.82674054 0.0560402 23.02921459 0.06060314 25.23168945 0.06469727 C30.63342995 0.0748777 36.03502183 0.09445293 41.43676758 0.11352539 C41.43676758 7.70352539 41.43676758 15.29352539 41.43676758 23.11352539 C30.21676758 23.44352539 18.99676758 23.77352539 7.43676758 24.11352539 C7.39090671 29.20408145 7.351067 34.29392359 7.3269043 39.38452148 C7.31683382 41.11696804 7.30317669 42.84939755 7.28588867 44.58178711 C7.26168596 47.06897178 7.25029519 49.55593214 7.24145508 52.04321289 C7.23113251 52.82034637 7.22080994 53.59747986 7.21017456 54.39816284 C7.20977487 56.30478032 7.31444618 58.21083575 7.43676758 60.11352539 C10.22889269 62.90565051 12.88981046 62.46490615 16.63208008 62.52758789 C17.33952362 62.54695404 18.04696716 62.56632019 18.77584839 62.58627319 C21.03769842 62.64610191 23.29959928 62.6924664 25.56176758 62.73852539 C27.09434198 62.77670225 28.62689486 62.81575381 30.15942383 62.85571289 C33.91842705 62.95345512 37.67719826 63.03299347 41.43676758 63.11352539 C41.43676758 70.70352539 41.43676758 78.29352539 41.43676758 86.11352539 C36.3502713 86.15971961 31.2645183 86.19945877 26.17797852 86.22338867 C24.45171629 86.23337638 22.72547067 86.24697122 20.99926758 86.2644043 C-4.29864135 86.51328419 -4.29864135 86.51328419 -11.56323242 80.11352539 C-15.34567126 74.89594899 -16.67744533 70.18967862 -16.72436523 63.84521484 C-16.73397278 62.79344559 -16.74358032 61.74167633 -16.753479 60.65803528 C-16.75772888 59.52572983 -16.76197876 58.39342438 -16.76635742 57.22680664 C-16.7720575 56.05522507 -16.77775757 54.88364349 -16.78363037 53.67655945 C-16.7930763 51.19600323 -16.79961273 48.71543449 -16.8034668 46.23486328 C-16.81315079 42.4578634 -16.84417013 38.68141272 -16.87573242 34.90454102 C-16.88226498 32.49113278 -16.88751446 30.07772066 -16.89135742 27.66430664 C-16.90370422 26.54212234 -16.91605103 25.41993805 -16.92877197 24.26374817 C-16.90969151 17.47657673 -16.85719791 9.87775834 -12.14654541 4.49458313 C-8.24852511 1.09450296 -5.05768467 -0.01385667 0 0 Z " fill="#0082CB" transform="translate(243.563232421875,74.886474609375)"/>
<path d="M0 0 C1.48337608 0.00636726 1.48337608 0.00636726 2.99671936 0.01286316 C6.13481634 0.02956746 9.27225553 0.0672046 12.41015625 0.10546875 C14.54621464 0.12052624 16.68228316 0.13421278 18.81835938 0.14648438 C24.03691159 0.17688371 29.25405334 0.23562147 34.47265625 0.29296875 C34.47265625 7.88296875 34.47265625 15.47296875 34.47265625 23.29296875 C32.10207031 23.35355469 29.73148438 23.41414063 27.2890625 23.4765625 C25.00216334 23.53830773 22.71531588 23.60171367 20.4284668 23.6652832 C18.83476325 23.70869021 17.24101145 23.75036094 15.6472168 23.7902832 C13.36101717 23.84784682 11.07506176 23.91158024 8.7890625 23.9765625 C7.71405235 24.00163124 7.71405235 24.00163124 6.61732483 24.02720642 C3.25738243 23.84315529 3.25738243 23.84315529 0.47265625 25.29296875 C0.35933532 27.8631636 0.3084814 30.40548352 0.3046875 32.9765625 C0.3013591 33.74726578 0.2980307 34.51796906 0.29460144 35.31202698 C0.28952915 36.94539796 0.28719321 38.57877935 0.28735352 40.2121582 C0.28516845 42.71648174 0.2670203 45.22036396 0.24804688 47.72460938 C0.24511278 49.30859224 0.24312809 50.8925772 0.2421875 52.4765625 C0.23500198 53.22868515 0.22781647 53.9808078 0.22041321 54.75572205 C0.0912116 58.98401325 0.0912116 58.98401325 2.47265625 62.29296875 C4.90442022 62.5379837 7.23130509 62.66621796 9.66796875 62.70703125 C10.37541229 62.7263974 11.08285583 62.74576355 11.81173706 62.76571655 C14.0735871 62.82554527 16.33548795 62.87190976 18.59765625 62.91796875 C20.13023065 62.95614561 21.66278353 62.99519717 23.1953125 63.03515625 C26.95431572 63.13289848 30.71308693 63.21243683 34.47265625 63.29296875 C34.47265625 70.88296875 34.47265625 78.47296875 34.47265625 86.29296875 C29.38615997 86.33916296 24.30040697 86.37890213 19.21386719 86.40283203 C17.48760496 86.41281974 15.76135934 86.42641458 14.03515625 86.44384766 C-11.45186976 86.69458807 -11.45186976 86.69458807 -18.52734375 80.29296875 C-23.66882835 72.55594369 -23.68519275 64.53299405 -23.6953125 55.5234375 C-23.7003051 53.97007439 -23.7003051 53.97007439 -23.70539856 52.3853302 C-23.71044942 50.19919273 -23.71280746 48.01304759 -23.71264648 45.8269043 C-23.71482941 42.5023105 -23.73299518 39.17805065 -23.75195312 35.85351562 C-23.75488823 33.72265738 -23.75687224 31.59179756 -23.7578125 29.4609375 C-23.76499802 28.47626999 -23.77218353 27.49160248 -23.77958679 26.47709656 C-23.75215316 18.08685084 -23.29670992 9.841979 -17.52734375 3.29296875 C-11.64220088 0.0499582 -6.6307643 -0.10827965 0 0 Z " fill="#0082CB" transform="translate(1152.52734375,74.70703125)"/>
<path d="M0 0 C1.48337608 0.00636726 1.48337608 0.00636726 2.99671936 0.01286316 C6.13481634 0.02956746 9.27225553 0.0672046 12.41015625 0.10546875 C14.54621464 0.12052624 16.68228316 0.13421278 18.81835938 0.14648438 C24.03691159 0.17688371 29.25405334 0.23562147 34.47265625 0.29296875 C34.47265625 7.88296875 34.47265625 15.47296875 34.47265625 23.29296875 C32.10207031 23.35355469 29.73148438 23.41414063 27.2890625 23.4765625 C25.00216334 23.53830773 22.71531588 23.60171367 20.4284668 23.6652832 C18.83476325 23.70869021 17.24101145 23.75036094 15.6472168 23.7902832 C13.36101717 23.84784682 11.07506176 23.91158024 8.7890625 23.9765625 C7.71405235 24.00163124 7.71405235 24.00163124 6.61732483 24.02720642 C3.25738243 23.84315529 3.25738243 23.84315529 0.47265625 25.29296875 C0.35933532 27.8631636 0.3084814 30.40548352 0.3046875 32.9765625 C0.3013591 33.74726578 0.2980307 34.51796906 0.29460144 35.31202698 C0.28952915 36.94539796 0.28719321 38.57877935 0.28735352 40.2121582 C0.28516845 42.71648174 0.2670203 45.22036396 0.24804688 47.72460938 C0.24511278 49.30859224 0.24312809 50.8925772 0.2421875 52.4765625 C0.23500198 53.22868515 0.22781647 53.9808078 0.22041321 54.75572205 C0.0912116 58.98401325 0.0912116 58.98401325 2.47265625 62.29296875 C4.90442022 62.5379837 7.23130509 62.66621796 9.66796875 62.70703125 C10.37541229 62.7263974 11.08285583 62.74576355 11.81173706 62.76571655 C14.0735871 62.82554527 16.33548795 62.87190976 18.59765625 62.91796875 C20.13023065 62.95614561 21.66278353 62.99519717 23.1953125 63.03515625 C26.95431572 63.13289848 30.71308693 63.21243683 34.47265625 63.29296875 C34.47265625 70.88296875 34.47265625 78.47296875 34.47265625 86.29296875 C29.38615997 86.33916296 24.30040697 86.37890213 19.21386719 86.40283203 C17.48760496 86.41281974 15.76135934 86.42641458 14.03515625 86.44384766 C-11.17463902 86.69186069 -11.17463902 86.69186069 -18.96875 79.0859375 C-24.55739585 72.65689378 -23.68577616 62.94257598 -23.6953125 54.8984375 C-23.6986409 53.9110408 -23.7019693 52.9236441 -23.70539856 51.90632629 C-23.71044309 49.82451846 -23.71280765 47.74270261 -23.71264648 45.66088867 C-23.71482956 42.5010016 -23.73300254 39.34146591 -23.75195312 36.18164062 C-23.75488837 34.14974076 -23.75687229 32.11783926 -23.7578125 30.0859375 C-23.76499802 29.15331589 -23.77218353 28.22069427 -23.77958679 27.2598114 C-23.75067585 18.82505446 -23.41952143 9.82213862 -17.52734375 3.29296875 C-11.63791833 0.0553013 -6.63310613 -0.1083179 0 0 Z " fill="#0082CB" transform="translate(783.52734375,74.70703125)"/>
<path d="M0 0 C0.920728 0.00007553 1.84145599 0.00015106 2.79008484 0.00022888 C4.27614983 0.00797081 4.27614983 0.00797081 5.79223633 0.01586914 C6.80900955 0.01728409 7.82578278 0.01869904 8.87336731 0.02015686 C12.12369721 0.02575832 15.37395846 0.03831107 18.62426758 0.05102539 C20.82674054 0.0560402 23.02921459 0.06060314 25.23168945 0.06469727 C30.63342995 0.0748777 36.03502183 0.09445293 41.43676758 0.11352539 C41.43676758 7.70352539 41.43676758 15.29352539 41.43676758 23.11352539 C38.99399414 23.17411133 36.5512207 23.23469727 34.03442383 23.29711914 C31.67802694 23.35886337 29.32168028 23.42226972 26.96533203 23.48583984 C25.32312454 23.52924836 23.68087019 23.57091897 22.03857422 23.61083984 C19.68288013 23.66839979 17.3274233 23.73213431 14.97192383 23.79711914 C14.23337662 23.81383163 13.49482941 23.83054413 12.73390198 23.84776306 C9.29376131 23.64900552 9.29376131 23.64900552 6.43676758 25.11352539 C6.31108544 27.59936575 6.24814001 30.05594211 6.23364258 32.54321289 C6.22509247 33.66241623 6.22509247 33.66241623 6.21636963 34.80422974 C6.20690607 36.38631771 6.20038028 37.96842551 6.1965332 39.55053711 C6.18683528 41.97162321 6.15582935 44.39185779 6.12426758 46.81274414 C6.11773698 48.34789534 6.11248673 49.88305262 6.10864258 51.41821289 C6.09629578 52.14330048 6.08394897 52.86838806 6.07122803 53.615448 C6.08354316 56.39457604 6.15332567 58.59467266 7.50146484 61.0625 C10.46659437 62.67280435 13.43534433 62.59448941 16.72973633 62.62524414 C17.78877922 62.65217094 17.78877922 62.65217094 18.86921692 62.67964172 C21.12083999 62.73375717 23.372251 62.76764261 25.62426758 62.80102539 C27.15229189 62.83419758 28.68028821 62.86868716 30.20825195 62.90454102 C33.95112115 62.99196273 37.69302405 63.05201346 41.43676758 63.11352539 C41.43676758 70.70352539 41.43676758 78.29352539 41.43676758 86.11352539 C36.18955392 86.15966601 30.94305634 86.19942203 25.69580078 86.22338867 C23.91420087 86.2333895 22.13261713 86.24699455 20.35107422 86.2644043 C17.77673325 86.28891496 15.20261101 86.30006787 12.62817383 86.30883789 C11.45104576 86.32432175 11.45104576 86.32432175 10.25013733 86.34011841 C2.21390246 86.34171551 -5.22919578 85.41643979 -11.56323242 80.11352539 C-15.28978391 75.17836261 -16.68264721 71.68547196 -16.72436523 65.55981445 C-16.73397278 64.42143127 -16.74358032 63.2830481 -16.753479 62.11016846 C-16.75772888 60.8789325 -16.76197876 59.64769653 -16.76635742 58.37915039 C-16.7720575 57.11262634 -16.77775757 55.84610229 -16.78363037 54.54119873 C-16.7930851 51.85791431 -16.79997928 49.17474184 -16.8034668 46.49145508 C-16.80893849 43.06739205 -16.83294136 39.6437293 -16.86143875 36.21979141 C-16.8846458 32.9396084 -16.88652059 29.65940398 -16.89135742 26.37915039 C-16.90370422 25.15601135 -16.91605103 23.93287231 -16.92877197 22.67266846 C-16.91054594 15.68255626 -16.81745538 9.89316976 -12.06323242 4.37133789 C-7.93116698 1.25076763 -5.13355423 -0.01406453 0 0 Z " fill="#0082CB" transform="translate(546.563232421875,74.886474609375)"/>
<path d="M0 0 C7.59 0 15.18 0 23 0 C23 10.56 23 21.12 23 32 C27.62 32 32.24 32 37 32 C37 39.59 37 47.18 37 55 C32.38 55 27.76 55 23 55 C23 75.79 23 96.58 23 118 C15.41 118 7.82 118 0 118 C0 79.06 0 40.12 0 0 Z " fill="#0082CB" transform="translate(625,43)"/>
<path d="M0 0 C7.59 0 15.18 0 23 0 C23 38.94 23 77.88 23 118 C15.41 118 7.82 118 0 118 C0 79.06 0 40.12 0 0 Z " fill="#0082CB" transform="translate(1274,43)"/>
<path d="M0 0 C7.26 0 14.52 0 22 0 C22 28.38 22 56.76 22 86 C14.74 86 7.48 86 0 86 C0 57.62 0 29.24 0 0 Z " fill="#0082CB" transform="translate(1100,75)"/>
<path d="M0 0 C7.26 0 14.52 0 22 0 C22 28.38 22 56.76 22 86 C14.74 86 7.48 86 0 86 C0 57.62 0 29.24 0 0 Z " fill="#0082CB" transform="translate(596,75)"/>
<path d="M0 0 C7.59 0 15.18 0 23 0 C23 7.59 23 15.18 23 23 C15.41 23 7.82 23 0 23 C0 15.41 0 7.82 0 0 Z " fill="#0082CB" transform="translate(1099,42)"/>
<path d="M0 0 C7.26 0 14.52 0 22 0 C22 7.59 22 15.18 22 23 C14.74 23 7.48 23 0 23 C0 15.41 0 7.82 0 0 Z " fill="#0082CB" transform="translate(596,42)"/>
</svg>
