<?xml version="1.0" encoding="UTF-8"?>
<svg version="1.1" xmlns="http://www.w3.org/2000/svg" width="200" height="200">
<path d="M0 0 C23.90711251 16.7204896 39.04121387 39.16439875 44.55786133 67.90649414 C48.2794043 93.94496512 43.47060472 122.33988114 28 144 C24.59908334 148.25237448 20.8428829 152.14562867 17 156 C16.13375 156.87011719 15.2675 157.74023438 14.375 158.63671875 C13.59125 159.41660156 12.8075 160.19648438 12 161 C11.44699219 161.56203125 10.89398438 162.1240625 10.32421875 162.703125 C-8.91590309 180.8871065 -35.64150488 185.681524 -61.109375 185.25 C-86.38716923 184.44136935 -110.32917089 174.07365956 -128 156 C-148.47932468 133.55224931 -156.37994662 106.72618338 -155.1640625 76.734375 C-153.66749805 51.79163414 -142.26784744 27.84809937 -124.0390625 10.69921875 C-108.62724367 -2.1439636 -92.57409525 -9.76192623 -73 -14 C-72.1946582 -14.17885742 -71.38931641 -14.35771484 -70.55957031 -14.54199219 C-46.9287308 -18.77047892 -20.09605117 -12.73771898 0 0 Z M-94.9375 20.375 C-99.01345898 25.56258416 -101.75297514 29.20681636 -102 36 C-100.98297057 39.9756605 -99.32650427 42.57255094 -96 45 C-91.59231863 45.72125695 -89.74062512 45.52001338 -86.0625 42.9375 C-83.79055868 40.10454827 -83.79055868 40.10454827 -83.25 36.5625 C-84.16180276 32.23143687 -85.53820479 30.67588488 -88.9765625 28.0234375 C-92.17482645 26.40578276 -94.66176721 27.0462192 -98 28 C-95.01104948 27.01696739 -92.14380259 26.24617051 -89 26 C-85.69835323 27.68083835 -83.59635464 29.40364536 -81 32 C-80.43117066 35.38303767 -80.45711811 38.61497172 -81 42 C-83.4375 45.0625 -83.4375 45.0625 -86 47 C-86.33 47.33 -86.66 47.66 -87 48 C-89.01964199 48.07244053 -91.04167124 48.08377188 -93.0625 48.0625 C-94.71958984 48.04896484 -94.71958984 48.04896484 -96.41015625 48.03515625 C-97.26480469 48.02355469 -98.11945313 48.01195312 -99 48 C-99.33 49.32 -99.66 50.64 -100 52 C-96.04 52.66 -92.08 53.32 -88 54 C-87.443125 53.195625 -86.88625 52.39125 -86.3125 51.5625 C-84 49 -84 49 -81.5625 48.0625 C-78.52868316 47.98850447 -76.67361869 48.58892347 -74 50 C-72.49065783 53.01868434 -72.82489328 55.67297229 -73 59 C-73.66 59.99 -74.32 60.98 -75 62 C-76.32 62 -77.64 62 -79 62 C-78.484375 61.649375 -77.96875 61.29875 -77.4375 60.9375 C-75.59853617 58.90531273 -75.59853617 58.90531273 -76.3125 55.3125 C-76.6528125 53.6728125 -76.6528125 53.6728125 -77 52 C-79.35367713 51.3121764 -79.35367713 51.3121764 -82 51 C-82.99 51.66 -83.98 52.32 -85 53 C-85.25660094 56.07921132 -85.39431504 58.21136993 -84 61 C-84.99 61 -85.98 61 -87 61 C-87.495 58.525 -87.495 58.525 -88 56 C-92.0527516 55.01751476 -95.83861737 54.91840426 -100 55 C-100.33 55.99 -100.66 56.98 -101 58 C-100.67 58.66 -100.34 59.32 -100 60 C-98.00919273 60.50130204 -98.00919273 60.50130204 -95.6875 60.8125 C-92.44158716 61.49367726 -91.12107797 61.90011068 -88.5 64.0625 C-86.46523628 68.04724562 -85.5666217 71.51650447 -86 76 C-88.30502494 80.30271323 -88.30502494 80.30271323 -91 82 C-95.57158087 83.29108589 -99.44727533 83.20781704 -104 82 C-104.07671463 88.47371743 -104.12887575 94.94731557 -104.16479492 101.42138672 C-104.1797854 103.61902243 -104.20018466 105.81662871 -104.22631836 108.01416016 C-104.81846449 130.87500889 -104.81846449 130.87500889 -95 151 C-84.85243592 160.35633102 -71.87719898 160.43488832 -58.83203125 160.29296875 C-57.30076009 160.28736027 -55.76948347 160.28309611 -54.23820496 160.28010559 C-50.24495074 160.26875514 -46.25203382 160.23937493 -42.25891113 160.20599365 C-37.44798501 160.16962544 -32.6369449 160.15608482 -27.8259201 160.13863373 C-20.55038019 160.10972958 -13.27557755 160.05217546 -6 160 C-6 148.12 -6 136.24 -6 124 C-9.91230469 123.97421875 -13.82460937 123.9484375 -17.85546875 123.921875 C-21.64501133 123.88346157 -25.43441753 123.8382988 -29.22387695 123.79248047 C-31.85727425 123.76425681 -34.49075649 123.7430493 -37.12426758 123.72900391 C-40.91011077 123.7075948 -44.69493121 123.66095135 -48.48046875 123.609375 C-49.65772018 123.60814636 -50.83497162 123.60691772 -52.04789734 123.60565186 C-60.22722362 123.45913077 -60.22722362 123.45913077 -64.2199707 121.08691406 C-67.11426461 117.69363135 -67.13969468 115.65277345 -67.19287109 111.25268555 C-67.20893402 110.0477092 -67.22499695 108.84273285 -67.24154663 107.60124207 C-67.2858948 102.08808539 -67.32750088 96.57506018 -67.35009766 91.06176758 C-67.36343429 88.15064043 -67.39128034 85.24021473 -67.43212891 82.3293457 C-67.48147812 78.81266617 -67.50622113 75.29662259 -67.51332474 71.77961159 C-67.52328846 69.79145832 -67.55752711 67.80347458 -67.59213257 65.81559753 C-67.57165896 57.0915608 -67.57165896 57.0915608 -65.26342773 52.68408203 C-60.06857141 50.0032921 -55.0254901 50.2740659 -49.26171875 50.29296875 C-48.02581497 50.27784744 -46.78991119 50.26272614 -45.51655579 50.24714661 C-42.24321905 50.21149278 -38.97070394 50.19711157 -35.69720459 50.19311523 C-32.3519655 50.18376844 -29.00718269 50.14592739 -25.66210938 50.11132812 C-19.10765435 50.04421766 -12.55534209 50.02332862 -6 50 C-6 38.12 -6 26.24 -6 14 C-19.06148926 13.8834756 -19.06148926 13.8834756 -32.12304688 13.8046875 C-37.45776471 13.7808627 -42.79220548 13.75281134 -48.12670898 13.69824219 C-52.43206996 13.65448094 -56.73713343 13.63079963 -61.04269981 13.62049103 C-62.67760584 13.61315356 -64.31249731 13.59882652 -65.94727516 13.57707977 C-76.399249 13.44368999 -86.42296102 13.49090466 -94.9375 20.375 Z M-116.8125 27.1875 C-118.41501866 29.63344953 -118.4409511 31.13381787 -118 34 C-115.24104365 36.29637779 -115.24104365 36.29637779 -112.4375 35.75 C-109.84999433 35.16191948 -109.84999433 35.16191948 -108 33 C-107.66666667 30.5 -107.66666667 30.5 -108 28 C-109.82203581 25.77033253 -109.82203581 25.77033253 -112.4375 25.6875 C-114.99860335 25.80793124 -114.99860335 25.80793124 -116.8125 27.1875 Z M-104 40 C-104 42.64 -104 45.28 -104 48 C-103.01 47.67 -102.02 47.34 -101 47 C-101.66 44.69 -102.32 42.38 -103 40 C-103.33 40 -103.66 40 -104 40 Z M-130.375 43.4375 C-132.73420728 47.1577884 -133.44529798 50.60951811 -133 55 C-131.1866503 58.2301177 -131.1866503 58.2301177 -128 60 C-123.5882483 60.7878128 -121.77807226 60.52975133 -118.0625 58 C-115.76907838 54.66411401 -115.24184491 52.90015906 -115.51953125 48.9375 C-116.38897022 45.4314697 -118.08036827 43.98783437 -121 42 C-124.90042018 41.38414418 -126.97914496 41.38211406 -130.375 43.4375 Z M-104 59 C-103 61 -103 61 -103 61 Z M-102 65 C-104.10790966 67.63201483 -104.10790966 67.63201483 -105 71 C-104.52519289 74.74660307 -104.52519289 74.74660307 -103 78 C-99.82164728 80.11890181 -97.80520785 80.5434002 -94.0078125 80.4453125 C-91.60933603 80.08185581 -91.60933603 80.08185581 -89 77.375 C-86.83774434 73.72619357 -86.19005604 72.13971358 -87 68 C-89.07541048 65.04653124 -90.47602618 64.15607731 -93.9375 63.125 C-97.38157601 62.98442547 -99.07090749 63.17921276 -102 65 Z M-123.8125 67.1875 C-125.22834427 68.98738097 -125.22834427 68.98738097 -125 71.5 C-124.15724643 74.17864541 -124.15724643 74.17864541 -121.6875 75.9375 C-119.07451671 77.30985442 -119.07451671 77.30985442 -116.6875 76.1875 C-116.130625 75.795625 -115.57375 75.40375 -115 75 C-114.74984127 71.58357241 -114.74984127 71.58357241 -115 68 C-118.24206161 65.83862559 -120.33198311 64.90716135 -123.8125 67.1875 Z " fill="#0282BE" transform="translate(155,15)"/>
<path d="M0 0 C0.66 0.66 1.32 1.32 2 2 C0.00568695 3.99431305 -1.51301598 4.75650799 -4 6 C-6.26757564 7.28350327 -6.26757564 7.28350327 -8 9 C-8 10.32 -8 11.64 -8 13 C-9.3303125 13.37125 -9.3303125 13.37125 -10.6875 13.75 C-14.22215488 15.08383203 -16.33307092 16.33307092 -19 19 C-19.69100553 20.99172182 -20.35902703 22.99161804 -21 25 C-22.31787285 26.02028865 -23.65210653 27.01971384 -25 28 C-26.01622658 29.99180409 -27.01712992 31.99152635 -28 34 C-28.99 34.66 -29.98 35.32 -31 36 C-30.47731534 38.76276177 -29.89130413 41.3260876 -29 44 C-28.34 44 -27.68 44 -27 44 C-27 42.68 -27 41.36 -27 40 C-26.01 40 -25.02 40 -24 40 C-23.67 39.34 -23.34 38.68 -23 38 C-23 38.66 -23 39.32 -23 40 C-22.05125 39.505 -21.1025 39.01 -20.125 38.5 C-17 37 -17 37 -15 37 C-15.33 34.36 -15.66 31.72 -16 29 C-15.01 28.67 -14.02 28.34 -13 28 C-11.79117904 25.99983534 -11.79117904 25.99983534 -11 24 C-3.8 23.52 -3.8 23.52 -0.5 25.5 C1.60935638 29.01559397 1.58772007 31.99357026 1 36 C0.36345658 37.3479743 -0.29605388 38.68596724 -1 40 C-0.70194993 42.19747131 -0.70194993 42.19747131 0 44 C0.99 44 1.98 44 3 44 C3 41.69 3 39.38 3 37 C3.66 37 4.32 37 5 37 C5.33 35.02 5.66 33.04 6 31 C6.66 31 7.32 31 8 31 C7.79375 31.886875 7.5875 32.77375 7.375 33.6875 C6.88680895 37.99985431 7.85573148 40.25348489 10.1875 43.8125 C13.16543471 45.76356067 15.54808463 45.42391943 19 45 C21.58333333 43.58333333 21.58333333 43.58333333 23 41 C23.83345815 37.54295504 23.83345815 37.54295504 23 34 C20.3957486 30.84101524 20.3957486 30.84101524 17 29 C14.09957669 28.89084428 11.87145703 29.35639756 9 30 C10 28 10 28 11.85546875 27.2265625 C16.24330873 26.09469088 18.18755765 25.59377883 22.375 27.6875 C23.24125 28.450625 24.1075 29.21375 25 30 C25.54011719 30.44214844 26.08023438 30.88429688 26.63671875 31.33984375 C28.95244236 34.15985101 28.4616638 37.04618166 28.359375 40.5546875 C27.85565941 43.98214359 26.52794939 45.68873199 24 48 C20.47320901 50.35119399 18.97120515 50.21443452 14.8125 50.125 C13.72582031 50.10695312 12.63914063 50.08890625 11.51953125 50.0703125 C10.68808594 50.04710937 9.85664062 50.02390625 9 50 C8.67 50.99 8.34 51.98 8 53 C9.051875 52.95875 10.10375 52.9175 11.1875 52.875 C14.74010173 52.99147875 16.84866641 53.47208068 20 55 C20.28875 54.38125 20.5775 53.7625 20.875 53.125 C22.29965267 50.4339894 23.36545229 49.22914223 26.25 48.1875 C29.92405178 47.93699647 31.90150339 49.09864981 35 51 C36.52846661 54.05693322 36.23242445 56.62984547 36 60 C34.9375 62.4375 34.9375 62.4375 33 64 C29.3125 64.25 29.3125 64.25 26 64 C27.2375 63.2265625 27.2375 63.2265625 28.5 62.4375 C31.40072402 60.14210148 31.40072402 60.14210148 31.3125 56.25 C31.209375 55.1775 31.10625 54.105 31 53 C27.535 53.495 27.535 53.495 24 54 C24 56.64 24 59.28 24 62 C23.01 62 22.02 62 21 62 C20.01 59.525 20.01 59.525 19 57 C15.37 57 11.74 57 8 57 C8 58.32 8 59.64 8 61 C9.546875 60.8453125 9.546875 60.8453125 11.125 60.6875 C16.06627281 61.08598974 17.68162829 62.37294255 21 66 C22.75689317 70.27765292 23.68629564 73.61563134 22 78 C18.61179652 83.50583066 18.61179652 83.50583066 14.80859375 84.671875 C10.39864375 85.28214815 7.94966782 85.09462273 4 83 C4.0675575 89.47415413 4.15757392 95.94773057 4.26245117 102.42138672 C4.29549297 104.61890777 4.32358787 106.81650947 4.34643555 109.01416016 C4.05673696 129.78465495 4.05673696 129.78465495 12.01171875 148.4765625 C13 150 13 150 13 152 C13.58265625 152.28875 14.1653125 152.5775 14.765625 152.875 C16.13885685 153.56641744 17.5053091 154.27176287 18.859375 155 C19.48328125 155.33 20.1071875 155.66 20.75 156 C21.36359375 156.33 21.9771875 156.66 22.609375 157 C31.14148629 160.56898773 39.78747856 160.34377958 48.875 160.4140625 C50.41057346 160.43279795 51.94613687 160.45237309 53.48168945 160.4727478 C57.49943086 160.52382426 61.51720555 160.56358007 65.53509521 160.60089111 C70.36864374 160.64816737 75.20203026 160.70965913 80.03544617 160.76873779 C87.35689783 160.85665116 94.67832316 160.92662877 102 161 C102 149.12 102 137.24 102 125 C96.14894531 125.08701172 96.14894531 125.08701172 90.1796875 125.17578125 C86.39683057 125.21478818 82.61399615 125.24514087 78.83105469 125.2746582 C76.20432488 125.29978429 73.57766486 125.33389085 70.95117188 125.37719727 C67.1730018 125.43792806 63.39575704 125.46623015 59.6171875 125.48828125 C57.85905228 125.52699089 57.85905228 125.52699089 56.06539917 125.56648254 C46.95979361 125.56960675 46.95979361 125.56960675 43.27392578 122.59448242 C40.01329404 118.87419752 39.86801173 117.1185612 39.82299805 112.25268555 C39.81016281 111.0477092 39.79732758 109.84273285 39.78410339 108.60124207 C39.77671646 107.29294937 39.76932953 105.98465668 39.76171875 104.63671875 C39.75764322 103.97180735 39.7535677 103.30689594 39.74936867 102.62183571 C39.7285092 99.10181616 39.71420759 95.58183557 39.70483398 92.06176758 C39.69377572 88.42999143 39.6593834 84.79882905 39.61966228 81.16726971 C39.59348626 78.37137227 39.5851413 75.57562078 39.58155251 72.77961159 C39.57432705 70.79151812 39.54789122 68.80352446 39.52116394 66.81559753 C39.52408951 65.6011647 39.52701508 64.38673187 39.5300293 63.13549805 C39.52416306 62.06897507 39.51829681 61.00245209 39.51225281 59.90361023 C40.12047514 56.28279885 41.48060291 54.6196674 44 52 C46.57133459 50.71433271 48.397171 50.87990222 51.27587891 50.88647461 C52.92736435 50.88658791 52.92736435 50.88658791 54.61221313 50.88670349 C55.80494843 50.89186478 56.99768372 50.89702606 58.2265625 50.90234375 C59.44451508 50.9037587 60.66246765 50.90517365 61.91732788 50.90663147 C65.8199099 50.91224361 69.72243523 50.92479821 73.625 50.9375 C76.26562417 50.94251343 78.90624924 50.94707661 81.546875 50.95117188 C88.03126945 50.96221699 94.51563068 50.97896698 101 51 C101.33 51.66 101.66 52.32 102 53 C101.33458694 53.00808685 100.66917389 53.01617371 99.9835968 53.02450562 C93.05666014 53.11057654 86.1300088 53.21008168 79.20336914 53.31738281 C76.61845695 53.35566099 74.03349171 53.39051586 71.44848633 53.421875 C67.73239177 53.46755006 64.01666211 53.5255417 60.30078125 53.5859375 C59.14540359 53.59748871 57.99002594 53.60903992 56.79963684 53.62094116 C55.71889389 53.64081085 54.63815094 53.66068054 53.5246582 53.68115234 C52.57645706 53.69447601 51.62825592 53.70779968 50.65132141 53.7215271 C47.79615957 54.02140971 45.60294955 54.81604514 43 56 C43.69318367 88.01030339 43.69318367 88.01030339 45 120 C48.4621857 120.76840854 51.75135037 121.16655066 55.29345703 121.29711914 C56.3244754 121.33708511 57.35549377 121.37705109 58.41775513 121.41822815 C60.07108353 121.47610756 60.07108353 121.47610756 61.7578125 121.53515625 C62.89781708 121.57813339 64.03782166 121.62111053 65.21237183 121.66539001 C68.84978566 121.80153965 72.48737888 121.93201854 76.125 122.0625 C78.58204459 122.15393922 81.03907604 122.245732 83.49609375 122.33789062 C87.98576562 122.50476655 92.47545618 122.67097239 96.96533203 122.83227539 C97.86736359 122.86478897 98.76939514 122.89730255 99.69876099 122.93080139 C101.46519276 122.98391826 103.23276979 123 105 123 C105.01981934 124.17095215 105.03963867 125.3419043 105.06005859 126.54833984 C105.13600081 130.88336074 105.2247352 135.21804095 105.31738281 139.55273438 C105.35571977 141.43059576 105.39056427 143.30853176 105.421875 145.18652344 C105.46742363 147.88243321 105.52543375 150.57782712 105.5859375 153.2734375 C105.60326431 154.53756973 105.60326431 154.53756973 105.62094116 155.82723999 C105.54193181 160.39020957 105.54193181 160.39020957 108 164 C110.89671197 165.35781836 110.89671197 165.35781836 113.0859375 163.9609375 C121.25486869 158.30123432 131.77985742 150.16825299 134 140 C135.31337396 138.9739266 136.64664105 137.97272675 138 137 C138.33 136.01 138.66 135.02 139 134 C139.66 134 140.32 134 141 134 C141.1546875 132.7315625 141.1546875 132.7315625 141.3125 131.4375 C142 128 142 128 143.5 124.84375 C145.35616529 120.62732402 145.55079369 116.62067881 145.6875 112.0625 C145.72166016 111.28326172 145.75582031 110.50402344 145.79101562 109.70117188 C145.8726071 107.80125607 145.93799885 105.90065597 146 104 C146.99 104 147.98 104 149 104 C149.74601398 100.66553233 150.12805176 97.57887523 150.1328125 94.1640625 C150.13474609 92.81441406 150.13474609 92.81441406 150.13671875 91.4375 C150.13285156 90.509375 150.12898437 89.58125 150.125 88.625 C150.12886719 87.70460938 150.13273438 86.78421875 150.13671875 85.8359375 C150.12952765 80.80216473 150.05074875 75.93452895 149 71 C148.34 70.67 147.68 70.34 147 70 C147 67.37491733 147.02016546 64.74974129 147.0625 62.125 C147.06899136 58.65861301 146.68133942 55.4066971 146 52 C146.66 52 147.32 52 148 52 C148.65003625 54.20709983 149.29484745 56.41573892 149.9375 58.625 C150.47697266 60.46964844 150.47697266 60.46964844 151.02734375 62.3515625 C157.70839598 87.41221623 152.68071275 115.77962558 140.3125 138.25 C136.07288195 145.38397268 130.85152286 151.13098379 125 157 C124.13375 157.87011719 123.2675 158.74023438 122.375 159.63671875 C121.59125 160.41660156 120.8075 161.19648438 120 162 C119.44699219 162.56203125 118.89398438 163.1240625 118.32421875 163.703125 C99.08409691 181.8871065 72.35849512 186.681524 46.890625 186.25 C21.61283077 185.44136935 -2.32917089 175.07365956 -20 157 C-40.47932468 134.55224931 -48.37994662 107.72618338 -47.1640625 77.734375 C-45.66154167 52.69236109 -34.20558903 29.07644491 -16.1015625 11.73046875 C-10.97368232 7.50806927 -5.46563341 3.76757254 0 0 Z M-8.8125 28.1875 C-10.41501866 30.63344953 -10.4409511 32.13381787 -10 35 C-7.24104365 37.29637779 -7.24104365 37.29637779 -4.4375 36.75 C-1.84999433 36.16191948 -1.84999433 36.16191948 0 34 C0.33333333 31.5 0.33333333 31.5 0 29 C-1.82203581 26.77033253 -1.82203581 26.77033253 -4.4375 26.6875 C-6.99860335 26.80793124 -6.99860335 26.80793124 -8.8125 28.1875 Z M4 41 C4 43.64 4 46.28 4 49 C4.99 48.67 5.98 48.34 7 48 C6.34 45.69 5.68 43.38 5 41 C4.67 41 4.34 41 4 41 Z M-22.375 44.4375 C-24.73420728 48.1577884 -25.44529798 51.60951811 -25 56 C-23.1866503 59.2301177 -23.1866503 59.2301177 -20 61 C-15.5882483 61.7878128 -13.77807226 61.52975133 -10.0625 59 C-7.76907838 55.66411401 -7.24184491 53.90015906 -7.51953125 49.9375 C-8.38897022 46.4314697 -10.08036827 44.98783437 -13 43 C-16.90042018 42.38414418 -18.97914496 42.38211406 -22.375 44.4375 Z M4 60 C5 62 5 62 5 62 Z M6 66 C3.89209034 68.63201483 3.89209034 68.63201483 3 72 C3.47480711 75.74660307 3.47480711 75.74660307 5 79 C8.17835272 81.11890181 10.19479215 81.5434002 13.9921875 81.4453125 C16.39066397 81.08185581 16.39066397 81.08185581 19 78.375 C21.16225566 74.72619357 21.80994396 73.13971358 21 69 C18.92458952 66.04653124 17.52397382 65.15607731 14.0625 64.125 C10.61842399 63.98442547 8.92909251 64.17921276 6 66 Z M-15.8125 68.1875 C-17.22834427 69.98738097 -17.22834427 69.98738097 -17 72.5 C-16.15724643 75.17864541 -16.15724643 75.17864541 -13.6875 76.9375 C-11.07451671 78.30985442 -11.07451671 78.30985442 -8.6875 77.1875 C-8.130625 76.795625 -7.57375 76.40375 -7 76 C-6.74984127 72.58357241 -6.74984127 72.58357241 -7 69 C-10.24206161 66.83862559 -12.33198311 65.90716135 -15.8125 68.1875 Z " fill="#0282BE" transform="translate(47,14)"/>
<path d="M0 0 C1.65148544 0.0001133 1.65148544 0.0001133 3.33633423 0.00022888 C4.52906952 0.00539017 5.72180481 0.01055145 6.95068359 0.01586914 C8.16863617 0.01728409 9.38658875 0.01869904 10.64144897 0.02015686 C14.54403099 0.025769 18.44655632 0.0383236 22.34912109 0.05102539 C24.98974527 0.05603882 27.63037034 0.060602 30.27099609 0.06469727 C36.75539054 0.07574238 43.23975177 0.09249237 49.72412109 0.11352539 C50.21912109 1.10352539 50.21912109 1.10352539 50.72412109 2.11352539 C50.05870804 2.12161224 49.39329498 2.1296991 48.7077179 2.13803101 C41.78078123 2.22410194 34.85412989 2.32360707 27.92749023 2.4309082 C25.34257805 2.46918638 22.75761281 2.50404126 20.17260742 2.53540039 C16.45651287 2.58107545 12.7407832 2.63906709 9.02490234 2.69946289 C7.86952469 2.7110141 6.71414703 2.72256531 5.52375793 2.73446655 C4.44301498 2.75433624 3.36227203 2.77420593 2.2487793 2.79467773 C1.30057816 2.8080014 0.35237701 2.82132507 -0.6245575 2.83505249 C-3.47971933 3.13493511 -5.67292936 3.92957053 -8.27587891 5.11352539 C-7.58269524 37.12382878 -7.58269524 37.12382878 -6.27587891 69.11352539 C-2.80316977 69.88779927 0.47919726 70.27197456 4.03344727 70.37890625 C5.06769333 70.41241684 6.10193939 70.44592743 7.16752625 70.48045349 C8.27288223 70.51276566 9.37823822 70.54507782 10.51708984 70.57836914 C12.86150134 70.65683344 15.2059021 70.73561906 17.55029297 70.81469727 C21.2437933 70.93474897 24.93732817 71.05179989 28.63110352 71.16308594 C32.19759804 71.27225226 35.76353703 71.39322349 39.32958984 71.51586914 C40.99673286 71.56130104 40.99673286 71.56130104 42.69755554 71.60765076 C43.72234512 71.64431351 44.7471347 71.68097626 45.80297852 71.71875 C47.15935677 71.76085854 47.15935677 71.76085854 48.5431366 71.80381775 C50.72412109 72.11352539 50.72412109 72.11352539 52.72412109 74.11352539 C52.89944399 76.98241121 52.95549723 79.75345184 52.91943359 82.62133789 C52.9166037 83.4619577 52.9137738 84.30257751 52.91085815 85.16867065 C52.89964539 87.85876585 52.87453912 90.54853049 52.84912109 93.23852539 C52.8390927 95.06013517 52.8299666 96.88175016 52.82177734 98.70336914 C52.79970251 103.17354897 52.76516543 107.6434811 52.72412109 112.11352539 C50.26020841 113.34548173 48.64097145 113.24045374 45.88574219 113.24291992 C44.87643646 113.24607208 43.86713074 113.24922424 42.82723999 113.25247192 C41.72844513 113.25044769 40.62965027 113.24842346 39.49755859 113.24633789 C37.79413803 113.24777298 37.79413803 113.24777298 36.05630493 113.24923706 C33.64023788 113.24991928 31.22416902 113.24806211 28.80810547 113.24389648 C25.16287938 113.23861772 21.51778046 113.24380382 17.87255859 113.25024414 C-27.31890461 113.26440405 -27.31890461 113.26440405 -37.27587891 103.36352539 C-37.93587891 102.62102539 -38.59587891 101.87852539 -39.27587891 101.11352539 C-36.46512702 101.54594876 -35.04855734 102.27985825 -32.71337891 103.98852539 C-23.75504214 110.09101336 -12.50498312 109.58166192 -2.10791016 109.62524414 C-0.57662043 109.64212624 0.95465574 109.66028111 2.48591614 109.67964172 C6.47897094 109.72676534 10.47197077 109.75681634 14.46520996 109.78308105 C19.27633436 109.81837048 24.08724771 109.87527396 28.89820099 109.92847443 C36.17347927 110.00654605 43.44848977 110.05748467 50.72412109 110.11352539 C50.72412109 98.23352539 50.72412109 86.35352539 50.72412109 74.11352539 C44.87306641 74.20053711 44.87306641 74.20053711 38.90380859 74.28930664 C35.12095167 74.32831357 31.33811724 74.35866626 27.55517578 74.38818359 C24.92844597 74.41330968 22.30178595 74.44741625 19.67529297 74.49072266 C15.89712289 74.55145345 12.11987813 74.57975554 8.34130859 74.60180664 C6.58317337 74.64051628 6.58317337 74.64051628 4.78952026 74.68000793 C-4.3160853 74.68313214 -4.3160853 74.68313214 -8.00195312 71.70800781 C-11.26258487 67.98772292 -11.40786718 66.23208659 -11.45288086 61.36621094 C-11.47213371 59.55874641 -11.47213371 59.55874641 -11.49177551 57.71476746 C-11.49916245 56.40647476 -11.50654938 55.09818207 -11.51416016 53.75024414 C-11.51823568 53.08533274 -11.52231121 52.42042133 -11.52651024 51.7353611 C-11.54736971 48.21534155 -11.56167132 44.69536096 -11.57104492 41.17529297 C-11.58210318 37.54351682 -11.61649551 33.91235444 -11.65621662 30.2807951 C-11.68239265 27.48489766 -11.69073761 24.68914617 -11.6943264 21.89313698 C-11.70155185 19.90504352 -11.72798769 17.91704985 -11.75471497 15.92912292 C-11.7517894 14.71469009 -11.74886383 13.50025726 -11.74584961 12.24902344 C-11.75464897 10.64923897 -11.75464897 10.64923897 -11.7636261 9.01713562 C-11.15540377 5.39632424 -9.795276 3.73319279 -7.27587891 1.11352539 C-4.70454432 -0.1721419 -2.8787079 -0.00657239 0 0 Z " fill="#1E80AF" transform="translate(98.27587890625,64.886474609375)"/>
<path d="M0 0 C3.00633317 2.1309952 4.84206018 3.72799988 5.71875 7.38671875 C5.88464343 11.66166489 5.55505448 14.24252298 3.3203125 17.94140625 C-0.64211376 21.56419597 -2.77513882 22.17994493 -8.0546875 22.06640625 C-9.68470703 22.03933594 -9.68470703 22.03933594 -11.34765625 22.01171875 C-12.59482422 21.97691406 -12.59482422 21.97691406 -13.8671875 21.94140625 C-14.3621875 23.42640625 -14.3621875 23.42640625 -14.8671875 24.94140625 C-13.289375 24.87953125 -13.289375 24.87953125 -11.6796875 24.81640625 C-8.12708577 24.932885 -6.01852109 25.41348693 -2.8671875 26.94140625 C-2.5784375 26.32265625 -2.2896875 25.70390625 -1.9921875 25.06640625 C-0.56753483 22.37539565 0.49826479 21.17054848 3.3828125 20.12890625 C7.05686428 19.87840272 9.03431589 21.04005606 12.1328125 22.94140625 C13.66127911 25.99833947 13.36523695 28.57125172 13.1328125 31.94140625 C12.0703125 34.37890625 12.0703125 34.37890625 10.1328125 35.94140625 C6.4453125 36.19140625 6.4453125 36.19140625 3.1328125 35.94140625 C3.9578125 35.42578125 4.7828125 34.91015625 5.6328125 34.37890625 C8.53353652 32.08350773 8.53353652 32.08350773 8.4453125 28.19140625 C8.290625 26.58265625 8.290625 26.58265625 8.1328125 24.94140625 C5.8228125 25.27140625 3.5128125 25.60140625 1.1328125 25.94140625 C1.1328125 28.58140625 1.1328125 31.22140625 1.1328125 33.94140625 C0.1428125 33.94140625 -0.8471875 33.94140625 -1.8671875 33.94140625 C-2.5271875 32.29140625 -3.1871875 30.64140625 -3.8671875 28.94140625 C-7.4971875 28.94140625 -11.1271875 28.94140625 -14.8671875 28.94140625 C-14.8671875 30.26140625 -14.8671875 31.58140625 -14.8671875 32.94140625 C-13.3203125 32.78671875 -13.3203125 32.78671875 -11.7421875 32.62890625 C-6.80091469 33.02739599 -5.18555921 34.3143488 -1.8671875 37.94140625 C-0.11029433 42.21905917 0.81910814 45.55703759 -0.8671875 49.94140625 C-2.95469158 53.33360037 -4.2050673 55.35981723 -7.98828125 56.68359375 C-12.22060454 57.38303335 -14.387452 57.17691277 -18.3046875 55.25390625 C-21.33421663 52.51994093 -22.70921806 51.08466727 -23.01171875 46.98046875 C-23.12152778 41.45008681 -23.12152778 41.45008681 -21.8671875 38.94140625 C-21.2071875 38.94140625 -20.5471875 38.94140625 -19.8671875 38.94140625 C-19.19045303 35.53819691 -19.19045303 35.53819691 -18.8671875 31.94140625 C-19.5271875 31.28140625 -20.1871875 30.62140625 -20.8671875 29.94140625 C-22.3521875 30.43640625 -22.3521875 30.43640625 -23.8671875 30.94140625 C-23.8671875 29.62140625 -23.8671875 28.30140625 -23.8671875 26.94140625 C-25.8471875 26.94140625 -27.8271875 26.94140625 -29.8671875 26.94140625 C-30.37122518 25.65130982 -30.87028676 24.35926836 -31.3671875 23.06640625 C-31.645625 22.34710938 -31.9240625 21.6278125 -32.2109375 20.88671875 C-32.8671875 18.94140625 -32.8671875 18.94140625 -32.8671875 16.94140625 C-37.33973247 15.45055793 -41.39464253 15.45055793 -45.8671875 16.94140625 C-46.1971875 18.59140625 -46.5271875 20.24140625 -46.8671875 21.94140625 C-47.5271875 21.94140625 -48.1871875 21.94140625 -48.8671875 21.94140625 C-48.57272992 18.50606781 -47.84982268 16.91842341 -45.7421875 14.12890625 C-42.8671875 11.94140625 -42.8671875 11.94140625 -39.3671875 11.44140625 C-34.75143951 12.10079882 -32.26990176 13.49032253 -29.0546875 16.81640625 C-27.62825101 19.36897681 -27.62716487 21.06113475 -27.8671875 23.94140625 C-25.8871875 23.94140625 -23.9071875 23.94140625 -21.8671875 23.94140625 C-21.8671875 22.62140625 -21.8671875 21.30140625 -21.8671875 19.94140625 C-19.8871875 19.94140625 -17.9071875 19.94140625 -15.8671875 19.94140625 C-16.5271875 18.95140625 -17.1871875 17.96140625 -17.8671875 16.94140625 C-17.8671875 15.62140625 -17.8671875 14.30140625 -17.8671875 12.94140625 C-14.17202621 13.57850302 -14.17202621 13.57850302 -12.5546875 15.50390625 C-10.79404542 17.2692743 -10.79404542 17.2692743 -7.4296875 17.37890625 C-3.89185523 17.20542141 -3.89185523 17.20542141 -1.4296875 15.37890625 C0.78055901 11.93092169 0.83783173 9.96001584 0.1328125 5.94140625 C-2.4714389 2.78242149 -2.4714389 2.78242149 -5.8671875 0.94140625 C-8.76761081 0.83225053 -10.99573047 1.29780381 -13.8671875 1.94140625 C-12.8671875 -0.05859375 -12.8671875 -0.05859375 -10.1171875 -1.24609375 C-5.86901198 -2.30813763 -3.80951537 -2.159788 0 0 Z M-16.8671875 37.94140625 C-18.97509716 40.57342108 -18.97509716 40.57342108 -19.8671875 43.94140625 C-19.39238039 47.68800932 -19.39238039 47.68800932 -17.8671875 50.94140625 C-14.68883478 53.06030806 -12.67239535 53.48480645 -8.875 53.38671875 C-6.47652353 53.02326206 -6.47652353 53.02326206 -3.8671875 50.31640625 C-1.70493184 46.66759982 -1.05724354 45.08111983 -1.8671875 40.94140625 C-3.94259798 37.98793749 -5.34321368 37.09748356 -8.8046875 36.06640625 C-12.24876351 35.92583172 -13.93809499 36.12061901 -16.8671875 37.94140625 Z " fill="#C77B50" transform="translate(69.8671875,42.05859375)"/>
<path d="M0 0 C7.2 -0.48 7.2 -0.48 10.5 1.5 C12.60935638 5.01559397 12.58772007 7.99357026 12 12 C11.36345658 13.3479743 10.70394612 14.68596724 10 16 C10.29805007 18.19747131 10.29805007 18.19747131 11 20 C11.99 20 12.98 20 14 20 C14 17.69 14 15.38 14 13 C14.66 13 15.32 13 16 13 C16.33 11.02 16.66 9.04 17 7 C17.66 7 18.32 7 19 7 C18.67 10.3 18.34 13.6 18 17 C17.01 17 16.02 17 15 17 C15 19.31 15 21.62 15 24 C14.01 24 13.02 24 12 24 C12 25.32 12 26.64 12 28 C10.02 28 8.04 28 6 28 C5.731875 26.906875 5.46375 25.81375 5.1875 24.6875 C3.92891323 20.66943394 3.92891323 20.66943394 1 18 C-2.63782632 16.78739123 -5.17735999 16.60455448 -9 17 C-12.20653576 18.70611088 -12.20653576 18.70611088 -14 22 C-14.43183937 26.689624 -13.86152293 30.60830911 -11.375 34.625 C-8.01569952 36.56985817 -5.81514776 36.54502111 -2 36 C0.35522225 34.2287382 0.35522225 34.2287382 2 32 C4 30 4 30 7.125 29.875 C8.548125 29.936875 8.548125 29.936875 10 30 C10.33 30.99 10.66 31.98 11 33 C10.67 33.66 10.34 34.32 10 35 C11.32 34.34 12.64 33.68 14 33 C14.74926071 36.66305234 15.2380014 39.42355152 14 43 C13.34 43 12.68 43 12 43 C12 41.02 12 39.04 12 37 C9.3162973 38.20185173 9.3162973 38.20185173 7 41 C6.43199813 44.0962508 6.24945639 47.07820641 6.140625 50.22265625 C6 53 6 53 5 56 C1.53655712 57.73172144 -2.22112744 57.60102726 -6 57 C-8.125 54.9375 -8.125 54.9375 -9 52 C-9 47.75947928 -8.70948584 45.77029891 -5.8125 42.625 C-2.79081505 40.87913759 -0.45419117 40.32132011 3 40 C3.33 39.01 3.66 38.02 4 37 C3.071875 37.2475 3.071875 37.2475 2.125 37.5 C-2.29016302 38.20642608 -6.55445071 38.67157723 -11 38 C-13.82424288 35.80977082 -15.41508603 34.16982793 -17 31 C-17.34555498 25.91830907 -17.02401636 20.99207975 -16 16 C-15.01 16 -14.02 16 -13 16 C-12.67 15.34 -12.34 14.68 -12 14 C-12 14.66 -12 15.32 -12 16 C-10.576875 15.2575 -10.576875 15.2575 -9.125 14.5 C-6 13 -6 13 -4 13 C-4.33 10.36 -4.66 7.72 -5 5 C-4.01 4.67 -3.02 4.34 -2 4 C-0.79117904 1.99983534 -0.79117904 1.99983534 0 0 Z M2.1875 4.1875 C0.58498134 6.63344953 0.5590489 8.13381787 1 11 C3.75895635 13.29637779 3.75895635 13.29637779 6.5625 12.75 C9.15000567 12.16191948 9.15000567 12.16191948 11 10 C11.33333333 7.5 11.33333333 7.5 11 5 C9.17796419 2.77033253 9.17796419 2.77033253 6.5625 2.6875 C4.00139665 2.80793124 4.00139665 2.80793124 2.1875 4.1875 Z M-4.8125 44.1875 C-6.22834427 45.98738097 -6.22834427 45.98738097 -6 48.5 C-5.15724643 51.17864541 -5.15724643 51.17864541 -2.6875 52.9375 C-0.07451671 54.30985442 -0.07451671 54.30985442 2.3125 53.1875 C2.869375 52.795625 3.42625 52.40375 4 52 C4.25015873 48.58357241 4.25015873 48.58357241 4 45 C0.75793839 42.83862559 -1.33198311 41.90716135 -4.8125 44.1875 Z " fill="#437184" transform="translate(36,38)"/>
<path d="M0 0 C0.66 0 1.32 0 2 0 C2.65003625 2.20709983 3.29484745 4.41573892 3.9375 6.625 C4.47697266 8.46964844 4.47697266 8.46964844 5.02734375 10.3515625 C11.70839598 35.41221623 6.68071275 63.77962558 -5.6875 86.25 C-9.92711805 93.38397268 -15.14847714 99.13098379 -21 105 C-22.299375 106.30517578 -22.299375 106.30517578 -23.625 107.63671875 C-24.40875 108.41660156 -25.1925 109.19648438 -26 110 C-26.55300781 110.56203125 -27.10601562 111.1240625 -27.67578125 111.703125 C-32.08613115 115.87137932 -36.93612454 118.89662569 -42.1875 121.875 C-42.87690674 122.26848633 -43.56631348 122.66197266 -44.27661133 123.06738281 C-47.83096871 125.02811078 -50.90637807 126.50717561 -55 127 C-55 126.34 -55 125.68 -55 125 C-53.34997172 123.64613064 -51.6825613 122.31321858 -50 121 C-49.505 120.01 -49.505 120.01 -49 119 C-47.88625 119.37125 -47.88625 119.37125 -46.75 119.75 C-43.87883982 120.33230817 -43.87883982 120.33230817 -41.75 118.1875 C-39.97599146 116.12659049 -39.97599146 116.12659049 -39 114 C-37.02191927 113.27470373 -35.04311173 112.55124304 -33.05859375 111.84375 C-30.2257746 110.68267042 -28.24644143 109.06429753 -26 107 C-25.236875 106.29875 -24.47375 105.5975 -23.6875 104.875 C-16.25820101 97.35288761 -16.25820101 97.35288761 -12 88 C-10.68662604 86.9739266 -9.35335895 85.97272675 -8 85 C-7.505 83.515 -7.505 83.515 -7 82 C-6.34 82 -5.68 82 -5 82 C-4.896875 81.154375 -4.79375 80.30875 -4.6875 79.4375 C-4 76 -4 76 -2.5 72.84375 C-0.64383471 68.62732402 -0.44920631 64.62067881 -0.3125 60.0625 C-0.27833984 59.28326172 -0.24417969 58.50402344 -0.20898438 57.70117188 C-0.1273929 55.80125607 -0.06200115 53.90065597 0 52 C0.99 52 1.98 52 3 52 C3.74601398 48.66553233 4.12805176 45.57887523 4.1328125 42.1640625 C4.13410156 41.26429687 4.13539063 40.36453125 4.13671875 39.4375 C4.13091797 38.0453125 4.13091797 38.0453125 4.125 36.625 C4.12886719 35.70460937 4.13273437 34.78421875 4.13671875 33.8359375 C4.12952765 28.80216473 4.05074875 23.93452895 3 19 C2.34 18.67 1.68 18.34 1 18 C1 15.37491733 1.02016546 12.74974129 1.0625 10.125 C1.06899136 6.65861301 0.68133942 3.4066971 0 0 Z " fill="#106C9E" transform="translate(193,66)"/>
<path d="M0 0 C1.1007637 0.00030212 2.2015274 0.00060425 3.33564758 0.00091553 C4.51289902 0.02156067 5.69015045 0.04220581 6.90307617 0.06347656 C8.11678391 0.06913635 9.33049164 0.07479614 10.58097839 0.08062744 C14.45307037 0.10299714 18.32423316 0.15319774 22.19604492 0.20410156 C24.82298467 0.22416565 27.44993894 0.24241658 30.0769043 0.25878906 C36.51276758 0.3028641 42.94808986 0.36978365 49.38354492 0.45410156 C49.87854492 1.44410156 49.87854492 1.44410156 50.38354492 2.45410156 C49.71813187 2.46218842 49.05271881 2.47027527 48.36714172 2.47860718 C41.44020506 2.56467811 34.51355372 2.66418325 27.58691406 2.77148438 C25.00200188 2.80976255 22.41703663 2.84461743 19.83203125 2.87597656 C16.1159367 2.92165163 12.40020703 2.97964326 8.68432617 3.04003906 C7.52894852 3.05159027 6.37357086 3.06314148 5.18318176 3.07504272 C4.10243881 3.09491241 3.02169586 3.1147821 1.90820312 3.13525391 C0.96000198 3.14857758 0.01180084 3.16190125 -0.96513367 3.17562866 C-3.82029551 3.47551128 -6.01350553 4.2701467 -8.61645508 5.45410156 C-7.92327141 37.46440495 -7.92327141 37.46440495 -6.61645508 69.45410156 C-2.50397124 70.41952174 1.43506062 70.64900119 5.65307617 70.77050781 C6.33407883 70.79128891 7.01508148 70.81207001 7.71672058 70.83348083 C9.8764 70.89848034 12.03619338 70.95762869 14.19604492 71.01660156 C15.66675948 71.05983406 17.13746283 71.10344981 18.6081543 71.14746094 C22.19983209 71.25411015 25.79163574 71.35551505 29.38354492 71.45410156 C29.38354492 71.78410156 29.38354492 72.11410156 29.38354492 72.45410156 C24.93615079 72.52859408 20.48909302 72.58286413 16.04125977 72.61889648 C14.53012765 72.633927 13.01903875 72.6543572 11.50805664 72.68041992 C9.32842305 72.71705846 7.14936917 72.73388495 4.96948242 72.74707031 C3.66027832 72.76278076 2.35107422 72.77849121 1.00219727 72.79467773 C-2.9476134 72.42293398 -5.30431392 71.61776128 -8.61645508 69.45410156 C-10.7913816 66.16506757 -10.88393062 63.3513196 -10.92285156 59.46386719 C-10.93883896 58.25581421 -10.95482635 57.04776123 -10.97129822 55.80310059 C-10.97666092 54.50199341 -10.98202362 53.20088623 -10.98754883 51.86035156 C-10.99651915 50.50801495 -11.00564107 49.15567934 -11.01490784 47.80334473 C-11.03137572 44.97222484 -11.03909432 42.14122294 -11.04199219 39.31005859 C-11.04738469 35.68476972 -11.08510716 32.06059055 -11.13073635 28.43561554 C-11.160492 25.64402215 -11.16771533 22.85269706 -11.16871834 20.06095886 C-11.17496169 18.07556311 -11.20443597 16.09028442 -11.23423767 14.10510254 C-11.22815994 12.89704956 -11.22208221 11.68899658 -11.21582031 10.44433594 C-11.22089096 9.38162476 -11.22596161 8.31891357 -11.23118591 7.22399902 C-10.61645508 4.45410156 -10.61645508 4.45410156 -8.43002319 2.10809326 C-5.28151639 0.25720361 -3.61909429 -0.03327903 0 0 Z " fill="#1780B3" transform="translate(98.616455078125,64.5458984375)"/>
<path d="M0 0 C1.20483032 0.02061493 2.40966064 0.04122986 3.65100098 0.06246948 C4.65173393 0.0714048 4.65173393 0.0714048 5.67268372 0.08052063 C7.87262138 0.10534413 10.0707686 0.15928913 12.2701416 0.21432495 C13.80181571 0.23916384 15.33351507 0.26248794 16.86523438 0.28436279 C20.07333195 0.33442062 23.28077251 0.39804282 26.48840332 0.47213745 C30.59731021 0.56664302 34.70611211 0.63485614 38.8156662 0.69384956 C41.9779663 0.74088461 45.14001336 0.79812277 48.30207825 0.85882187 C49.81708162 0.88738929 51.33213005 0.91366362 52.84721375 0.93759537 C54.96574794 0.97333657 57.08360017 1.02189435 59.20178223 1.07418823 C60.40661255 1.09957672 61.61144287 1.12496521 62.8527832 1.15112305 C65.9263916 1.45651245 65.9263916 1.45651245 69.9263916 3.45651245 C69.9263916 15.66651245 69.9263916 27.87651245 69.9263916 40.45651245 C69.2663916 40.45651245 68.6063916 40.45651245 67.9263916 40.45651245 C67.9263916 28.57651245 67.9263916 16.69651245 67.9263916 4.45651245 C43.1763916 4.45651245 18.4263916 4.45651245 -7.0736084 4.45651245 C-3.0736084 0.45651245 -3.0736084 0.45651245 0 0 Z " fill="#237AA2" transform="translate(81.0736083984375,24.543487548828125)"/>
<path d="M0 0 C0 3 0 3 -0.625 5.1875 C-1.13304749 8.99785619 -0.53036411 12.46298499 1 16 C4.7205836 18.48038907 6.59796571 18.46337203 11 18 C13.35522225 16.2287382 13.35522225 16.2287382 15 14 C17 12 17 12 20.125 11.875 C21.07375 11.91625 22.0225 11.9575 23 12 C23.33 12.99 23.66 13.98 24 15 C23.67 15.66 23.34 16.32 23 17 C24.32 16.34 25.64 15.68 27 15 C27.74926071 18.66305234 28.2380014 21.42355152 27 25 C26.34 25 25.68 25 25 25 C25 23.02 25 21.04 25 19 C22.3162973 20.20185173 22.3162973 20.20185173 20 23 C19.43199813 26.0962508 19.24945639 29.07820641 19.140625 32.22265625 C19 35 19 35 18 38 C14.53655712 39.73172144 10.77887256 39.60102726 7 39 C4.875 36.9375 4.875 36.9375 4 34 C4 29.75947928 4.29051416 27.77029891 7.1875 24.625 C10.20918495 22.87913759 12.54580883 22.32132011 16 22 C16.33 21.01 16.66 20.02 17 19 C16.071875 19.2475 16.071875 19.2475 15.125 19.5 C10.70983698 20.20642608 6.44554929 20.67157723 2 20 C-0.82424288 17.80977082 -2.41508603 16.16982793 -4 13 C-4.53151198 8.4865048 -4.86526046 5.10861497 -2 1.4375 C-1.34 0.963125 -0.68 0.48875 0 0 Z M8.1875 26.1875 C6.77165573 27.98738097 6.77165573 27.98738097 7 30.5 C7.84275357 33.17864541 7.84275357 33.17864541 10.3125 34.9375 C12.92548329 36.30985442 12.92548329 36.30985442 15.3125 35.1875 C15.869375 34.795625 16.42625 34.40375 17 34 C17.25015873 30.58357241 17.25015873 30.58357241 17 27 C13.75793839 24.83862559 11.66801689 23.90716135 8.1875 26.1875 Z " fill="#2B758F" transform="translate(23,56)"/>
<path d="M0 0 C-0.10699219 1.16917969 -0.21398438 2.33835937 -0.32421875 3.54296875 C-0.44619091 5.09107688 -0.56723592 6.63925825 -0.6875 8.1875 C-0.76033203 8.95642578 -0.83316406 9.72535156 -0.90820312 10.51757812 C-0.96298828 11.26845703 -1.01777344 12.01933594 -1.07421875 12.79296875 C-1.16062622 13.82200317 -1.16062622 13.82200317 -1.2487793 14.87182617 C-1.15573805 17.13349514 -1.15573805 17.13349514 0.47924805 19.10253906 C2.78149205 23.48896254 2.42120154 27.68445483 2.40625 32.56640625 C2.41708618 33.59628159 2.42792236 34.62615692 2.43908691 35.6872406 C2.47331169 38.97905716 2.48891998 42.27052914 2.5 45.5625 C2.11397864 68.22081121 2.11397864 68.22081121 10 89 C9.67 89.66 9.34 90.32 9 91 C7.84481082 90.09515208 6.70114594 89.1755794 5.5625 88.25 C4.60537109 87.48429687 4.60537109 87.48429687 3.62890625 86.703125 C1.78247869 84.77256765 1.53664154 83.56337512 1 81 C0.34 80.34 -0.32 79.68 -1 79 C-0.68617927 76.99684557 -0.34628853 74.99779763 0 73 C0.12315113 69.13177928 0.04798166 65.26757599 -0.015625 61.3984375 C-0.03212097 60.28441559 -0.04861694 59.17039368 -0.06561279 58.02261353 C-0.10301485 55.67420457 -0.14354844 53.32584366 -0.18701172 50.97753906 C-0.24989658 47.38091509 -0.29124635 43.7844337 -0.33203125 40.1875 C-0.37106915 37.90362277 -0.41138988 35.61976703 -0.453125 33.3359375 C-0.46265198 32.25984222 -0.47217896 31.18374695 -0.48199463 30.07504272 C-0.50501648 29.07365265 -0.52803833 28.07226257 -0.55175781 27.04052734 C-0.56587708 26.1614975 -0.57999634 25.28246765 -0.59454346 24.37680054 C-1.07632942 21.55255426 -2.13499638 20.13485186 -4 18 C-5.98 18.99 -5.98 18.99 -8 20 C-7.96601364 6.49042104 -7.96601364 6.49042104 -5.6328125 2.890625 C-2.07904412 0 -2.07904412 0 0 0 Z " fill="#1F7498" transform="translate(49,74)"/>
<path d="M0 0 C0.33 0 0.66 0 1 0 C1.00808685 0.73027405 1.01617371 1.4605481 1.02450562 2.21295166 C1.10248393 9.09900575 1.18978448 15.98488553 1.28752708 22.87068558 C1.33744825 26.41065816 1.38377843 29.95060151 1.421875 33.49072266 C1.46584242 37.56171388 1.52547664 41.63234509 1.5859375 45.703125 C1.59748871 46.97303284 1.60903992 48.24294067 1.62094116 49.55133057 C1.64081085 50.73225281 1.66068054 51.91317505 1.68115234 53.12988281 C1.69447601 54.16912903 1.70779968 55.20837524 1.7215271 56.27911377 C2.01186064 59.11588718 2.31280587 60.70512917 4 63 C7.48946795 64.87949756 10.477079 65.25615837 14.40112305 65.28710938 C15.45538986 65.30052368 16.50965668 65.31393799 17.59587097 65.32775879 C18.72310074 65.33303589 19.85033051 65.33831299 21.01171875 65.34375 C22.17629105 65.3583728 23.34086334 65.37299561 24.54072571 65.38806152 C29.52028584 65.45033446 34.499968 65.49006121 39.47973633 65.53173828 C43.11553222 65.5653614 46.75105877 65.61048651 50.38671875 65.65625 C51.52002121 65.6615271 52.65332367 65.6668042 53.82096863 65.67224121 C55.38818413 65.69236267 55.38818413 65.69236267 56.98706055 65.71289062 C57.90907761 65.72018188 58.83109467 65.72747314 59.78105164 65.73498535 C62 66 62 66 64 68 C64.10451251 70.65808885 64.08955874 73.20090463 63.9765625 75.8515625 C63.93902359 77.01261002 63.93902359 77.01261002 63.90072632 78.19711304 C63.81844085 80.67351533 63.72188604 83.14913007 63.625 85.625 C63.56676906 87.30205098 63.5094656 88.97913445 63.453125 90.65625 C63.31284966 94.77128769 63.15977348 98.88567508 63 103 C62.67 103 62.34 103 62 103 C62 91.45 62 79.9 62 68 C58.09929687 68.05800781 54.19859375 68.11601562 50.1796875 68.17578125 C46.39683057 68.21478818 42.61399615 68.24514087 38.83105469 68.2746582 C36.20432488 68.29978429 33.57766486 68.33389085 30.95117188 68.37719727 C27.1730018 68.43792806 23.39575704 68.46623015 19.6171875 68.48828125 C17.85905228 68.52699089 17.85905228 68.52699089 16.06539917 68.56648254 C6.95979361 68.56960675 6.95979361 68.56960675 3.27392578 65.59448242 C-0.02022634 61.83595176 -0.12364513 60.09153318 -0.11352539 55.17333984 C-0.11341209 53.34166763 -0.11341209 53.34166763 -0.11329651 51.47299194 C-0.10818952 50.13564005 -0.10297352 48.79828857 -0.09765625 47.4609375 C-0.0957914 46.09616141 -0.09436781 44.73138466 -0.09336853 43.36660767 C-0.08954863 39.77284907 -0.07972283 36.17913083 -0.06866455 32.58538818 C-0.05843911 28.91891018 -0.05386848 25.25242565 -0.04882812 21.5859375 C-0.0381001 14.39060659 -0.02102999 7.19530895 0 0 Z " fill="#317798" transform="translate(87,71)"/>
<path d="M0 0 C0.66 0.66 1.32 1.32 2 2 C0.00568695 3.99431305 -1.51301598 4.75650799 -4 6 C-6.26757564 7.28350327 -6.26757564 7.28350327 -8 9 C-8 10.32 -8 11.64 -8 13 C-9.3303125 13.37125 -9.3303125 13.37125 -10.6875 13.75 C-14.22215488 15.08383203 -16.33307092 16.33307092 -19 19 C-19.69100553 20.99172182 -20.35902703 22.99161804 -21 25 C-22.31787285 26.02028865 -23.65210653 27.01971384 -25 28 C-26.01622658 29.99180409 -27.01712992 31.99152635 -28 34 C-28.99 34.66 -29.98 35.32 -31 36 C-31.33 36.99 -31.66 37.98 -32 39 C-32.66 39 -33.32 39 -34 39 C-34.2475 39.825 -34.495 40.65 -34.75 41.5 C-36 45 -36 45 -37.9375 48.4375 C-41.08009745 54.45198427 -41.8613246 61.3749795 -43 68 C-43.66 67.34 -44.32 66.68 -45 66 C-44.37876245 45.93768134 -30.20202645 25.24051919 -16.1015625 11.73046875 C-10.97368232 7.50806927 -5.46563341 3.76757254 0 0 Z " fill="#0D7CAD" transform="translate(47,14)"/>
<path d="M0 0 C3.11200817 0.36186141 5.46521941 0.65170194 8.1171875 2.37890625 C12.05092025 4.59096464 16.07908112 5.53791169 20.4375 6.625 C21.27087891 6.8415625 22.10425781 7.058125 22.96289062 7.28125 C41.02860965 11.90835906 64.08662773 13.1038766 81.69140625 5.8984375 C84 5 84 5 87 5 C87 5.66 87 6.32 87 7 C60.95900696 16.66566588 32.6867844 15.08902616 7 5 C4.51479008 3.79245286 2.31004348 2.52124814 0 1 C0 0.67 0 0.34 0 0 Z " fill="#076392" transform="translate(50,187)"/>
<path d="M0 0 C0.66 0.33 1.32 0.66 2 1 C4.55157655 1.0716735 7.07472971 1.09308442 9.625 1.0625 C10.33140625 1.05798828 11.0378125 1.05347656 11.765625 1.04882812 C13.51045275 1.03703875 15.255237 1.01910324 17 1 C16.67 2.32 16.34 3.64 16 5 C14.906875 5.28875 13.81375 5.5775 12.6875 5.875 C8.95986155 6.81893204 8.95986155 6.81893204 6 9 C4.83811064 13.82630965 4.72860749 15.45721498 7 20 C10.63 20 14.26 20 18 20 C17.67 20.66 17.34 21.32 17 22 C14.70858714 22.05384521 12.41681812 22.09272087 10.125 22.125 C8.84882813 22.14820312 7.57265625 22.17140625 6.2578125 22.1953125 C3 22 3 22 1 20 C1.66 19.01 2.32 18.02 3 17 C3.16713569 14.37468476 3.16713569 14.37468476 3 12 C1.68 12 0.36 12 -1 12 C-0.67 8.04 -0.34 4.08 0 0 Z " fill="#0582BC" transform="translate(23,74)"/>
<path d="M0 0 C19.39279415 -0.72319657 37.12433842 1.04076382 55 9 C55 9.33 55 9.66 55 10 C50.13568691 9.40360912 45.62747576 8.41270588 40.9375 7 C34.32168108 5.01159918 28.19886075 3.90546801 21.2890625 3.68359375 C20.04511719 3.64169922 18.80117187 3.59980469 17.51953125 3.55664062 C16.23433594 3.51732422 14.94914062 3.47800781 13.625 3.4375 C12.31660156 3.39431641 11.00820312 3.35113281 9.66015625 3.30664062 C6.44020203 3.20087571 3.22017469 3.09878421 0 3 C0 2.01 0 1.02 0 0 Z " fill="#0874AA" transform="translate(89,0)"/>
<path d="M0 0 C-2.34109882 1.56073255 -4.56333403 2.86373867 -7.0625 4.125 C-8.10083984 4.65480469 -8.10083984 4.65480469 -9.16015625 5.1953125 C-11 6 -11 6 -13 6 C-13.27714844 6.56589844 -13.55429687 7.13179687 -13.83984375 7.71484375 C-15.41982797 10.82693388 -17.15472444 13.84496021 -18.87890625 16.87890625 C-20.11983704 19.0866261 -20.11983704 19.0866261 -21 22 C-21.66 22 -22.32 22 -23 22 C-23 24.31 -23 26.62 -23 29 C-23.99 29 -24.98 29 -26 29 C-26.66 27.02 -27.32 25.04 -28 23 C-27.34 22.34 -26.68 21.68 -26 21 C-25.75712511 18.55987051 -25.75712511 18.55987051 -25.875 15.875 C-25.89304687 14.96492188 -25.91109375 14.05484375 -25.9296875 13.1171875 C-25.95289063 12.41851562 -25.97609375 11.71984375 -26 11 C-30.455 10.01 -30.455 10.01 -35 9 C-35 8.67 -35 8.34 -35 8 C-30.83783725 7.67355586 -28.63686538 7.59349018 -25.0625 9.875 C-23 12 -23 12 -23 14 C-19.23145777 12.74381926 -18.92041544 11.33985294 -17 8 C-16.34 7.67 -15.68 7.34 -15 7 C-14.773125 6.38125 -14.54625 5.7625 -14.3125 5.125 C-11.26167761 0.18557327 -5.36805731 -0.39278468 0 0 Z " fill="#167CA7" transform="translate(73,29)"/>
<path d="M0 0 C1.10091476 0.00015106 2.20182953 0.00030212 3.33610535 0.00045776 C5.11746635 0.01594162 5.11746635 0.01594162 6.93481445 0.03173828 C8.15135208 0.03456818 9.36788971 0.03739807 10.62129211 0.04031372 C14.51365929 0.05152475 18.40579786 0.0766313 22.2980957 0.10205078 C24.93416009 0.11207937 27.57022808 0.12120543 30.20629883 0.12939453 C36.67447602 0.15146712 43.14251953 0.1849539 49.6105957 0.22705078 C50.1055957 1.21705078 50.1055957 1.21705078 50.6105957 2.22705078 C49.94518265 2.23513763 49.27976959 2.24322449 48.5941925 2.2515564 C41.66725584 2.33762733 34.7406045 2.43713247 27.81396484 2.54443359 C25.22905266 2.58271177 22.64408741 2.61756665 20.05908203 2.64892578 C16.34298748 2.69460084 12.62725781 2.75259248 8.91137695 2.81298828 C7.7559993 2.82453949 6.60062164 2.8360907 5.41023254 2.84799194 C4.32948959 2.86786163 3.24874664 2.88773132 2.13525391 2.90820312 C1.18705276 2.92152679 0.23885162 2.93485046 -0.73808289 2.94857788 C-4.33588706 3.32646151 -7.18282311 4.62376019 -10.3894043 6.22705078 C-8.12653322 1.0050406 -5.52596506 -0.02529046 0 0 Z " fill="#1B7097" transform="translate(98.389404296875,64.77294921875)"/>
<path d="M0 0 C4.61574799 0.65939257 7.09728574 2.04891628 10.3125 5.375 C11.73893649 7.92757056 11.74002263 9.6197285 11.5 12.5 C13.48 12.5 15.46 12.5 17.5 12.5 C17.5 11.18 17.5 9.86 17.5 8.5 C18.49 8.83 19.48 9.16 20.5 9.5 C19.84 9.5 19.18 9.5 18.5 9.5 C18.5 12.47 18.5 15.44 18.5 18.5 C17.51 18.83 16.52 19.16 15.5 19.5 C15.5 18.18 15.5 16.86 15.5 15.5 C13.52 15.5 11.54 15.5 9.5 15.5 C8.99596232 14.20990357 8.49690074 12.91786211 8 11.625 C7.7215625 10.90570313 7.443125 10.18640625 7.15625 9.4453125 C6.5 7.5 6.5 7.5 6.5 5.5 C2.02745503 4.00915168 -2.02745503 4.00915168 -6.5 5.5 C-6.83 7.15 -7.16 8.8 -7.5 10.5 C-8.16 10.5 -8.82 10.5 -9.5 10.5 C-9.20554242 7.06466156 -8.48263518 5.47701716 -6.375 2.6875 C-3.5 0.5 -3.5 0.5 0 0 Z " fill="#AF7752" transform="translate(30.5,53.5)"/>
<path d="M0 0 C2.81075189 0.43242337 4.22732157 1.16633286 6.5625 2.875 C15.45732983 8.93749515 26.62132925 8.46776409 36.94921875 8.51171875 C38.45808843 8.52860164 39.96694436 8.54675661 41.4757843 8.56611633 C45.40965473 8.61323143 49.34346938 8.64328784 53.27752686 8.66955566 C57.30687471 8.69955765 61.336031 8.74601944 65.36523438 8.79101562 C73.24339458 8.87660961 81.12157301 8.94414775 89 9 C89 9.33 89 9.66 89 10 C80.2722726 10.17755132 71.54442223 10.3434627 62.81620026 10.49477577 C58.7627503 10.56540695 54.70945319 10.63995074 50.65625 10.72363281 C46.74009347 10.80433818 42.82387335 10.87450898 38.90739441 10.93757248 C37.41791402 10.96337041 35.92849281 10.99287705 34.43916321 11.02626419 C23.3731201 11.27089508 12.28783391 11.19377652 3.38671875 3.62890625 C2.2134511 2.46224856 1.09924557 1.23665126 0 0 Z " fill="#297698" transform="translate(59,166)"/>
<path d="M0 0 C2.84094967 0.40584995 3.87153481 0.86297046 5.875 3 C8.52218926 5.49147225 10.4426338 5.67660307 14 6 C13.67 6.66 13.34 7.32 13 8 C10.93359375 8.4140625 10.93359375 8.4140625 8.4375 8.625 C7.61121094 8.69976562 6.78492188 8.77453125 5.93359375 8.8515625 C4.97646484 8.92503906 4.97646484 8.92503906 4 9 C3.34 10.98 2.68 12.96 2 15 C1.01 15 0.02 15 -1 15 C-1.33 15.66 -1.66 16.32 -2 17 C-2.66 16.67 -3.32 16.34 -4 16 C-3.67 13.36 -3.34 10.72 -3 8 C-1.35 7.67 0.3 7.34 2 7 C1.34 6.01 0.68 5.02 0 4 C0 2.68 0 1.36 0 0 Z " fill="#BF7748" transform="translate(52,55)"/>
<path d="M0 0 C0.66 0 1.32 0 2 0 C2 0.66 2 1.32 2 2 C2.66 2.33 3.32 2.66 4 3 C3.67 3.99 3.34 4.98 3 6 C3.99 6.33 4.98 6.66 6 7 C5.773125 7.639375 5.54625 8.27875 5.3125 8.9375 C4.91769986 12.80654141 5.96075585 15.41546963 7.30859375 19.01171875 C8 21 8 21 8 23 C8.66 23 9.32 23 10 23 C11.5078125 25.08203125 11.5078125 25.08203125 13.125 27.8125 C13.66382813 28.70582031 14.20265625 29.59914062 14.7578125 30.51953125 C16 33 16 33 16 36 C16.639375 36.226875 17.27875 36.45375 17.9375 36.6875 C20 38 20 38 20.75 40.625 C20.87375 41.800625 20.87375 41.800625 21 43 C10.39028142 33.32643306 3.40404929 18.79641155 0 5 C-0.1015625 2.15234375 -0.1015625 2.15234375 0 0 Z " fill="#1C74A4" transform="translate(3,123)"/>
<path d="M0 0 C-1 2 -1 2 -3.0390625 2.81640625 C-8.03912373 4.2590221 -12.84333761 5.26333394 -18 6 C-24.22306853 7.5973061 -24.22306853 7.5973061 -30.11328125 10.09765625 C-32 11 -32 11 -35 11 C-35 11.66 -35 12.32 -35 13 C-35.99 13.33 -36.98 13.66 -38 14 C-38 13.01 -38 12.02 -38 11 C-26.12893998 5.38018967 -13.42223214 -0.5162397 0 0 Z " fill="#146C94" transform="translate(88,1)"/>
<path d="M0 0 C0 3 0 3 -0.625 5.1875 C-1.13304749 8.99785619 -0.53036411 12.46298499 1 16 C4.7205836 18.48038907 6.59796571 18.46337203 11 18 C13.35522225 16.2287382 13.35522225 16.2287382 15 14 C15.66 13.34 16.32 12.68 17 12 C17.66 12.33 18.32 12.66 19 13 C19 13.99 19 14.98 19 16 C18.34 16 17.68 16 17 16 C16.67 16.99 16.34 17.98 16 19 C11.64197342 20.65003234 6.56311968 20.67929937 2 20 C-0.82424288 17.80977082 -2.41508603 16.16982793 -4 13 C-4.53151198 8.4865048 -4.86526046 5.10861497 -2 1.4375 C-1.34 0.963125 -0.68 0.48875 0 0 Z " fill="#386B84" transform="translate(23,56)"/>
<path d="M0 0 C3.11956961 0.36274065 5.47391638 0.65953638 8.13671875 2.3828125 C11.97489782 4.55062442 15.86852491 5.49764959 20.125 6.5625 C20.96651611 6.77865967 21.80803223 6.99481934 22.67504883 7.2175293 C28.73806407 8.74974761 34.8130229 10.06847761 41 11 C41 11.33 41 11.66 41 12 C27.88083278 12.98189193 14.6052963 9.04916588 3 3 C1.171875 1.34765625 1.171875 1.34765625 0 0 Z " fill="#11698F" transform="translate(50,187)"/>
<path d="M0 0 C2 2 2 2 2.21118164 4.74633789 C2.19434326 5.89352295 2.17750488 7.04070801 2.16015625 8.22265625 C2.14919922 9.48400391 2.13824219 10.74535156 2.12695312 12.04492188 C2.10620926 13.38412626 2.08471966 14.72331929 2.0625 16.0625 C1.95434844 24.13381123 1.86913886 31.99630836 3 40 C2.01 40.495 2.01 40.495 1 41 C-0.76523542 33.71302819 -1.28127658 26.85738429 -1.1875 19.375 C-1.18685547 18.39015625 -1.18621094 17.4053125 -1.18554688 16.390625 C-1.15224537 10.84037371 -0.81506597 5.49028439 0 0 Z " fill="#106C96" transform="translate(1,81)"/>
<path d="M0 0 C2.71274625 2.71274625 2.8841863 4.8599318 3.2109375 8.60546875 C2.89196419 12.22640647 1.47302416 14.14003184 -1.0390625 16.6875 C-4.42570494 18.95425669 -7.99307749 19.25644304 -12 19 C-14.7839183 17.60804085 -14.97898997 15.84424221 -16 13 C-15.505 13.165 -15.01 13.33 -14.5 13.5 C-10.9377917 14.21244166 -7.60495297 14.62791189 -4 14 C-1.28264098 12.18775608 -1.28264098 12.18775608 0 9 C0.30432069 5.96693712 0.23809474 3.03570795 0 0 Z " fill="#B47E60" transform="translate(67,80)"/>
<path d="M0 0 C0.66 0 1.32 0 2 0 C1.67 3.3 1.34 6.6 1 10 C0.01 10 -0.98 10 -2 10 C-2 12.31 -2 14.62 -2 17 C-2.99 17 -3.98 17 -5 17 C-5 18.32 -5 19.64 -5 21 C-6.98 21 -8.96 21 -11 21 C-11.33 18.69 -11.66 16.38 -12 14 C-11.01 14.495 -11.01 14.495 -10 15 C-10 16.65 -10 18.3 -10 20 C-9.01 20 -8.02 20 -7 20 C-7.66 16.04 -8.32 12.08 -9 8 C-8.01 8.66 -7.02 9.32 -6 10 C-6 10.99 -6 11.98 -6 13 C-5.01 13 -4.02 13 -3 13 C-3 10.69 -3 8.38 -3 6 C-2.34 6 -1.68 6 -1 6 C-0.67 4.02 -0.34 2.04 0 0 Z " fill="#547C8C" transform="translate(53,45)"/>
<path d="M0 0 C2.01822917 0.06510417 4.03645833 0.13020833 6.0546875 0.1953125 C6.7146875 1.5153125 7.3746875 2.8353125 8.0546875 4.1953125 C7.1059375 4.1540625 6.1571875 4.1128125 5.1796875 4.0703125 C1.95223894 3.84557432 1.95223894 3.84557432 0.0546875 6.1953125 C-0.44546203 8.65272787 -0.44546203 8.65272787 0.0546875 11.1953125 C1.9551342 13.03846921 1.9551342 13.03846921 4.0546875 14.1953125 C2.0746875 14.1953125 0.0946875 14.1953125 -1.9453125 14.1953125 C-1.9453125 13.5353125 -1.9453125 12.8753125 -1.9453125 12.1953125 C-2.6053125 12.1953125 -3.2653125 12.1953125 -3.9453125 12.1953125 C-3.99926728 10.57067408 -4.03808445 8.94552709 -4.0703125 7.3203125 C-4.09351563 6.41539063 -4.11671875 5.51046875 -4.140625 4.578125 C-3.89173602 1.54167938 -3.13506836 0.3147659 0 0 Z " fill="#887967" transform="translate(37.9453125,37.8046875)"/>
<path d="M0 0 C2.20177164 3.30265746 3.56753877 6.70165884 5 10.375 C5.26039062 11.035 5.52078125 11.695 5.7890625 12.375 C6.52825985 14.24912662 7.26420924 16.12453333 8 18 C8.66515742 19.66726957 9.33111614 21.33422192 10 23 C4.13861386 19.67326733 4.13861386 19.67326733 2 17 C1.63837971 15.67405895 1.30271961 14.34061543 1 13 C0.34 12.34 -0.32 11.68 -1 11 C-0.73202649 8.99019869 -0.39013716 6.9896995 0 5 C0.03622333 3.33372702 0.04899842 1.66594626 0 0 Z " fill="#0676B4" transform="translate(49,142)"/>
<path d="M0 0 C-1.34099751 3.18859407 -2.50318178 4.64442747 -5.51953125 6.32421875 C-6.55883789 6.90719727 -6.55883789 6.90719727 -7.61914062 7.50195312 C-8.34294922 7.89318359 -9.06675781 8.28441406 -9.8125 8.6875 C-10.52470703 9.09033203 -11.23691406 9.49316406 -11.97070312 9.90820312 C-15.61714623 11.92201121 -18.79687547 13.51280089 -23 14 C-23 13.34 -23 12.68 -23 12 C-21.34997172 10.64613064 -19.6825613 9.31321858 -18 8 C-17.67 7.34 -17.34 6.68 -17 6 C-16.2575 6.2475 -15.515 6.495 -14.75 6.75 C-11.87883982 7.33230817 -11.87883982 7.33230817 -9.75 5.1875 C-7.97599146 3.12659049 -7.97599146 3.12659049 -7 1 C-2.44155844 -1.22077922 -2.44155844 -1.22077922 0 0 Z " fill="#0E72A4" transform="translate(161,179)"/>
<path d="M0 0 C7.59 0.33 15.18 0.66 23 1 C23 1.33 23 1.66 23 2 C21.90300781 1.95359375 20.80601563 1.9071875 19.67578125 1.859375 C18.2213815 1.8218421 16.76695217 1.78544357 15.3125 1.75 C14.59126953 1.71648438 13.87003906 1.68296875 13.12695312 1.6484375 C8.02520602 1.5552549 5.87073147 2.4495089 2 6 C-1.0625 6.125 -1.0625 6.125 -4 6 C-6.15028304 6.94978897 -6.15028304 6.94978897 -8 8 C-8.99 8 -9.98 8 -11 8 C-10.5 6.0625 -10.5 6.0625 -9 4 C-6.30341548 3.31209578 -3.7982981 3.18053536 -1 3 C-0.67 2.01 -0.34 1.02 0 0 Z " fill="#0E7EB8" transform="translate(71,24)"/>
<path d="M0 0 C0.66 0 1.32 0 2 0 C2.125 6.625 2.125 6.625 1 10 C-1.3796612 11.1898306 -2.91485735 11.13349966 -5.5625 11.125 C-6.77099609 11.12886719 -6.77099609 11.12886719 -8.00390625 11.1328125 C-10 11 -10 11 -11 10 C-11.04092937 7.66702567 -11.04241723 5.33294775 -11 3 C-9.27473958 4.07421875 -7.54947917 5.1484375 -5.82421875 6.22265625 C-3.82866925 7.31112074 -3.82866925 7.31112074 -1 6 C-0.67 4.02 -0.34 2.04 0 0 Z " fill="#5D716F" transform="translate(40,84)"/>
<path d="M0 0 C0.33 0.99 0.66 1.98 1 3 C1.66 3.33 2.32 3.66 3 4 C2.484375 4.825 1.96875 5.65 1.4375 6.5 C-0.70981122 11.72823601 0.21511525 15.64534576 2 21 C-0.28783297 20.08486681 -1.73449728 19.34515354 -3.25 17.375 C-4.49774563 13.4238055 -4.88719307 8.77438614 -3 5 C-2.34 5 -1.68 5 -1 5 C-0.67 3.35 -0.34 1.7 0 0 Z " fill="#B27756" transform="translate(51,76)"/>
<path d="M0 0 C0.33 1.32 0.66 2.64 1 4 C0.34 4 -0.32 4 -1 4 C-1.10570312 4.87785156 -1.21140625 5.75570312 -1.3203125 6.66015625 C-2.02450503 10.12041263 -3.13481571 12.38568427 -4.875 15.4375 C-8.53352775 22.4291576 -9.79463727 29.26030249 -11 37 C-11.66 36.34 -12.32 35.68 -13 35 C-12.6151234 22.57074965 -6.11511377 10.4860542 0 0 Z " fill="#1C7197" transform="translate(15,45)"/>
<path d="M0 0 C0.66 0 1.32 0 2 0 C2 2.64 2 5.28 2 8 C2.66 8 3.32 8 4 8 C4 9.32 4 10.64 4 12 C3.43152344 12.02578125 2.86304688 12.0515625 2.27734375 12.078125 C-3.52502403 12.50434233 -7.1456851 13.79821783 -12 17 C-12 15.35 -12 13.7 -12 12 C-11.01 12 -10.02 12 -9 12 C-8.67 11.34 -8.34 10.68 -8 10 C-8 10.66 -8 11.32 -8 12 C-6.576875 11.2575 -6.576875 11.2575 -5.125 10.5 C-2 9 -2 9 0 9 C-0.185625 7.700625 -0.37125 6.40125 -0.5625 5.0625 C-0.87890625 2.84765625 -0.87890625 2.84765625 -1 1 C-0.67 0.67 -0.34 0.34 0 0 Z " fill="#21799D" transform="translate(32,42)"/>
<path d="M0 0 C3.4777493 1.56011183 6.27224027 3.63172326 9.25 6 C10.14203125 6.70125 11.0340625 7.4025 11.953125 8.125 C12.62859375 8.74375 13.3040625 9.3625 14 10 C14 10.66 14 11.32 14 12 C14.66 12 15.32 12 16 12 C16 12.66 16 13.32 16 14 C16.66 14 17.32 14 18 14 C18 14.66 18 15.32 18 16 C19.65 16.33 21.3 16.66 23 17 C23.33 17.99 23.66 18.98 24 20 C18.45008916 18.01371612 14.51651114 14.69673344 10 11 C9.3296875 10.46632812 8.659375 9.93265625 7.96875 9.3828125 C4.51995882 6.56240276 2.02910243 4.05820486 0 0 Z " fill="#156E91" transform="translate(24,166)"/>
<path d="M0 0 C6.93080406 0.16466273 13.31214968 1.44807701 19.9375 3.375 C20.670896 3.58406982 21.40429199 3.79313965 22.15991211 4.00854492 C25.96097589 5.1572349 29.01961539 6.33866439 32 9 C27.18729387 8.40530892 22.70761036 7.44715044 18.0625 6.0625 C14.15952713 4.91236863 10.27660803 3.7926176 6.3125 2.875 C3 2 3 2 0 0 Z " fill="#166F91" transform="translate(112,1)"/>
<path d="M0 0 C0.33 0 0.66 0 1 0 C1 11.55 1 23.1 1 35 C-6.59 35 -14.18 35 -22 35 C-22 34.67 -22 34.34 -22 34 C-21.39937744 33.97494385 -20.79875488 33.9498877 -20.17993164 33.92407227 C-17.47388563 33.8084472 -14.76821717 33.68557064 -12.0625 33.5625 C-11.11697266 33.52318359 -10.17144531 33.48386719 -9.19726562 33.44335938 C-8.29814453 33.40146484 -7.39902344 33.35957031 -6.47265625 33.31640625 C-5.22367554 33.26141968 -5.22367554 33.26141968 -3.94946289 33.20532227 C-1.99661142 33.20632897 -1.99661142 33.20632897 -1 32 C-0.84028023 29.62661361 -0.7407567 27.27881728 -0.68359375 24.90234375 C-0.66281265 24.19348526 -0.64203156 23.48462677 -0.62062073 22.75428772 C-0.55505402 20.48212695 -0.4962077 18.20984736 -0.4375 15.9375 C-0.39432151 14.40037817 -0.35070745 12.8632685 -0.30664062 11.32617188 C-0.19936551 7.5509041 -0.09811863 3.7755164 0 0 Z " fill="#3791B8" transform="translate(150,142)"/>
<path d="M0 0 C3.68350462 0.52621495 5.60946187 1.1875695 8.5 3.5 C9.8125 5.6875 9.8125 5.6875 10.5 7.5 C9.6028125 6.7575 9.6028125 6.7575 8.6875 6 C6.52970006 4.21723582 6.52970006 4.21723582 3.5 4.5 C2.345 4.479375 1.19 4.45875 0 4.4375 C-3.47347545 4.32491443 -3.47347545 4.32491443 -6.5 5.5 C-6.83 7.15 -7.16 8.8 -7.5 10.5 C-8.16 10.5 -8.82 10.5 -9.5 10.5 C-9.20554242 7.06466156 -8.48263518 5.47701716 -6.375 2.6875 C-3.5 0.5 -3.5 0.5 0 0 Z " fill="#96806A" transform="translate(30.5,53.5)"/>
<path d="M0 0 C6.42787214 5.06023977 15.76141341 12.4897115 17 21 C13.21360875 19.73786958 12.95895404 18.34654649 11 15 C10.01 14.34 9.02 13.68 8 13 C8 12.34 8 11.68 8 11 C7.34 11 6.68 11 6 11 C3.90503568 7.36872851 1.84852232 3.76365807 0 0 Z " fill="#186D9C" transform="translate(168,26)"/>
<path d="M0 0 C-2.34109882 1.56073255 -4.56333403 2.86373867 -7.0625 4.125 C-8.10083984 4.65480469 -8.10083984 4.65480469 -9.16015625 5.1953125 C-11 6 -11 6 -13 6 C-13.2784375 6.56589844 -13.556875 7.13179687 -13.84375 7.71484375 C-15.01388418 10.02744001 -16.24233588 12.29640397 -17.5 14.5625 C-17.9228125 15.32691406 -18.345625 16.09132813 -18.78125 16.87890625 C-19.78572841 18.62708501 -20.88160749 20.32241124 -22 22 C-21.53482785 16.30164111 -20.15958895 12.78725598 -17 8 C-16.34 7.67 -15.68 7.34 -15 7 C-14.773125 6.38125 -14.54625 5.7625 -14.3125 5.125 C-11.26167761 0.18557327 -5.36805731 -0.39278468 0 0 Z " fill="#39789B" transform="translate(73,29)"/>
<path d="M0 0 C1.60463449 0.31008884 3.20869231 0.62316287 4.8125 0.9375 C5.70582031 1.11152344 6.59914063 1.28554687 7.51953125 1.46484375 C10 2 10 2 13 3 C12.67 3.66 12.34 4.32 12 5 C8.37 5 4.74 5 1 5 C0.34 6.32 -0.32 7.64 -1 9 C-1.99 8.01 -2.98 7.02 -4 6 C-3.67 5.34 -3.34 4.68 -3 4 C-2.01 4 -1.02 4 0 4 C0 2.68 0 1.36 0 0 Z " fill="#BC754B" transform="translate(54,66)"/>
<path d="M0 0 C8.70488197 3.73347082 15.69117833 9.10024583 23 15 C18.91291802 15 16.52571942 12.95454534 13.25 10.75 C8.58581054 7.65063601 3.88984215 4.73329638 -1 2 C-0.67 1.34 -0.34 0.68 0 0 Z " fill="#19729D" transform="translate(145,10)"/>
<path d="M0 0 C0.99 0.495 0.99 0.495 2 1 C4.55157655 1.0716735 7.07472971 1.09308442 9.625 1.0625 C10.33140625 1.05798828 11.0378125 1.05347656 11.765625 1.04882812 C13.51045275 1.03703875 15.255237 1.01910324 17 1 C16.67 2.32 16.34 3.64 16 5 C13.69 5.33 11.38 5.66 9 6 C9 5.34 9 4.68 9 4 C6.36 4 3.72 4 1 4 C0.67 2.68 0.34 1.36 0 0 Z " fill="#117CAF" transform="translate(23,74)"/>
<path d="M0 0 C2.875 -0.1875 2.875 -0.1875 6 0 C8.67927341 4.01891012 8.15601248 6.24161923 8 11 C7.01 11 6.02 11 5 11 C4.731875 10.113125 4.46375 9.22625 4.1875 8.3125 C3.08289181 5.23122452 1.77150856 2.73778595 0 0 Z " fill="#2078A5" transform="translate(38,54)"/>
<path d="M0 0 C7 8.44827586 7 8.44827586 7 13 C7.639375 13.226875 8.27875 13.45375 8.9375 13.6875 C11 15 11 15 11.75 17.625 C11.8325 18.40875 11.915 19.1925 12 20 C6.15656742 14.67216442 0.42126496 8.21466678 0 0 Z " fill="#147096" transform="translate(12,146)"/>
<path d="M0 0 C0.99 0 1.98 0 3 0 C3.19532961 1.7699868 3.38098882 3.54104279 3.5625 5.3125 C3.66691406 6.29863281 3.77132812 7.28476563 3.87890625 8.30078125 C4 11 4 11 3 14 C2.01 14.33 1.02 14.66 0 15 C-0.93423645 11.98968256 -1.04449911 11.13349732 0 8 C0.06665376 6.60560336 0.08538199 5.20830125 0.0625 3.8125 C0.041875 2.554375 0.02125 1.29625 0 0 Z " fill="#0D75A7" transform="translate(193,118)"/>
<path d="M0 0 C0.99 0 1.98 0 3 0 C2.95875 0.9075 2.9175 1.815 2.875 2.75 C2.78622655 6.2599657 2.78622655 6.2599657 5 10 C8.63 10 12.26 10 16 10 C15.67 10.66 15.34 11.32 15 12 C12.70858714 12.05384521 10.41681812 12.09272087 8.125 12.125 C6.21074219 12.15980469 6.21074219 12.15980469 4.2578125 12.1953125 C1 12 1 12 -1 10 C-0.34 9.01 0.32 8.02 1 7 C0.68269476 3.36060068 0.68269476 3.36060068 0 0 Z " fill="#117EAD" transform="translate(25,84)"/>
<path d="M0 0 C0.66 0.66 1.32 1.32 2 2 C1.96712417 4.72869407 1.43602229 7.2966618 1 10 C0.34 10 -0.32 10 -1 10 C-1 8.02 -1 6.04 -1 4 C-3.64 5.98 -6.28 7.96 -9 10 C-6.61289161 5.22578321 -5.02753239 2.08035823 0 0 Z " fill="#547D8B" transform="translate(49,71)"/>
<path d="M0 0 C-1.02592626 3.07777878 -1.75469244 3.84450474 -4 6 C-4.99 7.485 -4.99 7.485 -6 9 C-6.99 9 -7.98 9 -9 9 C-11.1875 6.5 -11.1875 6.5 -13 4 C-11.68 3.67 -10.36 3.34 -9 3 C-9 3.66 -9 4.32 -9 5 C-8.51789062 4.6390625 -8.03578125 4.278125 -7.5390625 3.90625 C-6.90742187 3.4421875 -6.27578125 2.978125 -5.625 2.5 C-4.99851562 2.0359375 -4.37203125 1.571875 -3.7265625 1.09375 C-2 0 -2 0 0 0 Z " fill="#0D80B4" transform="translate(59,34)"/>
<path d="M0 0 C0.66 0.66 1.32 1.32 2 2 C0 4 0 4 -1.87109375 4.92578125 C-4.95172543 6.48022843 -7.43787722 8.67557307 -10.09765625 10.85546875 C-10.72542969 11.23316406 -11.35320313 11.61085938 -12 12 C-12.99 11.67 -13.98 11.34 -15 11 C-12.87657342 9.35210134 -10.7513551 7.70661212 -8.625 6.0625 C-8.02171875 5.59392578 -7.4184375 5.12535156 -6.796875 4.64257812 C-2.2265625 1.11328125 -2.2265625 1.11328125 0 0 Z " fill="#176A92" transform="translate(47,14)"/>
<path d="M0 0 C0.33 0 0.66 0 1 0 C1.20145347 3.49186021 1.34907805 6.19917389 -0.0625 9.4375 C-2.95038552 11.76643994 -5.41576962 11.27050795 -9 11 C-8.175 10.46375 -7.35 9.9275 -6.5 9.375 C-3.66048792 7.19728131 -3.66048792 7.19728131 -3.6875 3.75 C-3.790625 2.8425 -3.89375 1.935 -4 1 C-3.34 1 -2.68 1 -2 1 C-2 2.65 -2 4.3 -2 6 C-1.34 6 -0.68 6 0 6 C0 4.02 0 2.04 0 0 Z " fill="#BA7A53" transform="translate(82,67)"/>
<path d="M0 0 C3.16860855 2.65478014 4.50301588 5.83999806 6.1875 9.5625 C6.71730469 10.71878906 7.24710938 11.87507813 7.79296875 13.06640625 C9 16 9 16 9 18 C8.34 18 7.68 18 7 18 C5.82625827 15.56568361 4.66084237 13.12795818 3.5 10.6875 C3.16613281 9.99720703 2.83226562 9.30691406 2.48828125 8.59570312 C0 3.33984375 0 3.33984375 0 0 Z " fill="#196C94" transform="translate(185,47)"/>
<path d="M0 0 C0.66 0.33 1.32 0.66 2 1 C-2.49108302 6.52964597 -7.12125596 10.96886123 -13 15 C-13 14.01 -13 13.02 -13 12 C-11.58070226 10.74573688 -10.15183708 9.49928031 -8.66015625 8.33203125 C-6.25518729 6.40239734 -4.14788772 4.20755127 -2 2 C-1.34 1.34 -0.68 0.68 0 0 Z " fill="#136589" transform="translate(174,166)"/>
<path d="M0 0 C-4.75 2.875 -4.75 2.875 -7 4 C-7.66 3.67 -8.32 3.34 -9 3 C-9.33 4.32 -9.66 5.64 -10 7 C-12.31 6.34 -14.62 5.68 -17 5 C-14.35029405 3.23352937 -11.98501901 2.02985003 -9.0625 0.8125 C-8.20785156 0.44769531 -7.35320313 0.08289063 -6.47265625 -0.29296875 C-3.81725523 -1.05225403 -2.55820275 -0.93187432 0 0 Z " fill="#097DB5" transform="translate(70,8)"/>
<path d="M0 0 C2 2 2 2 2.125 5.125 C2.08375 6.07375 2.0425 7.0225 2 8 C2.99 8 3.98 8 5 8 C5.33 9.98 5.66 11.96 6 14 C3.71216703 13.08486681 2.26550272 12.34515354 0.75 10.375 C-0.35953628 6.86146845 -0.12256679 3.67700382 0 0 Z " fill="#8C7D6E" transform="translate(47,83)"/>
<path d="M0 0 C1.11375 0.639375 2.2275 1.27875 3.375 1.9375 C5.23497087 3.00526106 7.08142937 4.04071468 9 5 C9 5.66 9 6.32 9 7 C5.625 7.125 5.625 7.125 2 7 C0 5 0 5 -0.125 2.375 C-0.08375 1.59125 -0.0425 0.8075 0 0 Z " fill="#A37A5D" transform="translate(29,87)"/>
<path d="M0 0 C0.99 0.66 1.98 1.32 3 2 C2.67 3.32 2.34 4.64 2 6 C1.01 6 0.02 6 -1 6 C-1.33 6.66 -1.66 7.32 -2 8 C-2.66 7.67 -3.32 7.34 -4 7 C-3.6875 4.625 -3.6875 4.625 -3 2 C-2.01 1.34 -1.02 0.68 0 0 Z " fill="#DD773B" transform="translate(52,64)"/>
<path d="M0 0 C2.62343217 2.62343217 2 3.3360952 2 7 C1.175 6.154375 0.35 5.30875 -0.5 4.4375 C-2.51343881 2.72270522 -3.51127645 2.02452376 -6.1796875 1.890625 C-8.13690393 2.15530196 -10.07278469 2.56803795 -12 3 C-11 1 -11 1 -8.25 -0.1875 C-4.91729524 -1.02067619 -3.22243727 -1.07414576 0 0 Z " fill="#AC8A67" transform="translate(68,41)"/>
<path d="M0 0 C2.23960447 2.87949147 4.29864224 5.76742026 6 9 C5.67 9.66 5.34 10.32 5 11 C3.8274869 10.04882866 2.66212985 9.08882991 1.5 8.125 C0.8503125 7.59132812 0.200625 7.05765625 -0.46875 6.5078125 C-0.9740625 6.01023438 -1.479375 5.51265625 -2 5 C-2 4.34 -2 3.68 -2 3 C-1.34 3 -0.68 3 0 3 C0 2.01 0 1.02 0 0 Z " fill="#1672A0" transform="translate(53,154)"/>
<path d="M0 0 C2.125 0.375 2.125 0.375 4 1 C3.34 2.98 2.68 4.96 2 7 C0.68 7 -0.64 7 -2 7 C-2.125 4.625 -2.125 4.625 -2 2 C-1.34 1.34 -0.68 0.68 0 0 Z " fill="#117EAD" transform="translate(44,77)"/>
<path d="M0 0 C0.33 0 0.66 0 1 0 C1.61538462 7.26153846 1.61538462 7.26153846 -1.5 11 C-2.325 11.66 -3.15 12.32 -4 13 C-4.33 12.01 -4.66 11.02 -5 10 C-4.34 10 -3.68 10 -3 10 C-2.86722656 9.36191406 -2.73445313 8.72382812 -2.59765625 8.06640625 C-2.42105469 7.24011719 -2.24445313 6.41382813 -2.0625 5.5625 C-1.88847656 4.73878906 -1.71445313 3.91507813 -1.53515625 3.06640625 C-1 1 -1 1 0 0 Z " fill="#C07548" transform="translate(74,49)"/>
<path d="M0 0 C-1 2 -1 2 -3.1796875 2.921875 C-4.06914063 3.19515625 -4.95859375 3.4684375 -5.875 3.75 C-7.20144531 4.17539063 -7.20144531 4.17539063 -8.5546875 4.609375 C-11 5 -11 5 -14 3 C-13.01 3 -12.02 3 -11 3 C-11 2.34 -11 1.68 -11 1 C-7.26562152 0.12132271 -3.83225427 -0.08912219 0 0 Z " fill="#0D70A1" transform="translate(88,1)"/>
<path d="M0 0 C0.33 0 0.66 0 1 0 C1.02717692 2.06242617 1.0464758 4.12495703 1.0625 6.1875 C1.07410156 7.33605469 1.08570313 8.48460938 1.09765625 9.66796875 C1.01192832 12.59300586 0.67849023 15.16316291 0 18 C-0.66 17.67 -1.32 17.34 -2 17 C-1.03644647 5.47835991 -1.03644647 5.47835991 0 0 Z " fill="#126792" transform="translate(198,107)"/>
<path d="M0 0 C2.33002055 2.33002055 2.41956957 3.24690495 2.8125 6.4375 C2.92207031 7.21996094 3.03164062 8.00242187 3.14453125 8.80859375 C3 11 3 11 1.6484375 12.7421875 C-0.21744337 14.16591651 -1.70401584 14.60414066 -4 15 C-3.34 14.195625 -2.68 13.39125 -2 12.5625 C0.72209596 8.56561966 0.37338272 4.66728396 0 0 Z " fill="#C7AE9B" transform="translate(67,80)"/>
<path d="M0 0 C0.99 0.33 1.98 0.66 3 1 C3 1.99 3 2.98 3 4 C2.34 4 1.68 4 1 4 C0.67 4.99 0.34 5.98 0 7 C-3.3 7.33 -6.6 7.66 -10 8 C-10 7.67 -10 7.34 -10 7 C-8.906875 6.773125 -7.81375 6.54625 -6.6875 6.3125 C-2.87511789 5.34252805 -2.87511789 5.34252805 -1.0625 2.375 C-0.711875 1.59125 -0.36125 0.8075 0 0 Z " fill="#44656F" transform="translate(39,68)"/>
<path d="M0 0 C0.78375 0.04125 1.5675 0.0825 2.375 0.125 C2.375 0.785 2.375 1.445 2.375 2.125 C1.75625 2.57875 1.1375 3.0325 0.5 3.5 C-1.75942278 5.22779389 -2.55250301 6.53313228 -3.625 9.125 C-3.955 9.125 -4.285 9.125 -4.625 9.125 C-4.75 5.75 -4.75 5.75 -4.625 2.125 C-2.625 0.125 -2.625 0.125 0 0 Z " fill="#B37958" transform="translate(39.625,38.875)"/>
<path d="M0 0 C0.33 2.97 0.66 5.94 1 9 C-4.46875 5.2890625 -4.46875 5.2890625 -6 4 C-6 3.34 -6 2.68 -6 2 C-2.25 0 -2.25 0 0 0 Z " fill="#077DB5" transform="translate(30,162)"/>
<path d="M0 0 C5.53846154 0.61538462 5.53846154 0.61538462 7.875 2.5625 C8.431875 3.2740625 8.431875 3.2740625 9 4 C8.67 4.99 8.34 5.98 8 7 C8 6.34 8 5.68 8 5 C5.36 4.34 2.72 3.68 0 3 C0 2.01 0 1.02 0 0 Z " fill="#BB8061" transform="translate(58,75)"/>
<path d="M0 0 C0.99 0.33 1.98 0.66 3 1 C2.34 1 1.68 1 1 1 C1 3.97 1 6.94 1 10 C0.01 10.33 -0.98 10.66 -2 11 C-2 9.68 -2 8.36 -2 7 C-3.32 6.67 -4.64 6.34 -6 6 C-6 5.34 -6 4.68 -6 4 C-4.02 4 -2.04 4 0 4 C0 2.68 0 1.36 0 0 Z " fill="#99806A" transform="translate(48,62)"/>
<path d="M0 0 C-1.01454452 2.5363613 -1.6853556 3.79351461 -4 5.3125 C-4.66 5.539375 -5.32 5.76625 -6 6 C-6.66 5.67 -7.32 5.34 -8 5 C-7.8125 3.125 -7.8125 3.125 -7 1 C-2.66666667 -1.33333333 -2.66666667 -1.33333333 0 0 Z " fill="#076DA6" transform="translate(161,179)"/>
<path d="M0 0 C1.65 0.33 3.3 0.66 5 1 C4.34 2.65 3.68 4.3 3 6 C1.68 6 0.36 6 -1 6 C-0.67 4.02 -0.34 2.04 0 0 Z " fill="#2E7693" transform="translate(42,68)"/>
<path d="M0 0 C0.53625 0.474375 1.0725 0.94875 1.625 1.4375 C4.42842836 3.28186076 6.69620258 3.62456847 10 4 C9.67 4.66 9.34 5.32 9 6 C2.25 6.125 2.25 6.125 0 5 C0 3.35 0 1.7 0 0 Z " fill="#D26A36" transform="translate(56,57)"/>
<path d="M0 0 C1.23593891 3.70781672 0.5678132 4.67510253 -0.9375 8.1875 C-1.31777344 9.08855469 -1.69804687 9.98960937 -2.08984375 10.91796875 C-2.54037109 11.94857422 -2.54037109 11.94857422 -3 13 C-3.66 12.67 -4.32 12.34 -5 12 C-4.54738642 10.56068883 -4.08767021 9.12361001 -3.625 7.6875 C-3.24214844 6.48673828 -3.24214844 6.48673828 -2.8515625 5.26171875 C-2 3 -2 3 0 0 Z " fill="#137194" transform="translate(194,132)"/>
<path d="M0 0 C0.33 0.99 0.66 1.98 1 3 C-0.61387065 5.10699779 -2.23178868 7.03702917 -4 9 C-5.0111222 10.32491874 -6.01663902 11.65434813 -7 13 C-7.66 12.67 -8.32 12.34 -9 12 C-6.03 8.04 -3.06 4.08 0 0 Z " fill="#196F90" transform="translate(25,32)"/>
<path d="M0 0 C1.13643966 3.40931897 0.86747764 4.00335456 -0.4375 7.1875 C-0.72496094 7.90292969 -1.01242188 8.61835938 -1.30859375 9.35546875 C-1.53675781 9.89816406 -1.76492187 10.44085938 -2 11 C-2.66 10.67 -3.32 10.34 -4 10 C-3.38461538 3.47692308 -3.38461538 3.47692308 -1.4375 1.0625 C-0.7259375 0.5365625 -0.7259375 0.5365625 0 0 Z " fill="#0C7CB5" transform="translate(190,137)"/>
<path d="M0 0 C1.49080078 0.16628906 1.49080078 0.16628906 3.01171875 0.3359375 C3.77097656 0.43132812 4.53023437 0.52671875 5.3125 0.625 C5.3125 0.955 5.3125 1.285 5.3125 1.625 C4.40886719 1.74617188 3.50523438 1.86734375 2.57421875 1.9921875 C1.39472656 2.15976563 0.21523437 2.32734375 -1 2.5 C-2.17175781 2.66242188 -3.34351562 2.82484375 -4.55078125 2.9921875 C-7.83280895 3.44800621 -7.83280895 3.44800621 -10.6875 5.625 C-8.31761571 0.15603626 -5.74045801 -0.675348 0 0 Z " fill="#1C7598" transform="translate(98.6875,65.375)"/>
<path d="M0 0 C0.66 0 1.32 0 2 0 C0.16508812 4.74018901 -1.91941459 9.36413251 -4 14 C-5.06528748 11.26980214 -5.07998186 10.20701188 -4.00390625 7.421875 C-3.52824219 6.54015625 -3.05257812 5.6584375 -2.5625 4.75 C-2.08941406 3.85796875 -1.61632813 2.9659375 -1.12890625 2.046875 C-0.75636719 1.37140625 -0.38382813 0.6959375 0 0 Z " fill="#4D8EAD" transform="translate(56,37)"/>
<path d="M0 0 C6.4 -0.49230769 6.4 -0.49230769 9.4375 2 C10.2109375 2.99 10.2109375 2.99 11 4 C10.67 4.66 10.34 5.32 10 6 C9.566875 5.505 9.13375 5.01 8.6875 4.5 C7.00259517 2.66781808 7.00259517 2.66781808 4 3 C1.8125 1.5 1.8125 1.5 0 0 Z " fill="#A6836A" transform="translate(30,55)"/>
<path d="M0 0 C4.98012761 1.50912958 8.24259942 4.55661849 12 8 C8.40941456 8 7.25212529 7.10368497 4.3125 5.125 C3.50425781 4.59132813 2.69601563 4.05765625 1.86328125 3.5078125 C1.24839844 3.01023437 0.63351563 2.51265625 0 2 C0 1.34 0 0.68 0 0 Z " fill="#207091" transform="translate(156,17)"/>
<path d="M0 0 C3.71888239 0.50712033 6.73454239 1.11608215 10 3 C9.67 3.66 9.34 4.32 9 5 C5.22454612 3.90931332 2.52956528 3.0916909 0 0 Z " fill="#147297" transform="translate(50,187)"/>
<path d="M0 0 C0.66 0 1.32 0 2 0 C1.67 3.3 1.34 6.6 1 10 C0.01 10 -0.98 10 -2 10 C-1.54177532 6.53058454 -1.10868317 3.32604951 0 0 Z " fill="#6F7371" transform="translate(53,45)"/>
<path d="M0 0 C0 0.66 0 1.32 0 2 C-4.95 3.485 -4.95 3.485 -10 5 C-6.75728676 1.53365137 -4.90610505 0 0 0 Z " fill="#0E6F98" transform="translate(137,192)"/>
<path d="M0 0 C2.64 0 5.28 0 8 0 C8.66 1.32 9.32 2.64 10 4 C8.68 3.67 7.36 3.34 6 3 C6 2.34 6 1.68 6 1 C1.92035719 2.30155006 1.92035719 2.30155006 -2 4 C-1.34 2.68 -0.68 1.36 0 0 Z " fill="#64797B" transform="translate(36,38)"/>
<path d="M0 0 C4 6 4 6 4 11 C3.34 11 2.68 11 2 11 C0.57741188 7.17679443 -0.24042276 4.08718695 0 0 Z " fill="#1074A4" transform="translate(49,142)"/>
<path d="M0 0 C3.1875 -0.3125 3.1875 -0.3125 7 0 C9.9375 2.5 9.9375 2.5 12 5 C11.01 6.485 11.01 6.485 10 8 C9.67 6.35 9.34 4.7 9 3 C4.545 2.01 4.545 2.01 0 1 C0 0.67 0 0.34 0 0 Z " fill="#2279A4" transform="translate(38,37)"/>
<path d="M0 0 C0.99 0.33 1.98 0.66 3 1 C3 3.31 3 5.62 3 8 C2.34 8 1.68 8 1 8 C1 6.35 1 4.7 1 3 C0.34 3 -0.32 3 -1 3 C-0.67 2.01 -0.34 1.02 0 0 Z " fill="#CB733B" transform="translate(79,65)"/>
<path d="M0 0 C0.33 0 0.66 0 1 0 C1.33730842 1.43657245 1.66969591 2.87430093 2 4.3125 C2.185625 5.11300781 2.37125 5.91351563 2.5625 6.73828125 C3 9 3 9 3 12 C0.9375 10.5 0.9375 10.5 -1 8 C-1.05928384 5.17593353 -0.55954815 2.79774073 0 0 Z " fill="#157DAE" transform="translate(18,62)"/>
<path d="M0 0 C1.32 0.33 2.64 0.66 4 1 C4.33 2.98 4.66 4.96 5 7 C4.34 7 3.68 7 3 7 C0 2.61538462 0 2.61538462 0 0 Z " fill="#117EB3" transform="translate(40,55)"/>
<path d="M0 0 C2 2 2 2 2.1953125 3.9453125 C2.13020833 5.96354167 2.06510417 7.98177083 2 10 C0.02 10.99 0.02 10.99 -2 12 C-1.505 11.2575 -1.505 11.2575 -1 10.5 C0.43636358 6.90909106 0.12851462 3.85543873 0 0 Z " fill="#275D7B" transform="translate(46,40)"/>
<path d="M0 0 C-2.93828597 2.50298434 -5.17902761 3.46930939 -9 4 C-9 3.34 -9 2.68 -9 2 C-5.5647952 -0.29013653 -4.014669 -0.17842973 0 0 Z " fill="#166D91" transform="translate(147,189)"/>
<path d="M0 0 C0.66 1.32 1.32 2.64 2 4 C-0.475 5.485 -0.475 5.485 -3 7 C-3 5.35 -3 3.7 -3 2 C-2.01 2 -1.02 2 0 2 C0 1.34 0 0.68 0 0 Z " fill="#197AAC" transform="translate(23,52)"/>
<path d="M0 0 C2.64 0 5.28 0 8 0 C8 1.32 8 2.64 8 4 C5.0280615 2.87548273 2.66559313 1.77706209 0 0 Z " fill="#366071" transform="translate(34,80)"/>
<path d="M0 0 C1.32 0.66 2.64 1.32 4 2 C2 4 2 4 -1.625 4.125 C-2.73875 4.08375 -3.8525 4.0425 -5 4 C-3.35 2.68 -1.7 1.36 0 0 Z " fill="#B58D6D" transform="translate(78,74)"/>
<path d="M0 0 C2.97 0 5.94 0 9 0 C9.33 0.66 9.66 1.32 10 2 C7.25 2.6875 7.25 2.6875 4 3 C1.625 1.5625 1.625 1.5625 0 0 Z " fill="#C57849" transform="translate(72,64)"/>
<path d="M0 0 C2 1 2 1 2 1 Z " fill="#AF8C7D" transform="translate(71,76)"/>
<path d="" fill="#768989" transform="translate(0,0)"/>
</svg>
