<?xml version="1.0" encoding="UTF-8"?>
<svg version="1.1" xmlns="http://www.w3.org/2000/svg" width="512" height="512">
<path d="M0 0 C0.94437927 0.00215515 1.88875854 0.0043103 2.86175537 0.00653076 C17.0263594 0.05832364 30.89473985 0.44196197 44.8125 3.3125 C45.80765625 3.51649414 46.8028125 3.72048828 47.828125 3.93066406 C80.95056413 10.93654943 114.26288752 23.22652755 141.8125 43.3125 C142.41336426 43.74643066 143.01422852 44.18036133 143.63330078 44.62744141 C163.02008734 58.67478985 181.11642339 74.30374297 195.8125 93.3125 C196.57433594 94.24578125 197.33617187 95.1790625 198.12109375 96.140625 C238.50159569 146.53549142 256.85551058 214.09082205 249.79907227 278.07617188 C242.59965916 336.1478647 218.15496387 386.99003791 177.8125 429.3125 C177.05453125 430.11171875 176.2965625 430.9109375 175.515625 431.734375 C170.47714835 436.91578716 165.12608003 441.56356195 159.44238281 446.02441406 C157.68458027 447.41359414 155.94886206 448.82823624 154.2109375 450.2421875 C117.98307061 479.26774893 73.78486898 496.85806632 27.8125 502.3125 C27.10134033 502.4067627 26.39018066 502.50102539 25.6574707 502.59814453 C-8.54181917 506.68087876 -44.98987537 503.0346137 -77.5 491.875 C-87.1444964 488.77018369 -97.52799134 491.56429421 -107.26733398 493.35375977 C-108.40887939 493.55873077 -109.5504248 493.76370178 -110.7265625 493.97488403 C-113.18387836 494.41666528 -115.64075607 494.86088952 -118.0972271 495.30734444 C-121.99465636 496.01499327 -125.89343368 496.71488482 -129.79273987 497.41209412 C-140.87187103 499.39458116 -151.94867941 501.3898431 -163.02368164 503.39526367 C-169.16013158 504.50633976 -175.29800655 505.60918452 -181.43747193 506.70347828 C-184.67333165 507.28065065 -187.90803108 507.86338854 -191.14147758 508.45395088 C-194.75197243 509.11317212 -198.3647333 509.7583362 -201.97827148 510.40063477 C-203.02541824 510.59542923 -204.072565 510.79022369 -205.15144348 510.99092102 C-223.12258859 514.13470167 -223.12258859 514.13470167 -230.8125 510.6875 C-234.44340959 507.05659041 -236.06874064 504.16116916 -236.40039062 498.99853516 C-236.17881893 495.162194 -235.42088045 492.65997702 -233.90625 489.1484375 C-233.40174316 487.96193604 -232.89723633 486.77543457 -232.37744141 485.55297852 C-231.81439837 484.26436733 -231.25107644 482.97587798 -230.6875 481.6875 C-230.1061898 480.33371061 -229.52597361 478.97945101 -228.94677734 477.62475586 C-227.37546579 473.95865425 -225.78829556 470.29961386 -224.19812012 466.6416626 C-222.45898088 462.63349179 -220.73454114 458.61899738 -219.0078125 454.60546875 C-216.63348681 449.09246373 -214.25571881 443.58097823 -211.86651611 438.07440186 C-211.23717959 436.62372167 -210.60886456 435.17259787 -209.98162842 433.7210083 C-208.40404665 430.07762735 -206.80124572 426.44849911 -205.15527344 422.83544922 C-204.82884857 422.11155502 -204.50242371 421.38766083 -204.16610718 420.64183044 C-203.54789828 419.27328355 -202.92239962 417.90799651 -202.28823853 416.54676819 C-200.6990411 413.01107172 -199.66192441 410.19901572 -200.1875 406.3125 C-201.9692499 403.55448617 -201.9692499 403.55448617 -204.4375 400.75 C-243.06455652 352.9834127 -258.39184404 285.74555241 -252.23754883 225.42773438 C-247.46277535 184.22278159 -233.56001545 143.14101872 -209.1875 109.3125 C-208.75356934 108.71018555 -208.31963867 108.10787109 -207.87255859 107.48730469 C-193.82684972 88.10759933 -178.19909163 69.9958042 -159.1875 55.3125 C-157.75277344 54.15234375 -157.75277344 54.15234375 -156.2890625 52.96875 C-125.95183599 28.82123469 -89.38133857 12.21211501 -51.4375 4.5 C-50.48141846 4.30510986 -49.52533691 4.11021973 -48.5402832 3.90942383 C-32.40387729 0.8267005 -16.39911904 -0.06764388 0 0 Z M-154.57958984 89.75585938 C-156.2547334 91.3775896 -157.94954187 92.97717044 -159.64453125 94.578125 C-168.53331225 103.0924994 -176.01174519 112.32873696 -183.1875 122.3125 C-183.61981934 122.90015137 -184.05213867 123.48780273 -184.49755859 124.09326172 C-197.40283116 141.7210974 -207.84818246 162.41103454 -214.1875 183.3125 C-214.58074463 184.60124023 -214.58074463 184.60124023 -214.98193359 185.91601562 C-228.00108044 229.65282442 -228.02774471 275.76742374 -214.1875 319.3125 C-213.94241699 320.08658203 -213.69733398 320.86066406 -213.44482422 321.65820312 C-210.13511603 331.92161929 -206.01399058 341.67655638 -201.1875 351.3125 C-200.68694092 352.32546143 -200.68694092 352.32546143 -200.17626953 353.35888672 C-192.54586669 368.70151025 -183.02854127 382.29055268 -172.3046875 395.6171875 C-168.34770125 400.65467922 -168.4617444 405.04999308 -169.1875 411.3125 C-170.6259205 415.95824879 -172.63258778 420.2852206 -174.6875 424.6875 C-175.26419999 425.96477603 -175.83852261 427.24312773 -176.41064453 428.52246094 C-177.64855561 431.28608697 -178.89583323 434.04520577 -180.14941406 436.80175781 C-183.4980599 444.18755229 -186.73778871 451.62129129 -189.97045898 459.05841064 C-191.05395312 461.5429017 -192.14851695 464.02230326 -193.24414062 466.50146484 C-193.91061005 468.02682003 -194.57664749 469.55236406 -195.2421875 471.078125 C-195.55610443 471.78194305 -195.87002136 472.48576111 -196.19345093 473.21090698 C-196.91820555 474.88671722 -197.56142503 476.5973792 -198.1875 478.3125 C-197.8575 478.9725 -197.5275 479.6325 -197.1875 480.3125 C-196.63311752 480.21457909 -196.07873505 480.11665817 -195.5075531 480.01576996 C-181.99523629 477.62956618 -168.48159157 475.25101492 -154.9664917 472.88062286 C-148.4306342 471.73407227 -141.89523893 470.58501158 -135.36083984 469.43017578 C-129.0530472 468.31548435 -122.74412011 467.20743715 -116.43435669 466.10395813 C-114.02904808 465.68211052 -111.62415552 465.25788343 -109.21969604 464.83122253 C-105.84806039 464.23336225 -102.47503551 463.64403176 -99.1015625 463.05664062 C-98.11109421 462.87897659 -97.12062592 462.70131256 -96.10014343 462.51826477 C-88.37188099 461.18709826 -81.57033318 460.56633378 -73.95703125 462.95703125 C-72.82330078 463.30443359 -71.68957031 463.65183594 -70.52148438 464.00976562 C-69.35939453 464.37779297 -68.19730469 464.74582031 -67 465.125 C-32.90307555 475.75985574 1.54629227 478.01069763 36.8125 472.3125 C37.62460937 472.18391602 38.43671875 472.05533203 39.2734375 471.92285156 C80.83473026 465.04844582 117.39325788 444.61827541 148.8125 417.3125 C149.73546875 416.51457031 150.6584375 415.71664063 151.609375 414.89453125 C156.78786198 410.33589347 161.39210123 405.59875008 165.8125 400.3125 C166.63363281 399.37921875 167.45476562 398.4459375 168.30078125 397.484375 C207.10680749 353.17251263 225.86645705 294.40342795 222.34375 235.81640625 C218.5593629 185.04000274 198.28211764 137.15984872 163.35546875 100.06640625 C161.56610192 98.12861268 159.8735855 96.20022816 158.20703125 94.1640625 C156.31558025 91.91160046 154.5419219 90.01494174 152.3125 88.125 C151.28189453 87.24908203 151.28189453 87.24908203 150.23046875 86.35546875 C149.43253906 85.68128906 148.63460938 85.00710937 147.8125 84.3125 C146.83925781 83.46300781 145.86601562 82.61351562 144.86328125 81.73828125 C137.53194927 75.36863826 129.96806219 69.61266044 121.8125 64.3125 C120.73226563 63.60738281 119.65203125 62.90226562 118.5390625 62.17578125 C35.15305926 9.28986735 -79.30468834 18.63741438 -154.57958984 89.75585938 Z " fill="#000000" transform="translate(257.1875,-0.3125)"/>
<path d="M0 0 C1.06352527 -0.00445668 1.06352527 -0.00445668 2.14853591 -0.0090034 C4.52438483 -0.01767512 6.90018327 -0.01919735 9.27604675 -0.02069092 C10.97954414 -0.02532015 12.6830405 -0.03034495 14.38653564 -0.03573608 C19.01471997 -0.04885143 23.64288979 -0.05530329 28.27108979 -0.05974674 C31.16305565 -0.0626787 34.05501756 -0.06678373 36.94698143 -0.07125092 C45.99666285 -0.0849232 55.04633521 -0.09459133 64.09602624 -0.09845281 C74.54011675 -0.10293387 84.9840764 -0.12048513 95.42812711 -0.1494534 C103.50298767 -0.17107246 111.57781141 -0.1811572 119.6527006 -0.18249393 C124.47466258 -0.18354174 129.29650151 -0.18944458 134.118433 -0.20731354 C138.65500124 -0.22379819 143.19135398 -0.22594781 147.72794151 -0.21717453 C149.39078219 -0.21640438 151.05363447 -0.22074394 152.71644592 -0.23063278 C154.99115112 -0.24336478 157.26509445 -0.23746926 159.53979492 -0.22705078 C160.81128293 -0.22851734 162.08277094 -0.2299839 163.39278889 -0.2314949 C169.32776972 0.38725374 174.10985903 2.40134786 177.96037292 7.14044189 C179.61149746 12.09381551 179.82004431 17.10437809 177.77287292 21.95294189 C174.91665191 25.40010519 172.22661609 27.71836084 167.96037292 29.14044189 C165.62798748 29.23929264 163.29281651 29.27548945 160.95834351 29.28088379 C160.24130841 29.28385491 159.52427332 29.28682603 158.78550988 29.28988719 C156.37658204 29.29857681 153.96770388 29.30008266 151.5587616 29.30157471 C149.83408502 29.30620269 148.10940946 29.31122733 146.38473511 29.31661987 C141.69457722 29.32974769 137.00443364 29.33618957 132.31426024 29.34063053 C129.38461791 29.34356062 126.45497949 29.3476653 123.52533913 29.3521347 C114.36086011 29.36581059 105.19639005 29.37547682 96.03190154 29.3793366 C85.44969049 29.38381783 74.86760858 29.40136842 64.28543681 29.43033719 C56.10785284 29.451947 47.93030522 29.4620405 39.752693 29.46337771 C34.86759149 29.46442624 29.98261137 29.47034411 25.0975399 29.48819733 C20.50189298 29.5046659 15.90645882 29.50683942 11.31079292 29.49805832 C9.62495733 29.4972873 7.93911036 29.50163927 6.25330353 29.51151657 C3.9497333 29.52422082 1.64691839 29.51836803 -0.65664673 29.50793457 C-1.94510404 29.50940113 -3.23356134 29.51086769 -4.56106281 29.51237869 C-9.67844736 28.96521513 -12.91298994 27.38887764 -16.35212708 23.57794189 C-19.44519051 19.1101836 -19.69776995 15.49574146 -19.03962708 10.14044189 C-16.77831211 5.77933446 -14.14878199 2.18377706 -9.35460377 0.57500076 C-6.21261831 -0.01480113 -3.19752112 0.0074873 0 0 Z " fill="#000000" transform="translate(176.0396270751953,268.85955810546875)"/>
<path d="M0 0 C1.2158075 -0.01051392 1.2158075 -0.01051392 2.45617676 -0.02124023 C5.12217982 -0.03877392 7.78711208 -0.02721435 10.453125 -0.01367188 C12.31347862 -0.01636813 14.17383087 -0.02025166 16.03417969 -0.02526855 C19.92787123 -0.03115732 23.82119504 -0.02262072 27.71484375 -0.00390625 C32.69835686 0.01888297 37.68100823 0.00575655 42.66448975 -0.01819611 C46.50446022 -0.03267091 50.3442274 -0.02804039 54.1842041 -0.01768494 C56.02136335 -0.0150223 57.85854123 -0.01827109 59.69567871 -0.02760315 C62.26636434 -0.0377966 64.83566701 -0.02222958 67.40625 0 C68.16071411 -0.00809692 68.91517822 -0.01619385 69.69250488 -0.02453613 C74.83250603 0.05753973 77.72819903 1.30466234 81.703125 4.51757812 C85.08821852 8.35401744 85.21945397 12.15190121 85.05078125 17.08007812 C84.52502995 20.76624456 83.21498109 22.80741761 80.703125 25.51757812 C76.01250536 28.41980913 72.00289263 28.95472332 66.60571289 28.92163086 C65.42157555 28.93192574 65.42157555 28.93192574 64.21351624 28.94242859 C61.61741892 28.96065235 59.02192849 28.9568655 56.42578125 28.95117188 C54.61266383 28.95573584 52.79954813 28.96104205 50.98643494 28.96705627 C47.19116171 28.9759787 43.39609901 28.97357419 39.60083008 28.96362305 C34.7474752 28.95213497 29.89484808 28.97234666 25.04158878 29.00154018 C21.29853228 29.01992396 17.55564947 29.01960538 13.81255913 29.01390266 C12.02366553 29.01374971 10.23475997 29.01977234 8.4459095 29.03219414 C5.94012485 29.04714372 3.43567573 29.03639895 0.92993164 29.01928711 C-0.1683194 29.03378906 -0.1683194 29.03378906 -1.28875732 29.04858398 C-6.80138177 28.97011975 -9.86457474 27.57122109 -14.296875 24.51757812 C-17.45698096 20.03226644 -18.06391288 15.84423008 -17.296875 10.51757812 C-14.37838806 2.08639364 -8.41062281 -0.09026297 0 0 Z " fill="#000000" transform="translate(174.296875,200.482421875)"/>
</svg>
