<?xml version="1.0" encoding="UTF-8"?>
<svg version="1.1" xmlns="http://www.w3.org/2000/svg" width="512" height="512">
<path d="M0 0 C21.8506495 20.36197112 34.37214473 50.88954367 35.71337891 80.44213867 C35.85387582 84.75788875 35.87682991 89.07143568 35.86572266 93.38916016 C35.86551117 94.15307068 35.86529968 94.9169812 35.86508179 95.70404053 C35.82954509 108.62289268 34.69324459 120.83357748 31.49072266 133.38916016 C31.31412109 134.12650391 31.13751953 134.86384766 30.95556641 135.62353516 C21.13281703 176.07871036 -6.78085744 213.30469336 -39.50927734 238.38916016 C-40.04182129 238.80343262 -40.57436523 239.21770508 -41.12304688 239.64453125 C-54.23301656 249.79940023 -68.42908828 258.21361658 -83.00927734 266.07666016 C-83.91613281 266.56718872 -83.91613281 266.56718872 -84.84130859 267.06762695 C-87.71072435 268.58025431 -90.35421241 269.67468568 -93.50927734 270.38916016 C-95.93038114 266.87135934 -98.34534966 263.34938827 -100.75927734 259.82666016 C-101.44119141 258.83601563 -102.12310547 257.84537109 -102.82568359 256.82470703 C-106.27713962 251.78156012 -109.58758795 246.75814092 -112.50927734 241.38916016 C-111.99131592 241.06753906 -111.47335449 240.74591797 -110.93969727 240.41455078 C-96.39691974 231.38212238 -96.39691974 231.38212238 -82.50927734 221.38916016 C-81.67009766 220.75365234 -80.83091797 220.11814453 -79.96630859 219.46337891 C-66.14716399 208.62443388 -54.25044227 195.98536077 -44.50927734 181.38916016 C-43.94080078 180.56673828 -43.37232422 179.74431641 -42.78662109 178.89697266 C-32.50311401 163.0466604 -26.19880628 142.9750094 -23.50927734 124.38916016 C-24.09451172 124.65470703 -24.67974609 124.92025391 -25.28271484 125.19384766 C-43.93904524 132.86927488 -65.87228273 131.52628196 -84.50927734 124.38916016 C-104.20215958 115.78631841 -118.07693007 102.00780097 -126.83349609 82.42822266 C-134.01129524 63.80330145 -133.71541944 42.48477192 -125.74365234 24.15478516 C-116.78205362 4.88374162 -103.89281795 -9.55510421 -83.82177734 -17.48583984 C-54.94741653 -26.98229629 -22.68395407 -20.01781064 0 0 Z " fill="#000000" transform="translate(410.50927734375,131.61083984375)"/>
<path d="M0 0 C24.54191731 24.17743339 35.04615485 55.41249976 35.72070312 89.41455078 C35.79811735 101.95389616 34.96435708 114.05938248 32.3671875 126.33203125 C32.20089844 127.11980957 32.03460938 127.90758789 31.86328125 128.71923828 C25.11375228 159.4108464 9.19179446 187.06292046 -11.6328125 210.33203125 C-12.12426758 210.8852002 -12.61572266 211.43836914 -13.12207031 212.00830078 C-35.58777386 237.19733881 -62.7012192 254.27422066 -92.6328125 269.33203125 C-95.38073924 266.70568103 -97.64045035 264.07703164 -99.76171875 260.92578125 C-100.32181641 260.09949219 -100.88191406 259.27320313 -101.45898438 258.421875 C-102.03197266 257.56722656 -102.60496094 256.71257812 -103.1953125 255.83203125 C-104.34168841 254.1336017 -105.48879848 252.43566739 -106.63671875 250.73828125 C-107.14017822 249.98869141 -107.6436377 249.23910156 -108.16235352 248.46679688 C-109.60057076 246.37883879 -111.09735239 244.34923233 -112.6328125 242.33203125 C-111.13034055 237.97773356 -108.40572901 236.84147797 -104.4453125 234.76953125 C-69.19100854 215.56701133 -40.64935017 183.83379616 -29.06323242 145.16845703 C-28.79744385 144.25306152 -28.53165527 143.33766602 -28.2578125 142.39453125 C-27.88136597 141.09878174 -27.88136597 141.09878174 -27.49731445 139.77685547 C-25.98112097 134.29023271 -25.12498936 129.00351107 -24.6328125 123.33203125 C-25.23520752 123.61884766 -25.83760254 123.90566406 -26.45825195 124.20117188 C-42.75101019 131.73751003 -62.82575029 130.38264558 -79.6328125 125.14453125 C-92.44840337 120.32296217 -102.11016425 113.96704113 -111.6328125 104.33203125 C-112.63441406 103.34589844 -112.63441406 103.34589844 -113.65625 102.33984375 C-128.18325069 87.02404665 -132.15517195 67.57545714 -131.91796875 47.16796875 C-131.6902429 40.0432393 -130.19538301 34.00185763 -127.6328125 27.33203125 C-127.35566406 26.48253906 -127.07851562 25.63304687 -126.79296875 24.7578125 C-120.53641507 6.8531128 -107.09252214 -7.83797117 -90.1328125 -16.04296875 C-59.91589785 -29.04452559 -23.94017563 -22.48586589 0 0 Z " fill="#000000" transform="translate(197.6328125,132.66796875)"/>
</svg>
