<?xml version="1.0" encoding="UTF-8"?>
<svg version="1.1" xmlns="http://www.w3.org/2000/svg" width="512" height="512">
<path d="M0 0 C1.36729248 0.29801514 1.36729248 0.29801514 2.76220703 0.60205078 C16.47056111 3.68556429 29.32126197 7.94726619 42 14 C42.72380859 14.34401855 43.44761719 14.68803711 44.19335938 15.04248047 C86.2065378 35.3576896 119.11861512 72.53570036 134.86376953 116.40673828 C150.36766927 162.13180896 148.7316073 212.72632669 127.79199219 256.52685547 C124.79812331 262.50159696 121.7097251 268.43541236 118 274 C118.14404377 278.1831467 121.1571489 280.55064951 123.97721863 283.29760742 C124.50061791 283.81933659 125.0240172 284.34106575 125.56327707 284.87860489 C127.32189176 286.62809936 129.09097039 288.36662027 130.86010742 290.10546875 C132.12212439 291.3568181 133.38343981 292.60887534 134.644104 293.86158752 C137.36286506 296.56067972 140.0860628 299.25518739 142.81261253 301.94641113 C147.12943813 306.20835735 151.43320577 310.48332548 155.73469543 314.76074219 C167.96963353 326.92323761 180.22187094 339.06821537 192.48754883 351.19970703 C199.25979719 357.89809681 206.02105319 364.60739184 212.77088815 371.32836819 C217.03795885 375.57589244 221.31815011 379.80957696 225.60877359 384.03330135 C228.28680226 386.67592069 230.95198889 389.33121167 233.61386108 391.99009514 C234.84288121 393.21271922 236.07701001 394.4302347 237.31679726 395.64193916 C247.45703374 405.56145379 255.02261693 415.30897731 255.3125 430.0625 C255.35991995 440.89400772 251.9529115 449.66609531 244.5625 457.625 C235.78652911 465.75882668 226.9525371 469.75425464 214.87182617 469.52294922 C198.26917842 468.66518897 188.49492993 457.7866365 177.51293945 446.64477539 C176.26913876 445.39057371 175.0248421 444.13686373 173.78009033 442.88360596 C171.11306245 440.19678709 168.44900651 437.50706849 165.78710365 434.8151722 C161.57913506 430.56090471 157.36126276 426.31655024 153.1414032 422.07408142 C141.14766705 410.01360711 129.1625109 397.94469498 117.19799805 385.85522461 C110.58050023 379.1687806 103.9524189 372.4930223 97.3122651 365.8290748 C93.11173836 361.61232582 88.92470897 357.38274905 84.74699938 353.14339936 C82.15159294 350.51606746 79.54377838 347.90133825 76.93217468 345.29011536 C75.72116026 344.07424265 74.51532604 342.85318579 73.31503868 341.62672234 C71.67978348 339.9572965 70.02720098 338.30721991 68.36885071 336.66078186 C67.44730855 335.73111131 66.52576639 334.80144075 65.57629871 333.84359837 C63.17089981 331.72523302 63.17089981 331.72523302 60.3697691 332.09712887 C57.00122891 333.38052719 54.00964439 335.20399484 50.9375 337.0625 C9.89017997 360.91496835 -39.75416676 364.26052985 -85.0703125 352.6328125 C-92.61957615 350.6074003 -99.8356151 348.11510986 -107 345 C-107.67933594 344.70899414 -108.35867187 344.41798828 -109.05859375 344.11816406 C-153.87309526 324.69169437 -187.68384236 287.83221972 -205.89501953 242.78613281 C-223.62305996 196.66185064 -220.34004082 145.43251739 -200.64453125 100.65234375 C-194.91173781 88.11621312 -187.66511133 76.71927796 -179 66 C-178.57605957 65.4745459 -178.15211914 64.9490918 -177.71533203 64.40771484 C-147.67535322 27.40926086 -104.82741132 2.89917982 -57.2109375 -2.49609375 C-38.24818621 -4.25927512 -18.64029889 -4.10256133 0 0 Z M-139 61 C-139.92554688 61.79148438 -140.85109375 62.58296875 -141.8046875 63.3984375 C-148.28634146 69.09008377 -153.78519565 75.13793634 -159 82 C-159.79019531 83.01320312 -160.58039063 84.02640625 -161.39453125 85.0703125 C-177.28641631 105.95103453 -187.4293991 131.03199348 -191 157 C-191.18046875 158.2065625 -191.3609375 159.413125 -191.546875 160.65625 C-196.24848157 199.57640135 -185.32867895 240.68326929 -161.52734375 271.8671875 C-157.30849199 277.18811338 -152.71459341 282.11916564 -148 287 C-146.70642578 288.38832031 -146.70642578 288.38832031 -145.38671875 289.8046875 C-134.56354916 301.12492117 -121.87009959 309.7976542 -108 317 C-107.35869141 317.33628418 -106.71738281 317.67256836 -106.05664062 318.01904297 C-69.42265042 336.9679655 -27.00486165 339.56350633 12.20166016 327.31201172 C39.03636636 318.47946711 65.14621742 302.07031421 83 280 C83.77085937 279.05511719 84.54171875 278.11023438 85.3359375 277.13671875 C112.30990942 243.45337818 124.12828696 201.43571917 119.50390625 158.5078125 C118.89171179 153.95415521 118.02796886 149.47692973 117 145 C116.82839355 144.2471875 116.65678711 143.494375 116.47998047 142.71875 C113.85220638 131.5970895 110.01160498 121.25728196 105 111 C104.65420898 110.28924316 104.30841797 109.57848633 103.95214844 108.84619141 C99.17354215 99.14919063 93.8958159 90.37664816 87 82 C86.32130859 81.1632373 86.32130859 81.1632373 85.62890625 80.30957031 C59.26227975 47.92292136 22.27980305 27.46261111 -19.3125 22.6875 C-63.04284138 18.32116856 -105.8994113 32.24695131 -139 61 Z " fill="#000000" transform="translate(237,23)"/>
</svg>
