<?xml version="1.0" encoding="UTF-8"?>
<svg version="1.1" xmlns="http://www.w3.org/2000/svg" width="512" height="512">
<path d="M0 0 C6.44967283 5.3866712 11.13032743 11.59329679 11.93358803 20.18649864 C11.93911879 21.15438128 11.94464954 22.12226391 11.9503479 23.11947632 C11.96151138 24.23839264 11.97267487 25.35730896 11.98417664 26.51013184 C11.98633682 27.72285767 11.98849701 28.9355835 11.99072266 30.18505859 C12.00579109 32.1175798 12.00579109 32.1175798 12.02116394 34.08914185 C12.04839125 37.6093229 12.06359166 41.12946409 12.07659197 44.64972258 C12.09225445 48.33331068 12.11903469 52.01681778 12.1446228 55.7003479 C12.19135552 62.6699799 12.22812622 69.63962723 12.26129568 76.60933554 C12.29955605 84.54649592 12.34895592 92.48357483 12.39927983 100.42066646 C12.50251775 116.74262532 12.59180453 133.06462944 12.671875 149.38671875 C13.25304077 148.36372681 13.25304077 148.36372681 13.84594727 147.32006836 C14.36729248 146.42296143 14.8886377 145.52585449 15.42578125 144.6015625 C15.9369751 143.71331787 16.44816895 142.82507324 16.97485352 141.90991211 C21.01245857 135.90665383 27.0135266 132.84346785 33.671875 130.38671875 C44.22705162 128.97278543 52.82597286 130.11971598 61.671875 136.38671875 C66.78548828 140.73432519 69.29134071 146.21133275 71.671875 152.38671875 C71.97480469 151.72285156 72.27773438 151.05898438 72.58984375 150.375 C75.04356874 145.20330271 77.2410867 141.15288881 81.671875 137.38671875 C82.435 136.68546875 83.198125 135.98421875 83.984375 135.26171875 C91.99853756 129.67044255 100.12749594 129.48164832 109.671875 130.38671875 C116.423808 132.03544658 122.15953513 136.15829016 126.671875 141.38671875 C128.61436944 144.6163515 130.21771404 147.91211299 131.671875 151.38671875 C132.00058594 150.75765625 132.32929688 150.12859375 132.66796875 149.48046875 C137.10115925 141.50312865 143.13706474 133.58201127 152.24609375 130.7890625 C161.40418637 129.2700874 170.75796274 129.09525977 178.671875 134.38671875 C186.02959579 139.832487 190.4896609 145.36275589 192.671875 154.38671875 C192.85036333 156.8985752 192.93279143 159.41837236 192.93930054 161.93655396 C192.94383165 162.66431845 192.94836276 163.39208294 192.95303118 164.1419009 C192.96562073 166.5635792 192.96405835 168.98503102 192.96240234 171.40673828 C192.96839115 173.15020535 192.97519751 174.89366977 192.98275757 176.63713074 C193.00039264 181.36265924 193.005112 186.08811526 193.00638914 190.8136735 C193.00781314 193.77086924 193.01208755 196.7280467 193.01738358 199.68523788 C193.03587829 210.01608189 193.04405522 220.34687436 193.04248047 230.67773438 C193.04128045 240.28379344 193.06235675 249.88962731 193.0939678 259.49562943 C193.12019034 267.76088419 193.1308452 276.02606569 193.12956965 284.29136169 C193.12906161 289.21969326 193.1346566 294.14782478 193.15592575 299.07611465 C193.17540812 303.71703929 193.17536479 308.35757517 193.16089249 312.99851418 C193.15881537 314.69270081 193.16343914 316.38691242 193.1756134 318.08105659 C193.27919941 333.50694801 190.88061144 346.35710867 180.171875 358.13671875 C179.346875 358.87921875 178.521875 359.62171875 177.671875 360.38671875 C176.805625 361.21171875 175.939375 362.03671875 175.046875 362.88671875 C167.55561924 369.05139797 158.6467021 371.53635705 149.16563416 371.53388977 C148.40635339 371.53756646 147.64707262 371.54124315 146.86478335 371.54503125 C144.31862149 371.55605075 141.77250047 371.55990902 139.22631836 371.5637207 C137.40123363 371.56998678 135.57615018 371.5766337 133.75106812 371.58363342 C127.75462734 371.60466305 121.75818635 371.61503632 115.76171875 371.625 C113.69536386 371.62904828 111.62900911 371.63316522 109.5626545 371.63735008 C99.8519544 371.6564011 90.14126189 371.67063107 80.4305467 371.67896205 C69.23313714 371.68872775 58.03592561 371.71503029 46.83858579 371.75546294 C38.17683209 371.78566272 29.51513503 371.80043468 20.85332972 371.80374306 C15.68355779 371.80608957 10.51399744 371.81499773 5.34428215 371.84020424 C0.47607066 371.86355686 -4.39179103 371.86768933 -9.2600441 371.85744286 C-11.04053984 371.8569491 -12.82105323 371.86322211 -14.60149574 371.8769989 C-28.39489172 371.97770221 -39.22792435 370.1112307 -50.328125 361.38671875 C-51.34519531 360.59394531 -51.34519531 360.59394531 -52.3828125 359.78515625 C-56.77483185 355.90582398 -59.47947281 351.56305412 -62.01171875 346.33203125 C-62.35376343 345.63615906 -62.69580811 344.94028687 -63.04821777 344.22332764 C-67.32705609 335.44698711 -71.32738031 326.54218319 -75.328125 317.63671875 C-76.16518684 315.77986778 -77.00242978 313.92309844 -77.83984375 312.06640625 C-83.36605212 299.80235243 -88.84200097 287.51618452 -94.28912354 275.21682739 C-99.45271089 263.55802505 -104.68974775 251.93382954 -109.95758057 240.32177734 C-112.3581482 235.02634182 -114.75096098 229.72739776 -117.14346313 224.42831421 C-118.79635769 220.76881122 -120.45180561 217.11063858 -122.12304688 213.45947266 C-123.57915908 210.27411583 -125.01880502 207.08192987 -126.453125 203.88671875 C-126.84870605 203.03489014 -127.24428711 202.18306152 -127.65185547 201.30541992 C-131.57618798 192.45893591 -132.36794325 183.64296533 -129.328125 174.38671875 C-125.62866271 166.13751453 -119.2435621 160.27871116 -110.890625 156.94921875 C-102.49325493 154.2810035 -96.37721411 155.03229675 -88.1015625 157.828125 C-81.04145016 161.79570926 -76.39754522 168.6728112 -71.765625 175.13671875 C-70.68136623 176.63178364 -69.59670649 178.12655779 -68.51171875 179.62109375 C-67.64890541 180.81469513 -67.64890541 180.81469513 -66.7686615 182.03240967 C-63.55935672 186.45540774 -60.31006615 190.84906705 -57.06665039 195.24707031 C-56.09336163 196.5673674 -56.09336163 196.5673674 -55.10041046 197.91433716 C-53.50984015 200.07193899 -51.91907315 202.22939551 -50.328125 204.38671875 C-50.32665844 203.44857173 -50.32519188 202.51042471 -50.32368088 201.54384899 C-50.28704591 178.69074016 -50.22754389 155.83777743 -50.14422226 132.98478985 C-50.10445459 121.9331355 -50.07205053 110.88155212 -50.05712891 99.82983398 C-50.04410065 90.19439319 -50.01710591 80.5591087 -49.97351193 70.92375594 C-49.95092365 65.82439097 -49.93521275 60.72521861 -49.93624115 55.62579918 C-49.93698931 50.81994391 -49.91897583 46.014514 -49.88695717 41.20876884 C-49.87848195 39.45088391 -49.87669198 37.69295113 -49.88232231 35.93505478 C-49.91571323 23.90106261 -49.30422937 11.4764447 -40.328125 2.38671875 C-28.40412362 -7.31416373 -12.97814179 -8.99324255 0 0 Z " fill="#000000" transform="translate(229.328125,140.61328125)"/>
<path d="M0 0 C1.00639023 0.00555908 1.00639023 0.00555908 2.03311157 0.01123047 C33.38495753 0.2562429 60.73993894 11.33906181 83.8125 32.4375 C85.01132812 33.51257812 85.01132812 33.51257812 86.234375 34.609375 C109.28229001 56.34960688 121.08374252 87.58868924 122.16210938 118.86132812 C122.57694747 152.78232024 109.31017962 183.28173051 85.8125 207.4375 C67.62042683 225.4375 67.62042683 225.4375 60.8125 225.4375 C60.58857488 220.04836888 60.42605566 214.66199072 60.31811523 209.26928711 C60.2730896 207.43872879 60.21184385 205.6084899 60.13354492 203.77905273 C59.49860914 188.55304358 59.49860914 188.55304358 62.69116211 183.41259766 C64.95163672 181.20606062 67.29368242 179.33720609 69.8125 177.4375 C84.80537806 159.62469115 91.28758873 135.14565267 89.57421875 112.25390625 C86.92238028 89.08380242 76.26671838 68.48009595 58.97265625 52.875 C38.00141511 36.30513045 15.20151865 30.86248458 -11.1875 32.4375 C-34.92257513 35.22906076 -56.17574234 48.5786525 -70.9375 67.0625 C-84.49359791 86.05579871 -90.87786346 109.6702191 -87.87109375 132.87988281 C-84.7371309 151.40221179 -76.50963421 173.29582665 -61.07983398 185.04199219 C-58.32593932 188.52815068 -58.6886601 191.89194954 -58.796875 196.140625 C-58.80253479 196.97841492 -58.80819458 197.81620483 -58.81402588 198.67938232 C-58.83637671 201.34934166 -58.88656902 204.01794787 -58.9375 206.6875 C-58.95756675 208.49998059 -58.97581722 210.31248226 -58.9921875 212.125 C-59.03623706 216.56301959 -59.10525434 221.00003056 -59.1875 225.4375 C-68.99478836 221.63965427 -76.62868671 214.58379378 -84.1875 207.4375 C-85.31478516 206.40689453 -85.31478516 206.40689453 -86.46484375 205.35546875 C-107.3249189 185.59522182 -119.39844633 155.92037034 -120.46875 127.41015625 C-121.23627948 92.38629382 -110.3759099 62.04637021 -86.1875 36.4375 C-85.43984375 35.61378906 -84.6921875 34.79007813 -83.921875 33.94140625 C-62.70899703 11.4290639 -30.48360164 -0.24662796 0 0 Z " fill="#000000" transform="translate(210.1875,-0.4375)"/>
<path d="M0 0 C13.25535078 10.2462338 22.06433663 24.22701065 24.40625 40.890625 C25.58581067 51.98921854 24.51518525 62.73821534 20 73 C17.82927598 70.21816306 16.03981807 67.38603732 14.3125 64.3125 C9.76315622 56.71911002 4.67790422 51.00246869 -2.6875 46.0625 C-8.27591779 42.20014477 -10.5579134 38.21622045 -13 32 C-14.01793047 29.46202089 -14.50517787 28.29648007 -16.87109375 26.87890625 C-17.57363281 26.58886719 -18.27617187 26.29882812 -19 26 C-19.67160156 25.65839844 -20.34320313 25.31679687 -21.03515625 24.96484375 C-21.70417969 24.62582031 -22.37320313 24.28679687 -23.0625 23.9375 C-23.73410156 23.59589844 -24.40570313 23.25429687 -25.09765625 22.90234375 C-31.22270622 19.99703257 -38.2975855 20.04986852 -44.80078125 21.71875 C-54.02826964 25.19131012 -58.71556607 30.32246897 -63 39 C-63.27199219 39.67675781 -63.54398438 40.35351562 -63.82421875 41.05078125 C-65.43816303 43.72638987 -67.46425884 44.90745662 -70.0625 46.625 C-79.68349363 53.43777167 -85.87953405 61.43778396 -91 72 C-91.66 72 -92.32 72 -93 72 C-93.48509793 70.62708132 -93.96275513 69.25153297 -94.4375 67.875 C-94.70433594 67.10929687 -94.97117188 66.34359375 -95.24609375 65.5546875 C-99.94961646 49.61632556 -96.67326403 32.65073638 -89.01953125 18.26171875 C-85.90540896 13.23214019 -82.22581151 9.1148007 -78 5 C-77.39800781 4.36578125 -76.79601562 3.7315625 -76.17578125 3.078125 C-72.11773436 -0.90069755 -67.64860936 -3.3942965 -62.5625 -5.8125 C-61.64960205 -6.24792114 -61.64960205 -6.24792114 -60.71826172 -6.69213867 C-41.14706469 -15.49580031 -17.25260994 -12.26098403 0 0 Z " fill="#000000" transform="translate(247,71)"/>
</svg>
