<?xml version="1.0" encoding="UTF-8"?>
<svg version="1.1" xmlns="http://www.w3.org/2000/svg" width="512" height="512">
<path d="M0 0 C1.63956665 0.01353516 1.63956665 0.01353516 3.31225586 0.02734375 C23.72564451 0.46266814 42.45748296 8.76509901 56.6875 23.4375 C72.42062587 41.14026911 78.22629709 61.64476543 76.91064453 84.83984375 C75.56189407 100.54083376 68.83199505 114.53198014 58.6875 126.4375 C57.965625 127.4275 57.24375 128.4175 56.5 129.4375 C45.11472842 142.78192545 26.21621092 151.24203351 8.97558594 152.66064453 C-3.40329884 153.32790784 -14.58490609 152.56203515 -26.3125 148.4375 C-27.3025 148.1075 -28.2925 147.7775 -29.3125 147.4375 C-29.56773437 148.12585938 -29.82296875 148.81421875 -30.0859375 149.5234375 C-31.48261984 152.84167007 -33.1613046 155.9381572 -34.9375 159.0625 C-35.32010986 159.73925781 -35.70271973 160.41601562 -36.09692383 161.11328125 C-40.65195165 169.11490898 -45.37221321 177.02012276 -50.07885742 184.93310547 C-54.675164 192.66200447 -59.22963172 200.41383166 -63.75 208.1875 C-68.86536887 216.98181392 -74.04124628 225.73574782 -79.3125 234.4375 C-78.4875 235.406875 -77.6625 236.37625 -76.8125 237.375 C-76.26335937 238.0246875 -75.71421875 238.674375 -75.1484375 239.34375 C-73.94582095 240.71524462 -72.70123376 242.05128174 -71.4140625 243.34375 C-62.48532673 252.51952589 -54.3125 267.35091616 -54.3125 280.4375 C-33.8525 280.4375 -13.3925 280.4375 7.6875 280.4375 C8.3475 277.4675 9.0075 274.4975 9.6875 271.4375 C15.4509536 257.9315756 24.58707595 249.2813385 38.0625 243.5625 C50.41023279 238.64295475 65.09866349 238.511696 77.47265625 243.46484375 C78.20355469 243.78582031 78.93445313 244.10679687 79.6875 244.4375 C80.6775 244.7675 81.6675 245.0975 82.6875 245.4375 C90.41942964 237.09218137 97.91228263 228.59147708 104.6875 219.4375 C104.27177734 218.64085937 104.27177734 218.64085937 103.84765625 217.828125 C103.48542969 217.12171875 103.12320312 216.4153125 102.75 215.6875 C102.39035156 214.99140625 102.03070313 214.2953125 101.66015625 213.578125 C98.00659987 205.53736638 98.52195815 194.36654381 100.5234375 185.90234375 C104.34470833 175.96447499 111.1036115 168.13729148 120.6875 163.4375 C121.3165625 163.11910156 121.945625 162.80070313 122.59375 162.47265625 C131.47785688 158.76525011 143.50692219 159.01919629 152.625 161.9375 C163.37515198 166.59372084 171.07110709 174.69541281 175.5625 185.4375 C178.33415635 194.8810477 178.11185115 206.55353623 173.82421875 215.4296875 C167.72815145 226.19731153 159.59516001 233.1842385 147.85546875 237.0390625 C144.7447461 237.61076288 141.72360543 237.60877256 138.5625 237.625 C137.89524902 237.63289551 137.22799805 237.64079102 136.54052734 237.64892578 C132.47250224 237.64009718 129.15402572 237.08696844 125.3125 235.8125 C122.98421658 235.14456341 122.98421658 235.14456341 120.6875 235.4375 C116.9686188 238.20607084 114.43439378 241.73662392 111.6875 245.4375 C110.06996556 247.42277279 108.44513304 249.40212518 106.8125 251.375 C105.73355469 252.71884766 105.73355469 252.71884766 104.6328125 254.08984375 C103.05889584 255.98928936 101.47081404 257.73830455 99.6875 259.4375 C100.9855416 262.82683085 102.47413652 265.99061448 104.1875 269.1875 C110.02682924 280.9006088 110.31619938 294.025298 106.71875 306.56640625 C101.82065127 320.2031584 92.65344926 330.91124784 79.6875 337.4375 C66.78764455 343.18023618 51.83494411 343.47118902 38.578125 338.69140625 C25.37712918 332.96502833 15.56069523 323.7131989 9.6875 310.4375 C9.0275 307.4675 8.3675 304.4975 7.6875 301.4375 C-12.7725 301.4375 -33.2325 301.4375 -54.3125 301.4375 C-54.9725 305.0675 -55.6325 308.6975 -56.3125 312.4375 C-57.42578125 315.8203125 -57.42578125 315.8203125 -58.625 318.5625 C-59.01300781 319.47257812 -59.40101563 320.38265625 -59.80078125 321.3203125 C-61.80565766 325.45439874 -64.04672026 329.44180047 -66.3125 333.4375 C-62.90192868 336.87303609 -59.4878981 340.30508565 -56.07080078 343.73413086 C-54.91199681 344.89792274 -53.75409678 346.06261549 -52.59716797 347.22827148 C-50.92139423 348.91635644 -49.24225246 350.60103138 -47.5625 352.28515625 C-46.8041687 353.05122948 -46.8041687 353.05122948 -46.03051758 353.83277893 C-43.25916676 356.60454847 -40.41809831 359.24091484 -37.44921875 361.80078125 C-33.06066676 365.60307704 -28.9648473 369.65835231 -24.875 373.77734375 C-24.10945801 374.54430069 -23.34391602 375.31125763 -22.55517578 376.10145569 C-20.13856803 378.52360881 -17.72548274 380.94923612 -15.3125 383.375 C-13.66299314 385.02952893 -12.01325571 386.68382802 -10.36328125 388.33789062 C-6.34368629 392.36844202 -2.32696831 396.40184272 1.6875 400.4375 C4.44272744 399.34826481 7.15308833 398.22597345 9.8515625 397 C25.83942539 389.78200321 41.70189733 388.06983341 58.6875 393.4375 C75.59853274 400.00194741 87.02998734 410.57496798 95 426.9375 C101.90699389 442.75912067 101.16547494 459.31075133 95.6875 475.4375 C92.23434779 483.76075138 87.00043447 490.09191242 80.6875 496.4375 C80.08421875 497.07558594 79.4809375 497.71367187 78.859375 498.37109375 C67.11046651 509.83905008 51.18054693 512.85060984 35.41308594 512.80322266 C27.49716202 512.66578467 20.96986013 511.7253166 13.6875 508.4375 C12.74003906 508.01339844 11.79257812 507.58929688 10.81640625 507.15234375 C-3.69332158 499.92766651 -14.35384187 487.38831494 -20.3125 472.4375 C-25.40855378 455.65500711 -24.30840562 439.21691999 -16.69140625 423.4921875 C-16.36628052 422.80890381 -16.04115479 422.12562012 -15.70617676 421.42163086 C-14.91353665 419.75774171 -14.11376472 418.09725308 -13.3125 416.4375 C-17.57759862 412.14750632 -21.84610568 407.86094263 -26.11767578 403.57739258 C-27.56748917 402.12257983 -29.01640017 400.66686717 -30.46435547 399.21020508 C-32.55714643 397.10515449 -34.65326374 395.00346381 -36.75 392.90234375 C-37.38679687 392.26038559 -38.02359375 391.61842743 -38.6796875 390.95701599 C-42.44251383 387.19373129 -46.32837636 383.64793502 -50.35473633 380.16941833 C-53.51087289 377.37737001 -56.47175538 374.40171163 -59.4375 371.41015625 C-60.06986572 370.77637558 -60.70223145 370.14259491 -61.35375977 369.48960876 C-63.34239986 367.49544022 -65.32750527 365.49779647 -67.3125 363.5 C-68.67294318 362.13453255 -70.03361831 360.76929614 -71.39453125 359.40429688 C-74.7032031 356.08469114 -78.00871322 352.76196727 -81.3125 349.4375 C-85.34403074 351.01120781 -89.10379631 352.86295461 -92.9375 354.875 C-98.90592531 357.92641934 -104.72050749 360.07776557 -111.3125 361.4375 C-112.405625 361.664375 -113.49875 361.89125 -114.625 362.125 C-134.86483391 363.84024016 -150.73714597 359.20158557 -168.3125 349.4375 C-184.6475 365.7725 -184.6475 365.7725 -201.3125 382.4375 C-200.3225 385.4075 -199.3325 388.3775 -198.3125 391.4375 C-194.89016348 404.07919206 -196.05571996 415.89398333 -202.3125 427.4375 C-208.94552553 437.92768636 -217.64054955 443.53128725 -229.3125 447.4375 C-240.5572327 449.68362123 -252.14107639 448.37553299 -262.3125 442.78125 C-273.25795864 435.42726997 -280.06891401 426.36151335 -282.84375 413.4453125 C-284.93474456 400.02809744 -281.59460794 388.67703107 -274.04296875 377.5703125 C-267.92444279 369.63562465 -258.20434717 363.9186322 -248.3125 362.4375 C-238.78608802 361.69033043 -230.62763505 361.95454889 -221.6328125 365.5625 C-219.25796214 366.61392456 -219.25796214 366.61392456 -216.3125 366.4375 C-214.65030601 365.21202844 -214.65030601 365.21202844 -213.03442383 363.5 C-212.39398636 362.85933594 -211.75354889 362.21867187 -211.09370422 361.55859375 C-210.40922714 360.85863281 -209.72475006 360.15867187 -209.01953125 359.4375 C-208.31350266 358.72722656 -207.60747406 358.01695312 -206.88005066 357.28515625 C-204.62124981 355.00953004 -202.37308693 352.72370635 -200.125 350.4375 C-198.59769336 348.89515158 -197.069707 347.35347594 -195.54101562 345.8125 C-191.79024779 342.02861171 -188.04816783 338.23629338 -184.3125 334.4375 C-185.73285724 330.80925696 -187.34820669 327.43557118 -189.1875 324 C-197.38833315 307.35713272 -199.91827319 287.46530995 -194.125 269.5 C-192.20640358 264.23488625 -189.91825436 259.26109037 -187.03515625 254.453125 C-186.09282245 252.45034975 -186.09282245 252.45034975 -186.91015625 250.42578125 C-188.60152115 248.02771792 -190.46707814 246.29720986 -192.6875 244.375 C-196.64975784 240.89943568 -200.56496165 237.38696168 -204.4375 233.8125 C-212.51600074 226.1791013 -212.51600074 226.1791013 -221.3125 219.4375 C-223.94408793 220.27195505 -223.94408793 220.27195505 -226.6875 221.75 C-236.06761504 226.46589806 -247.45668169 227.05633192 -257.625 224.3125 C-270.36928206 219.7821406 -278.20875946 212.36059045 -284.0925293 200.41210938 C-288.77585227 190.5237284 -288.90076108 178.31476524 -285.6875 167.875 C-283.6669884 162.68547546 -281.02170938 158.56678851 -277.3125 154.4375 C-276.78785156 153.82132813 -276.26320313 153.20515625 -275.72265625 152.5703125 C-268.91699468 145.10810475 -259.23408599 140.70167713 -249.1484375 140.06640625 C-236.30387641 139.71299123 -225.39998004 141.86054448 -215.30859375 150.43359375 C-206.04940991 159.72901706 -201.97470977 169.97775458 -201.875 182.9375 C-201.93808267 190.15869372 -202.88434191 196.60252759 -205.3125 203.4375 C-202.81467427 205.79398224 -200.31383185 208.14724016 -197.8125 210.5 C-197.11640625 211.15677734 -196.4203125 211.81355469 -195.703125 212.49023438 C-191.58572929 216.35982386 -187.40943529 220.14187385 -183.14257812 223.84594727 C-180.67311935 225.99354622 -178.24165743 228.18201065 -175.8125 230.375 C-174.52859375 231.53322266 -174.52859375 231.53322266 -173.21875 232.71484375 C-172.5896875 233.28332031 -171.960625 233.85179687 -171.3125 234.4375 C-169.06125455 233.36973639 -166.96804574 232.21974786 -164.859375 230.88671875 C-148.34386183 220.48379076 -128.87902764 216.73802506 -109.6875 220.875 C-107.56062598 221.38812695 -105.43539395 221.90814789 -103.3125 222.4375 C-101.64695348 222.77638594 -99.98044852 223.11064129 -98.3125 223.4375 C-97.92618408 222.76509277 -97.53986816 222.09268555 -97.1418457 221.39990234 C-89.95539787 208.89868747 -82.74458611 196.41479382 -75.38793945 184.01269531 C-72.20893979 178.65174368 -69.04559455 173.28202971 -65.8984375 167.90234375 C-65.51853668 167.25313461 -65.13863586 166.60392548 -64.7472229 165.93504333 C-63.23415026 163.34894329 -61.72126401 160.7627385 -60.21075439 158.17514038 C-59.16235254 156.37918476 -58.11266322 154.58398865 -57.0625 152.7890625 C-56.41796875 151.68723633 -55.7734375 150.58541016 -55.109375 149.45019531 C-53.5606126 146.85349314 -51.95771895 144.3094316 -50.3125 141.7734375 C-48.05539983 138.65692071 -48.05539983 138.65692071 -48.3125 135.4375 C-49.78152236 133.94421842 -49.78152236 133.94421842 -51.75 132.5 C-66.59876009 119.93364649 -74.35272201 101.2245535 -76.125 82.1875 C-77.13662077 61.59680223 -71.29214677 41.80422924 -57.73046875 26.0390625 C-42.33330497 9.47280874 -22.79735125 -0.22756461 0 0 Z M-42.3125 41.62890625 C-53.27147793 54.83164044 -55.6531021 69.81403391 -54.3125 86.4375 C-51.8891858 99.98602939 -44.24666415 112.82403017 -33.00390625 120.89453125 C-26.84683587 125.09173362 -20.65966643 128.80155042 -13.3125 130.4375 C-12.58160156 130.61667969 -11.85070312 130.79585938 -11.09765625 130.98046875 C6.05504362 133.79514741 21.59780276 129.80559645 35.83203125 119.953125 C46.36603833 111.55916275 53.61345826 98.68092247 55.6875 85.4375 C56.72046418 68.23271962 53.91858946 53.62299782 42.62109375 39.93359375 C32.61707482 29.35689396 19.48322728 22.27089377 4.8125 21.234375 C-14.43740567 20.94562641 -29.35511782 27.4314621 -42.3125 41.62890625 Z M-262.1875 169.5 C-266.72304924 175.76972983 -267.09188691 180.76201879 -266.3125 188.4375 C-264.59654462 194.62315952 -260.62899221 198.96685851 -255.3125 202.4375 C-249.50667738 205.20759837 -243.23161238 205.55820508 -237.03125 203.78515625 C-230.6298017 200.91681499 -226.12347009 195.814811 -223.3125 189.4375 C-221.90414185 183.04572073 -222.31367427 178.31233265 -225.3125 172.4375 C-228.72103367 167.50929262 -232.45017263 163.17448589 -238.3125 161.4375 C-248.58085256 160.25475782 -255.31270068 161.69134065 -262.1875 169.5 Z M123.30859375 187.94140625 C119.86302979 192.92366772 119.82141062 198.59581548 120.6875 204.4375 C123.04284436 209.32936906 126.4048458 212.24828942 130.6875 215.4375 C135.8167104 217.1472368 140.74897216 217.08367595 145.875 215.375 C149.97988479 212.54719048 153.44257505 208.92734989 155.6875 204.4375 C156.46289864 197.85768871 156.22938097 192.53296249 152.22265625 187.09765625 C148.10175677 182.64121279 144.30991032 181.20188313 138.25 180.875 C131.86024152 181.13831422 127.611127 183.24884166 123.30859375 187.94140625 Z M-164.33984375 257.76953125 C-172.76804388 268.48919734 -177.05366198 280.95720948 -176.08984375 294.5859375 C-174.22461415 309.83373676 -167.51278555 321.65235825 -155.8984375 331.58203125 C-144.11644965 340.03587449 -130.50738167 343.14543708 -116.265625 340.97265625 C-102.66392929 337.99508297 -90.9353878 330.4231885 -82.9375 318.9375 C-75.40883824 306.66620668 -72.30771796 293.78541481 -75.4375 279.5625 C-79.73415196 264.04681235 -88.15046483 253.0377099 -102.14453125 245.06640625 C-122.88179507 234.40371943 -149.16695778 240.31632715 -164.33984375 257.76953125 Z M33.6875 272.4375 C29.10064187 279.82427649 26.75930793 286.73901427 27.6875 295.4375 C29.80588084 304.42147657 33.71084832 310.98416221 41.31640625 316.26171875 C48.95745092 320.62657649 55.99188584 321.88840293 64.6875 320.4375 C72.67658071 317.83421042 79.21953089 313.64350032 83.6875 306.4375 C87.54095612 298.76509632 89.18963342 291.27715477 87.02734375 282.87109375 C84.03320022 274.38120626 78.59552482 267.81215203 70.6875 263.4375 C57.01887912 258.09395983 43.22807 261.44194111 33.6875 272.4375 Z M-258.00390625 391.4765625 C-261.63557079 397.00165897 -262.84861369 401.78969021 -262.3125 408.4375 C-260.4411348 415.55094243 -257.61449064 420.51969805 -251.3125 424.4375 C-245.35019513 427.80911523 -239.92583243 427.95393291 -233.3125 426.4375 C-226.63278474 424.35304985 -222.76690628 420.44023878 -219.3125 414.4375 C-217.02883828 408.97656979 -216.80778752 404.1143698 -218.3125 398.4375 C-221.35451661 391.659887 -226.35728806 386.27888321 -233.3125 383.4375 C-243.10314297 382.05778879 -251.48457443 383.61722946 -258.00390625 391.4765625 Z M11.6875 421.4375 C11.07261719 421.96214844 10.45773437 422.48679687 9.82421875 423.02734375 C2.44064057 429.74687421 -1.60538104 438.89910683 -2.53125 448.76953125 C-2.96981533 460.37323901 0.8719915 471.0872321 8.7265625 479.6640625 C17.68482002 488.11584609 27.32288758 492.12045866 39.6875 492.4375 C51.39437061 491.33685405 61.11792138 486.97259494 69.16015625 478.34375 C76.0797433 469.70753905 79.38024581 459.53637897 79.02734375 448.51171875 C77.79284347 437.34445763 72.64841445 427.91950338 64.40234375 420.3359375 C56.13046174 414.01433661 45.95158331 410.59746715 35.51171875 411.0546875 C26.30997663 412.30194992 18.54948558 415.15113352 11.6875 421.4375 Z " fill="#000000" transform="translate(311.3125,-0.4375)"/>
</svg>
