<?xml version="1.0" encoding="UTF-8"?>
<svg version="1.1" xmlns="http://www.w3.org/2000/svg" width="512" height="512">
<path d="M0 0 C3.12750659 2.62933286 5.98590768 5.47692483 8.84619141 8.39208984 C10.0773317 9.62235397 10.0773317 9.62235397 11.33334351 10.87747192 C14.01568743 13.56257928 16.68362155 16.26152543 19.3515625 18.9609375 C21.21969987 20.83654341 23.08861262 22.71134322 24.95858765 24.58511353 C29.35793067 28.99682689 33.74698808 33.41862438 38.13232839 37.84425223 C43.13050831 42.8873362 48.14022173 47.91889691 53.15087628 52.94958186 C63.44668353 63.28705857 73.72812912 73.6387391 84 84 C87.08987959 82.62609789 89.17413644 81.06306325 91.53781128 78.65559387 C92.22145248 77.96458588 92.90509369 77.27357788 93.60945129 76.56163025 C94.34918686 75.80370682 95.08892242 75.04578339 95.85107422 74.26489258 C97.03253777 73.06700104 97.03253777 73.06700104 98.23786926 71.84490967 C99.94938417 70.10903563 101.65876463 68.37105512 103.36626816 66.63123512 C106.07754664 63.87126156 108.79713139 61.11974483 111.51956177 58.37077332 C119.26049642 50.55355933 126.99544326 42.7306163 134.70214844 34.87963867 C139.41752546 30.07618019 144.15161495 25.2918423 148.89636612 20.51737022 C150.69440647 18.70147544 152.486018 16.87918991 154.27077866 15.05024147 C166.7152407 2.30417551 177.70090912 -8.90288678 196.5 -9.3125 C209.50675964 -9.17630356 218.83094548 -5.11204414 227.96484375 3.94921875 C236.83741762 13.49708366 239.47920807 23.67663698 239.24609375 36.5390625 C238.2974845 49.87982113 230.87852233 59.75010903 221.60791016 68.84619141 C220.78773407 69.6669516 219.96755798 70.48771179 219.12252808 71.33334351 C216.43742072 74.01568743 213.73847457 76.68362155 211.0390625 79.3515625 C209.16345659 81.21969987 207.28865678 83.08861262 205.41488647 84.95858765 C201.00317311 89.35793067 196.58137562 93.74698808 192.15574777 98.13232839 C187.1126638 103.13050831 182.08110309 108.14022173 177.05041814 113.15087628 C166.71294143 123.44668353 156.3612609 133.72812912 146 144 C147.37390211 147.08987959 148.93693675 149.17413644 151.34440613 151.53781128 C152.03541412 152.22145248 152.72642212 152.90509369 153.43836975 153.60945129 C154.19629318 154.34918686 154.95421661 155.08892242 155.73510742 155.85107422 C156.93299896 157.03253777 156.93299896 157.03253777 158.15509033 158.23786926 C159.89096437 159.94938417 161.62894488 161.65876463 163.36876488 163.36626816 C166.12873844 166.07754664 168.88025517 168.79713139 171.62922668 171.51956177 C179.44644067 179.26049642 187.2693837 186.99544326 195.12036133 194.70214844 C199.92381981 199.41752546 204.7081577 204.15161495 209.48262978 208.89636612 C211.29852456 210.69440647 213.12081009 212.486018 214.94975853 214.27077866 C227.69582449 226.7152407 238.90288678 237.70090912 239.3125 256.5 C239.17630356 269.50675964 235.11204414 278.83094548 226.05078125 287.96484375 C216.50291634 296.83741762 206.32336302 299.47920807 193.4609375 299.24609375 C180.12017887 298.2974845 170.24989097 290.87852233 161.15380859 281.60791016 C160.3330484 280.78773407 159.51228821 279.96755798 158.66665649 279.12252808 C155.98431257 276.43742072 153.31637845 273.73847457 150.6484375 271.0390625 C148.78030013 269.16345659 146.91138738 267.28865678 145.04141235 265.41488647 C140.64206933 261.00317311 136.25301192 256.58137562 131.86767161 252.15574777 C126.86949169 247.1126638 121.85977827 242.08110309 116.84912372 237.05041814 C106.55331647 226.71294143 96.27187088 216.3612609 86 206 C82.92518994 207.37004407 80.83408694 208.92406013 78.47323608 211.31317139 C77.79222839 211.99721039 77.1112207 212.68124939 76.40957642 213.38601685 C75.67290741 214.13616058 74.9362384 214.88630432 74.17724609 215.65917969 C73.39293213 216.44962677 72.60861816 217.24007385 71.80053711 218.05447388 C70.09709314 219.77222743 68.39589248 221.49220784 66.69666672 223.21413422 C64.00221807 225.94336837 61.30073418 228.6654493 58.59707642 231.38555908 C50.91051099 239.12101345 43.23497849 246.86734167 35.56884766 254.62304688 C30.87890756 259.36761309 26.17825654 264.10135616 21.4719429 268.82968903 C19.68447362 270.62953218 17.90080264 272.43315614 16.12110519 274.24068451 C13.62297081 276.77751475 11.11251221 279.30153934 8.59912109 281.82324219 C7.87459747 282.565289 7.15007385 283.30733582 6.40359497 284.0718689 C-3.10263214 293.54256871 -13.49093232 299.02411513 -27 299.375 C-38.96943984 299.06410546 -49.01049597 294.89889337 -57.8125 286.6875 C-66.54203826 277.32121895 -69.60778836 265.96235187 -69.28125 253.390625 C-68.17602029 240.06646689 -60.89789204 230.26889603 -51.60791016 221.15380859 C-50.37764603 219.9226683 -50.37764603 219.9226683 -49.12252808 218.66665649 C-46.43742072 215.98431257 -43.73847457 213.31637845 -41.0390625 210.6484375 C-39.16345659 208.78030013 -37.28865678 206.91138738 -35.41488647 205.04141235 C-31.00317311 200.64206933 -26.58137562 196.25301192 -22.15574777 191.86767161 C-17.1126638 186.86949169 -12.08110309 181.85977827 -7.05041814 176.84912372 C3.28705857 166.55331647 13.6387391 156.27187088 24 146 C22.62995593 142.92518994 21.07593987 140.83408694 18.68682861 138.47323608 C17.66077011 137.45172455 17.66077011 137.45172455 16.61398315 136.40957642 C15.86383942 135.67290741 15.11369568 134.9362384 14.34082031 134.17724609 C13.55037323 133.39293213 12.75992615 132.60861816 11.94552612 131.80053711 C10.22777257 130.09709314 8.50779216 128.39589248 6.78586578 126.69666672 C4.05663163 124.00221807 1.3345507 121.30073418 -1.38555908 118.59707642 C-9.12101345 110.91051099 -16.86734167 103.23497849 -24.62304688 95.56884766 C-29.36761309 90.87890756 -34.10135616 86.17825654 -38.82968903 81.4719429 C-40.62953218 79.68447362 -42.43315614 77.90080264 -44.24068451 76.12110519 C-46.77751475 73.62297081 -49.30153934 71.11251221 -51.82324219 68.59912109 C-52.565289 67.87459747 -53.30733582 67.15007385 -54.0718689 66.40359497 C-63.47179916 56.96840289 -68.97722234 46.59494276 -69.4375 33.1875 C-69.1379289 21.70394111 -65.97488518 12.33440869 -58 4 C-57.3915625 3.36320312 -56.783125 2.72640625 -56.15625 2.0703125 C-40.05969488 -13.30057825 -17.46336123 -11.96862494 0 0 Z " fill="#C72113" transform="translate(171,111)"/>
</svg>
